<svg width="45" height="45" viewBox="0 0 45 45" fill="none" xmlns="http://www.w3.org/2000/svg">
<path d="M22.5 0C10.0936 0 0 10.0936 0 22.5C0 34.9064 10.0936 45 22.5 45C34.9064 45 45 34.9064 45 22.5C45 10.0936 34.9064 0 22.5 0ZM17.0675 12.6368C18.4381 11.184 20.3668 10.3846 22.5 10.3846C24.6332 10.3846 26.5446 11.1894 27.9206 12.6498C29.3149 14.1296 29.9932 16.1178 29.8331 18.2553C29.5129 22.5 26.2244 25.9615 22.5 25.9615C18.7756 25.9615 15.4806 22.5 15.1669 18.2542C15.0079 16.0994 15.6851 14.1047 17.0675 12.6368ZM22.5 41.5385C19.9584 41.5401 17.4424 41.0314 15.1012 40.0424C12.7599 39.0535 10.641 37.6046 8.87019 35.7815C9.88436 34.3352 11.1766 33.1054 12.6714 32.1642C15.4287 30.3966 18.9184 29.4231 22.5 29.4231C26.0816 29.4231 29.5713 30.3966 32.3254 32.1642C33.8213 33.1051 35.1147 34.3348 36.1298 35.7815C34.3592 37.6048 32.2403 39.0539 29.899 40.0429C27.5577 41.0318 25.0416 41.5404 22.5 41.5385Z" fill="#FF6A25"/>
</svg>
