<svg width="169" height="39" viewBox="0 0 169 39" fill="none" xmlns="http://www.w3.org/2000/svg">
<path d="M23.4828 27.6582C23.4828 29.315 24.8259 30.6582 26.4828 30.6582H35.1006C37.5725 30.6582 38.5612 32.3128 38.5612 33.9675C38.5612 35.7028 37.5313 37.2768 35.1006 37.2768H3.46062C1.02995 37.2768 0 35.7028 0 33.9675C0 32.3128 0.988749 30.6582 3.46062 30.6582H12.0784C13.7353 30.6582 15.0784 29.315 15.0784 27.6582V22.8692H8.44557C3.58422 22.8692 2.18349 21.1742 2.18349 16.6542V5.3541C2.18349 2.65015 4.20219 1.43944 6.42687 1.43944C8.69276 1.43944 10.5879 2.69051 10.5879 5.3541V14.9188C10.5879 15.8067 10.835 16.0084 11.7826 16.0084H33.3703C35.7598 16.0084 36.6661 17.7842 36.6661 19.3985C36.6661 21.0531 35.7186 22.8692 33.3703 22.8692H23.4828V27.6582Z" fill="white"/>
<path d="M46.1479 22.3983C44.0468 22.4387 42.5636 21.228 42.5636 19.4119C42.5636 17.6362 43.6348 16.5465 45.2415 16.3851C48.9081 15.9412 51.0504 13.6811 51.0504 10.2104V9.80684H45.7771C43.8408 9.80684 42.7696 8.15218 42.7696 6.69932C42.7696 5.24646 43.676 3.51109 45.7771 3.51109H50.8856C50.8856 1.13001 52.2452 0 54.7994 0C57.3537 0 58.7956 1.17036 58.7956 3.51109H64.0277C66.1288 3.51109 67.0352 5.24646 67.0352 6.69932C67.0352 8.15218 65.964 9.80684 64.0277 9.80684H58.7132V10.3315C58.7132 10.8965 58.672 11.4615 58.5896 12.0265C64.5221 12.1879 67.5708 15.0937 67.406 21.914H59.7844C60.1139 18.968 58.6308 17.3537 56.4473 17.4747C54.0579 20.6226 50.1441 22.358 46.1479 22.3983ZM65.9228 12.2283C65.9228 10.3718 67.2412 9.04005 69.3423 9.04005H71.4434V4.23752C71.4434 1.61429 73.3797 0.242143 75.5632 0.242143C77.7466 0.242143 79.6829 1.61429 79.6829 4.23752V21.1977L71.4434 22.3983V15.3358H69.3423C67.2824 15.3358 65.9228 14.1251 65.9228 12.2283ZM53.4399 23.6494H71.4846C77.3759 23.6494 80.1361 26.5955 80.1361 30.9541C80.1361 35.3127 77.3759 38.2588 71.4846 38.2588H53.4399C47.5074 38.2588 44.7883 35.232 44.7883 30.9541C44.7883 26.6762 47.5074 23.6494 53.4399 23.6494ZM55.4174 32.8509H69.5483C71.0726 32.8509 71.7729 32.0437 71.7729 30.9541C71.7729 29.8644 71.0726 29.0573 69.5483 29.0573H55.4174C53.8519 29.0573 53.1515 29.8644 53.1515 30.9541C53.1515 32.0437 53.8519 32.8509 55.4174 32.8509Z" fill="white"/>
<path d="M122.529 14.7876H124.012C126.525 14.7876 127.267 16.6844 127.267 18.2987C127.267 19.9533 126.484 21.8098 124.012 21.8098H122.529V37.1725C122.529 37.1725 120.361 38.5257 118.752 38.8541C117.143 39.1824 114.289 38.8541 114.289 38.8541V4.6579C114.289 2.03467 116.226 0.662525 118.409 0.662525C120.592 0.662525 122.529 2.03467 122.529 4.6579V14.7876ZM93.8138 1.99432H103.619C108.933 1.99432 109.922 3.56826 109.922 8.65328V37.0245H93.8138C88.4993 37.0245 87.5105 35.4506 87.5105 30.3655V8.65328C87.5105 3.56826 88.4993 1.99432 93.8138 1.99432ZM99.0116 31.2633C101.971 31.2633 101.971 30.6884 101.971 30.6884V9.66222C101.971 8.85507 101.765 8.33042 100.859 8.33042H96.5329C95.6265 8.33042 95.4617 8.85507 95.4617 9.66222V29.3163C95.4617 30.2041 96.8659 31.2633 99.0116 31.2633Z" fill="white"/>
<path d="M164.921 21.4701H139.09C134.394 21.4701 131.922 19.0487 131.922 15.2954V14.6901C131.922 10.9368 134.394 8.71719 139.09 8.71719H158.206V7.70825C158.206 7.22397 158.041 6.78004 157.217 6.78004H135.177C133.364 6.78004 132.334 5.36753 132.334 3.91466C132.334 2.50216 133.323 1.04929 135.177 1.04929H160.513C165.333 1.04929 166.734 3.10751 166.734 6.3361V13.8829H141.974C141.15 13.8829 140.779 14.2461 140.779 14.8919C140.779 15.5779 141.15 15.8604 141.974 15.8604H164.921C166.981 15.8604 167.764 17.3133 167.764 18.6855C167.764 20.0172 166.981 21.4701 164.921 21.4701ZM133.899 23.4476H165.539C168.011 23.4476 169 25.1023 169 26.7569C169 28.4519 167.97 30.0662 165.539 30.0662H153.922V36.6041C153.922 36.6041 152.346 37.835 150.08 38.4337C148.461 38.8614 145.517 38.3395 145.517 38.3395V30.0662H133.899C131.469 30.0662 130.439 28.4519 130.439 26.7569C130.439 25.1023 131.427 23.4476 133.899 23.4476Z" fill="white"/>
</svg>
