<svg width="393" height="240" viewBox="0 0 393 240" fill="none" xmlns="http://www.w3.org/2000/svg">
<path d="M179.432 4.22778C180.063 1.33272 182.927 -0.505095 185.833 0.123105C188.738 0.75166 190.579 3.60651 189.949 6.50146L189.96 6.47789L189.949 6.53814C189.933 6.63565 189.904 6.81576 189.876 7.06464C189.819 7.56441 189.762 8.33502 189.781 9.29903C189.82 11.2409 190.166 13.8695 191.385 16.6414C191.733 17.4335 192.272 18.2607 192.959 19.1036C194.135 19.068 195.315 19.046 196.5 19.046C196.666 19.046 196.833 19.0505 196.999 19.0512C197.345 17.0977 197.896 15.1791 198.74 13.422C200.8 9.12895 203.559 6.05793 205.792 4.06014C206.913 3.05776 207.92 2.30739 208.673 1.79431C209.05 1.53793 209.368 1.33887 209.607 1.19446C209.726 1.12244 209.827 1.06154 209.906 1.01634C209.945 0.99402 209.98 0.974575 210.009 0.958709C210.023 0.950964 210.037 0.943937 210.048 0.937753C210.053 0.934985 210.064 0.929895 210.064 0.929895L210.072 0.924656L210.075 0.922037C210.075 0.922037 210.079 0.921723 212.08 4.58927L210.08 0.922037C212.692 -0.492975 215.959 0.469832 217.38 3.0726C218.8 5.67523 217.833 8.92876 215.222 10.3442L215.224 10.3468L215.245 10.3363L215.193 10.3678C215.108 10.4192 214.953 10.5151 214.746 10.6559C214.329 10.9396 213.705 11.4 212.985 12.0442C211.534 13.3417 209.763 15.3209 208.453 18.0506C208.231 18.5122 208.044 19.0323 207.887 19.6013C263.673 25.0602 307.846 69.8007 311.934 113.137C361.061 145.651 393 196.131 393 244.337C393 324.344 305.024 313.621 196.5 313.621C87.9766 313.621 0.000240075 324.344 0 244.337C0.000388662 196.132 31.9377 145.651 81.0636 113.137C85.0539 70.8317 127.25 27.1962 181.154 20.065C179.538 16.039 179.072 12.2987 179.017 9.51121C178.987 8.0104 179.072 6.76112 179.174 5.85708C179.226 5.40522 179.283 5.03669 179.329 4.76215C179.353 4.62469 179.373 4.50829 179.39 4.419C179.398 4.37455 179.407 4.3358 179.413 4.30375C179.417 4.28853 179.419 4.2742 179.421 4.26183C179.423 4.25585 179.426 4.24879 179.427 4.2435V4.2304C179.427 4.2304 179.43 4.22774 183.525 5.11316L179.432 4.22778Z" fill="white"/>
<path d="M193.22 94.2355C193.76 93.7629 196.663 93.7629 197.203 94.2355C198.913 95.7337 201.92 99.5049 204.655 101.9C206.211 103.262 210.236 103.948 214.3 104.289C216.372 104.464 216.805 109.073 214.804 109.994C208.899 112.713 201.471 115.422 195.449 115.338C189.712 115.258 182.677 112.65 177.014 110.023C175.015 109.095 175.454 104.438 177.527 104.237C181.203 103.88 184.765 103.197 186.246 101.9C188.981 99.5049 191.51 95.7337 193.22 94.2355Z" fill="#2A7EFF"/>
<path d="M226.403 90.1271C226.235 83.6677 223.692 78.4313 220.721 78.4313C217.751 78.4313 215.48 83.6677 215.647 90.1271C215.815 96.5865 218.359 101.823 221.329 101.823C224.299 101.823 226.571 96.5865 226.403 90.1271Z" fill="#373737"/>
<path d="M175.259 90.1271C175.091 83.6677 172.547 78.4313 169.577 78.4313C166.607 78.4313 164.335 83.6677 164.503 90.1271C164.671 96.5865 167.214 101.823 170.184 101.823C173.155 101.823 175.426 96.5865 175.259 90.1271Z" fill="#373737"/>
<g filter="url(#filter0_ii_48_589)">
<path d="M307.95 115.041C317.47 102.803 337.616 115.115 359.186 131.774C380.756 148.433 395.581 163.131 386.062 175.37C376.542 187.609 351.339 184.027 329.769 167.368C308.199 150.708 298.431 127.281 307.95 115.041Z" fill="#FF5E14"/>
<path d="M36.0384 131.659C57.607 115 77.7513 102.687 87.2717 114.924C96.7915 127.162 87.0247 150.59 65.4561 167.25C43.887 183.91 18.683 187.496 9.16269 175.257C-0.357329 163.019 14.469 148.319 36.0384 131.659Z" fill="#FF5E14"/>
</g>
<defs>
<filter id="filter0_ii_48_589" x="6.2229" y="102.975" width="382.779" height="93.6631" filterUnits="userSpaceOnUse" color-interpolation-filters="sRGB">
<feFlood flood-opacity="0" result="BackgroundImageFix"/>
<feBlend mode="normal" in="SourceGraphic" in2="BackgroundImageFix" result="shape"/>
<feColorMatrix in="SourceAlpha" type="matrix" values="0 0 0 0 0 0 0 0 0 0 0 0 0 0 0 0 0 0 127 0" result="hardAlpha"/>
<feOffset dy="-7"/>
<feGaussianBlur stdDeviation="4.05"/>
<feComposite in2="hardAlpha" operator="arithmetic" k2="-1" k3="1"/>
<feColorMatrix type="matrix" values="0 0 0 0 1 0 0 0 0 0.985109 0 0 0 0 0.900729 0 0 0 0.4 0"/>
<feBlend mode="normal" in2="shape" result="effect1_innerShadow_48_589"/>
<feColorMatrix in="SourceAlpha" type="matrix" values="0 0 0 0 0 0 0 0 0 0 0 0 0 0 0 0 0 0 127 0" result="hardAlpha"/>
<feOffset dy="14"/>
<feGaussianBlur stdDeviation="11.3"/>
<feComposite in2="hardAlpha" operator="arithmetic" k2="-1" k3="1"/>
<feColorMatrix type="matrix" values="0 0 0 0 1 0 0 0 0 0.985109 0 0 0 0 0.900729 0 0 0 0.7 0"/>
<feBlend mode="normal" in2="effect1_innerShadow_48_589" result="effect2_innerShadow_48_589"/>
</filter>
</defs>
</svg>
