<svg width="132" height="120" viewBox="0 0 132 120" fill="none" xmlns="http://www.w3.org/2000/svg">
<g filter="url(#filter0_d_48_715)">
<path d="M70.3466 20.8943C70.1858 20.1535 69.4553 19.6832 68.7145 19.844C67.9737 20.0048 67.5041 20.7354 67.6648 21.4761L67.6621 21.4701L67.6648 21.4855C67.669 21.5105 67.6764 21.5566 67.6836 21.6203C67.698 21.7481 67.7126 21.9453 67.7077 22.192C67.6979 22.6889 67.6095 23.3615 67.2988 24.0708C67.21 24.2735 67.0724 24.4852 66.8973 24.7009C66.5974 24.6918 66.2965 24.6861 65.9944 24.6861C65.9521 24.6861 65.9094 24.6873 65.8671 24.6875C65.7789 24.1876 65.6384 23.6966 65.4234 23.247C64.8979 22.1485 64.1944 21.3626 63.625 20.8514C63.3392 20.5949 63.0826 20.4029 62.8904 20.2716C62.7943 20.206 62.7133 20.1551 62.6524 20.1181C62.622 20.0997 62.5961 20.0841 62.576 20.0726C62.566 20.0669 62.5571 20.0619 62.5498 20.0578C62.5463 20.0558 62.5427 20.054 62.5398 20.0525C62.5385 20.0517 62.5358 20.0504 62.5358 20.0504L62.5338 20.0491L62.5331 20.0484C62.5331 20.0484 62.532 20.0484 62.0217 20.9868L62.5317 20.0484C61.8657 19.6863 61.0325 19.9327 60.6704 20.5987C60.3083 21.2647 60.5548 22.0973 61.2207 22.4594L61.22 22.4601L61.2146 22.4574L61.228 22.4655C61.2497 22.4786 61.2892 22.5032 61.342 22.5392C61.4483 22.6118 61.6075 22.7296 61.7911 22.8945C62.1609 23.2265 62.6126 23.7329 62.9467 24.4314C63.0031 24.5496 63.051 24.6826 63.0908 24.8282C48.8661 26.2251 37.6025 37.6736 36.5602 48.7628C24.0333 57.0827 15.8894 70 15.8893 82.3354C15.8893 102.808 38.3222 100.064 65.9944 100.064C93.6666 100.064 116.1 102.808 116.1 82.3354C116.1 70.0003 107.956 57.0827 95.4293 48.7628C94.4119 37.9375 83.6524 26.7717 69.9076 24.9469C70.3195 23.9167 70.4384 22.9596 70.4525 22.2463C70.4601 21.8623 70.4384 21.5426 70.4123 21.3113C70.3992 21.1956 70.3845 21.1013 70.3727 21.0311C70.3668 20.9959 70.3617 20.9661 70.3573 20.9433C70.3551 20.9319 70.353 20.922 70.3513 20.9138C70.3505 20.9099 70.35 20.9062 70.3493 20.903C70.349 20.9015 70.3482 20.8997 70.3479 20.8984L70.3479 20.895C70.3479 20.895 70.347 20.8943 69.303 21.1209L70.3466 20.8943Z" fill="white"/>
<path d="M66.8308 43.9262C66.6932 43.8053 65.9529 43.8053 65.8153 43.9262C65.3791 44.3096 64.6123 45.2746 63.915 45.8875C63.5184 46.236 62.492 46.4116 61.4558 46.4988C60.9272 46.5437 60.8169 47.7229 61.3271 47.9586C62.8328 48.6544 64.7269 49.3475 66.2624 49.326C67.7253 49.3055 69.5191 48.6382 70.9631 47.966C71.473 47.7286 71.3609 46.537 70.8324 46.4854C69.8951 46.3941 68.9866 46.2194 68.609 45.8875C67.9118 45.2746 67.2669 44.3096 66.8308 43.9262Z" fill="#2A7EFF"/>
<path d="M58.3696 42.8749C58.4123 41.222 59.0609 39.8821 59.8182 39.8821C60.5756 39.8821 61.1549 41.222 61.1121 42.8749C61.0694 44.5278 60.4208 45.8677 59.6634 45.8677C58.9061 45.8677 58.3268 44.5278 58.3696 42.8749Z" fill="#373737"/>
<path d="M71.4107 42.8749C71.4535 41.222 72.1021 39.8821 72.8594 39.8821C73.6167 39.8821 74.196 41.222 74.1533 42.8749C74.1105 44.5278 73.4619 45.8677 72.7046 45.8677C71.9473 45.8677 71.368 44.5278 71.4107 42.8749Z" fill="#373737"/>
<path d="M63.9439 65.718C69.5899 62.8933 80.594 57.8006 94.2846 48.2227C95.5291 47.3521 97.1465 48.3739 96.9069 49.8965C95.9875 55.7372 91.6936 60.5061 86.1468 61.8467L64.4617 67.088C62.7586 67.4996 62.357 66.5119 63.9439 65.718Z" fill="url(#paint0_linear_48_715)"/>
<path d="M67.6503 64.7467C59.9893 61.1504 46.9251 55.0174 37.253 48.1083C35.9517 47.1787 34.1067 48.2772 34.3658 49.8601C35.2857 55.4798 39.4915 60.0011 44.9957 61.2874L67.0917 66.4512C71.3826 67.454 71.7491 66.6709 67.7507 64.7939L67.6503 64.7467Z" fill="url(#paint1_linear_48_715)"/>
<g filter="url(#filter1_i_48_715)">
<ellipse cx="66.6626" cy="65.3151" rx="2.1553" ry="1.67635" transform="rotate(5.06194 66.6626 65.3151)" fill="#FF5754"/>
</g>
<g filter="url(#filter2_ii_48_715)">
<path d="M37.578 49.2505C35.1506 46.1188 30.0135 49.2694 24.5134 53.5323C19.0134 57.7951 15.2331 61.556 17.6604 64.6879C20.0878 67.8196 26.5145 66.903 32.0146 62.6401C37.5147 58.3773 40.0053 52.3824 37.578 49.2505Z" fill="#FF5E14"/>
<path d="M106.912 53.5028C101.413 49.2399 96.276 46.0891 93.8484 49.2204C91.421 52.3521 93.9114 58.3469 99.4111 62.61C104.911 66.873 111.338 67.7906 113.765 64.659C116.193 61.5273 112.412 57.7659 106.912 53.5028Z" fill="#FF5E14"/>
</g>
<path d="M60.5912 41.3685L60.6928 40.879L60.6928 40.879L60.5912 41.3685ZM63.0258 45.0768L63.5154 45.1784L63.5154 45.1783L63.0258 45.0768ZM59.3178 47.5104L59.2162 48L59.2163 48L59.3178 47.5104ZM56.883 43.8031L56.3934 43.7016L56.3934 43.7017L56.883 43.8031ZM73.174 41.2847L73.2756 40.7952L73.2755 40.7951L73.174 41.2847ZM75.6086 44.993L76.0981 45.0946L76.0982 45.0945L75.6086 44.993ZM71.9004 47.4275L71.7988 47.9171L71.7989 47.9171L71.9004 47.4275ZM69.4658 43.7193L68.9762 43.6178L68.9762 43.6179L69.4658 43.7193ZM60.5912 41.3685L60.4896 41.8581C61.9153 42.154 62.8318 43.5497 62.5362 44.9753L63.0258 45.0768L63.5154 45.1783C63.9231 43.2118 62.6589 41.287 60.6928 40.879L60.5912 41.3685ZM63.0258 45.0768L62.5362 44.9751C62.2404 46.4003 60.8448 47.3161 59.4192 47.0208L59.3178 47.5104L59.2163 48C61.1822 48.4072 63.1072 47.1445 63.5154 45.1784L63.0258 45.0768ZM59.3178 47.5104L59.4193 47.0208C57.9936 46.7252 57.0774 45.33 57.3726 43.9045L56.883 43.8031L56.3934 43.7017C55.9862 45.668 57.25 47.5923 59.2162 48L59.3178 47.5104ZM56.883 43.8031L57.3726 43.9046C57.6682 42.4788 59.0639 41.5625 60.4897 41.8581L60.5912 41.3685L60.6928 40.879C58.7262 40.4712 56.8012 41.735 56.3934 43.7016L56.883 43.8031ZM73.174 41.2847L73.0725 41.7743C74.4981 42.0701 75.4146 43.4658 75.119 44.8914L75.6086 44.993L76.0982 45.0945C76.5059 43.128 75.2418 41.2031 73.2756 40.7952L73.174 41.2847ZM75.6086 44.993L75.119 44.8914C74.8232 46.3168 73.4273 47.2333 72.0018 46.9379L71.9004 47.4275L71.7989 47.9171C73.7651 48.3245 75.6901 47.0606 76.0981 45.0946L75.6086 44.993ZM71.9004 47.4275L72.0019 46.9379C70.5764 46.6423 69.66 45.2464 69.9554 43.8207L69.4658 43.7193L68.9762 43.6179C68.5689 45.5841 69.8324 47.5093 71.7988 47.9171L71.9004 47.4275ZM69.4658 43.7193L69.9554 43.8208C70.251 42.395 71.6467 41.4787 73.0725 41.7743L73.174 41.2847L73.2755 40.7951C71.309 40.3874 69.384 41.6512 68.9762 43.6178L69.4658 43.7193Z" fill="#CBCBCB"/>
<path d="M61.8079 45.4267L65.5603 44.024C66.0243 43.8505 66.5362 43.8554 66.9969 44.0378L70.8766 45.5739" stroke="#BCBCBC" stroke-linecap="round"/>
</g>
<defs>
<filter id="filter0_d_48_715" x="10.8892" y="14.8125" width="110.21" height="90.3745" filterUnits="userSpaceOnUse" color-interpolation-filters="sRGB">
<feFlood flood-opacity="0" result="BackgroundImageFix"/>
<feColorMatrix in="SourceAlpha" type="matrix" values="0 0 0 0 0 0 0 0 0 0 0 0 0 0 0 0 0 0 127 0" result="hardAlpha"/>
<feOffset/>
<feGaussianBlur stdDeviation="2.5"/>
<feComposite in2="hardAlpha" operator="out"/>
<feColorMatrix type="matrix" values="0 0 0 0 0 0 0 0 0 0 0 0 0 0 0 0 0 0 0.25 0"/>
<feBlend mode="normal" in2="BackgroundImageFix" result="effect1_dropShadow_48_715"/>
<feBlend mode="normal" in="SourceGraphic" in2="effect1_dropShadow_48_715" result="shape"/>
</filter>
<filter id="filter1_i_48_715" x="64.5105" y="63.6343" width="4.3042" height="7.36133" filterUnits="userSpaceOnUse" color-interpolation-filters="sRGB">
<feFlood flood-opacity="0" result="BackgroundImageFix"/>
<feBlend mode="normal" in="SourceGraphic" in2="BackgroundImageFix" result="shape"/>
<feColorMatrix in="SourceAlpha" type="matrix" values="0 0 0 0 0 0 0 0 0 0 0 0 0 0 0 0 0 0 127 0" result="hardAlpha"/>
<feOffset dy="4"/>
<feGaussianBlur stdDeviation="2"/>
<feComposite in2="hardAlpha" operator="arithmetic" k2="-1" k3="1"/>
<feColorMatrix type="matrix" values="0 0 0 0 1 0 0 0 0 1 0 0 0 0 1 0 0 0 0.25 0"/>
<feBlend mode="normal" in2="shape" result="effect1_innerShadow_48_715"/>
</filter>
<filter id="filter2_ii_48_715" x="16.9109" y="44.9541" width="97.604" height="26.5938" filterUnits="userSpaceOnUse" color-interpolation-filters="sRGB">
<feFlood flood-opacity="0" result="BackgroundImageFix"/>
<feBlend mode="normal" in="SourceGraphic" in2="BackgroundImageFix" result="shape"/>
<feColorMatrix in="SourceAlpha" type="matrix" values="0 0 0 0 0 0 0 0 0 0 0 0 0 0 0 0 0 0 127 0" result="hardAlpha"/>
<feOffset dy="-3"/>
<feGaussianBlur stdDeviation="2"/>
<feComposite in2="hardAlpha" operator="arithmetic" k2="-1" k3="1"/>
<feColorMatrix type="matrix" values="0 0 0 0 1 0 0 0 0 0.985109 0 0 0 0 0.900729 0 0 0 0.4 0"/>
<feBlend mode="normal" in2="shape" result="effect1_innerShadow_48_715"/>
<feColorMatrix in="SourceAlpha" type="matrix" values="0 0 0 0 0 0 0 0 0 0 0 0 0 0 0 0 0 0 127 0" result="hardAlpha"/>
<feOffset dy="5"/>
<feGaussianBlur stdDeviation="2.5"/>
<feComposite in2="hardAlpha" operator="arithmetic" k2="-1" k3="1"/>
<feColorMatrix type="matrix" values="0 0 0 0 1 0 0 0 0 0.985109 0 0 0 0 0.900729 0 0 0 0.7 0"/>
<feBlend mode="normal" in2="effect1_innerShadow_48_715" result="effect2_innerShadow_48_715"/>
</filter>
<linearGradient id="paint0_linear_48_715" x1="77.8895" y1="54.9515" x2="82.7252" y2="65.4457" gradientUnits="userSpaceOnUse">
<stop offset="0.360577" stop-color="#FFCD78"/>
<stop offset="1" stop-color="#FFA100"/>
</linearGradient>
<linearGradient id="paint1_linear_48_715" x1="54.6962" y1="54.6001" x2="49.9725" y2="65.3487" gradientUnits="userSpaceOnUse">
<stop offset="0.360577" stop-color="#FFCD78"/>
<stop offset="1" stop-color="#FFA100"/>
</linearGradient>
</defs>
</svg>
