<svg width="12" height="19" viewBox="0 0 12 19" fill="none" xmlns="http://www.w3.org/2000/svg">
<path d="M11.9911 5.95181C11.9911 9.46131 9.26589 10.0064 9.26589 13.2771C9.26589 14.9657 7.56374 15.1079 6.26818 15.1079C5.14922 15.1079 2.67856 14.6833 2.67856 13.276C2.67856 10.0069 0.000244141 9.46186 0.000244141 5.95181C0.000244141 2.66469 2.88077 0 6.0409 0C9.20212 0 11.9911 2.66469 11.9911 5.95181Z" fill="#FFD983"/>
<path d="M8.26598 17.6375C8.26598 18.0888 7.04836 19.0001 5.99481 19.0001C4.94125 19.0001 3.72363 18.0888 3.72363 17.6375C3.72363 17.1862 4.9407 17.365 5.99481 17.365C7.04891 17.365 8.26598 17.1862 8.26598 17.6375Z" fill="#CCD6DD"/>
<path d="M8.56184 5.53364C8.45963 5.43146 8.32102 5.37406 8.1765 5.37406C8.03198 5.37406 7.89337 5.43146 7.79116 5.53364L5.99635 7.32845L4.20154 5.53364C4.15093 5.48303 4.09086 5.44289 4.02474 5.41551C3.95862 5.38812 3.88776 5.37402 3.8162 5.37402C3.74463 5.37402 3.67377 5.38812 3.60765 5.41551C3.54153 5.44289 3.48146 5.48303 3.43085 5.53364C3.38025 5.58424 3.34011 5.64432 3.31272 5.71043C3.28534 5.77655 3.27124 5.84741 3.27124 5.91898C3.27124 5.99054 3.28534 6.06141 3.31272 6.12752C3.34011 6.19364 3.38025 6.25372 3.43085 6.30432L5.45131 8.32478V14.0945C5.45131 14.2391 5.50873 14.3777 5.61095 14.4799C5.71316 14.5822 5.85179 14.6396 5.99635 14.6396C6.1409 14.6396 6.27953 14.5822 6.38175 14.4799C6.48396 14.3777 6.54139 14.2391 6.54139 14.0945V8.32478L8.56184 6.30432C8.66402 6.20211 8.72142 6.0635 8.72142 5.91898C8.72142 5.77445 8.66402 5.63585 8.56184 5.53364Z" fill="#FFCC4D"/>
<path d="M9.26555 16.8205C9.26555 17.1096 9.15071 17.3869 8.94628 17.5913C8.74185 17.7958 8.46458 17.9106 8.17548 17.9106H3.81517C3.52607 17.9106 3.2488 17.7958 3.04437 17.5913C2.83994 17.3869 2.7251 17.1096 2.7251 16.8205V13.5503H9.26555V16.8205Z" fill="#99AAB5"/>
<path d="M2.72564 17.3653C2.58915 17.3648 2.45782 17.3131 2.35761 17.2205C2.2574 17.1278 2.19561 17.0009 2.18444 16.8649C2.17328 16.7288 2.21356 16.5936 2.29732 16.4858C2.38108 16.378 2.50222 16.3056 2.6368 16.2829L9.17725 15.1928C9.24787 15.1806 9.3202 15.1826 9.39005 15.1986C9.45989 15.2146 9.52588 15.2443 9.58417 15.286C9.64247 15.3276 9.69192 15.3805 9.72966 15.4414C9.7674 15.5023 9.79268 15.5701 9.80404 15.6408C9.82768 15.7833 9.79377 15.9294 9.70976 16.0469C9.62576 16.1645 9.49852 16.2438 9.35602 16.2676L2.81557 17.3577C2.78585 17.3627 2.75577 17.3653 2.72564 17.3653ZM2.72564 15.1852C2.58915 15.1847 2.45782 15.133 2.35761 15.0403C2.2574 14.9476 2.19561 14.8207 2.18444 14.6847C2.17328 14.5487 2.21356 14.4134 2.29732 14.3057C2.38108 14.1979 2.50222 14.1255 2.6368 14.1027L9.17725 13.0126C9.24786 13.0006 9.32016 13.0026 9.38999 13.0186C9.45981 13.0346 9.52576 13.0643 9.58404 13.106C9.64232 13.1477 9.69176 13.2004 9.72953 13.2613C9.76729 13.3222 9.79261 13.3899 9.80404 13.4607C9.82768 13.6032 9.79377 13.7493 9.70976 13.8668C9.62576 13.9843 9.49852 14.0637 9.35602 14.0875L2.81557 15.1775C2.78585 15.1826 2.75577 15.1851 2.72564 15.1852Z" fill="#CCD6DD"/>
</svg>
