<svg width="109" height="95" viewBox="0 0 109 95" fill="none" xmlns="http://www.w3.org/2000/svg">
<g filter="url(#filter0_d_48_646)">
<path d="M49.8721 12.2339C50.0299 11.5073 50.7463 11.0461 51.4728 11.2037C52.1993 11.3615 52.6598 12.0779 52.5023 12.8045L52.5049 12.7985L52.5023 12.8137C52.4982 12.8381 52.4909 12.8833 52.4839 12.9458C52.4697 13.0712 52.4554 13.2646 52.4602 13.5065C52.4698 13.9939 52.5565 14.6535 52.8612 15.3492C52.9483 15.548 53.0832 15.7556 53.255 15.9671C53.5491 15.9582 53.8442 15.9527 54.1405 15.9527C54.182 15.9527 54.2238 15.9538 54.2654 15.954C54.3518 15.4637 54.4897 14.9822 54.7006 14.5413C55.2158 13.4639 55.9058 12.6932 56.4643 12.1918C56.7445 11.9402 56.9963 11.7519 57.1848 11.6232C57.279 11.5588 57.3584 11.5089 57.4182 11.4726C57.448 11.4545 57.4733 11.4393 57.4931 11.4279C57.5029 11.4223 57.5116 11.4174 57.5187 11.4135C57.5222 11.4115 57.5258 11.4097 57.5286 11.4082C57.5299 11.4075 57.5325 11.4062 57.5325 11.4062L57.5345 11.4049L57.5352 11.4042C57.5352 11.4042 57.5363 11.4042 58.0368 12.3246L57.5365 11.4042C58.1897 11.0491 59.0069 11.2908 59.362 11.944C59.7171 12.5971 59.4754 13.4136 58.8223 13.7688L58.823 13.7695L58.8282 13.7669L58.8151 13.7748C58.7938 13.7877 58.7551 13.8117 58.7033 13.8471C58.5991 13.9183 58.443 14.0338 58.2629 14.1955C57.9002 14.5211 57.4572 15.0178 57.1296 15.7029C57.0742 15.8187 57.0273 15.9492 56.9882 16.092C70.9391 17.462 81.9857 28.6901 83.008 39.5657C95.2937 47.7255 103.281 60.3941 103.281 72.4919C103.281 92.5705 81.28 89.8796 54.1405 89.8796C27.0011 89.8797 5.00006 92.5705 5 72.4919C5.0001 60.3943 12.987 47.7255 25.2723 39.5657C26.2702 28.9488 36.8225 17.998 50.3027 16.2084C49.8986 15.198 49.7821 14.2593 49.7682 13.5598C49.7608 13.1832 49.782 12.8696 49.8077 12.6428C49.8205 12.5294 49.8349 12.4369 49.8465 12.368C49.8523 12.3335 49.8572 12.3043 49.8616 12.2818C49.8637 12.2707 49.8658 12.261 49.8675 12.2529C49.8683 12.2491 49.8688 12.2455 49.8695 12.2424C49.8698 12.2409 49.8705 12.2391 49.8708 12.2378V12.2345C49.8708 12.2345 49.8717 12.2339 50.8956 12.4561L49.8721 12.2339Z" fill="white"/>
<path d="M53.3202 34.8223C53.4551 34.7037 54.1812 34.7037 54.3162 34.8223C54.7439 35.1983 55.496 36.1447 56.1798 36.7458C56.5689 37.0876 57.5754 37.2599 58.5918 37.3453C59.1101 37.3894 59.2183 38.5459 58.718 38.7771C57.2412 39.4594 55.3836 40.1392 53.8777 40.1181C52.4429 40.098 50.6836 39.4435 49.2675 38.7843C48.7674 38.5515 48.8774 37.3828 49.3957 37.3322C50.3149 37.2427 51.2059 37.0713 51.5762 36.7458C52.26 36.1447 52.8925 35.1983 53.3202 34.8223Z" fill="#2A7EFF"/>
<path d="M61.6185 33.7913C61.5766 32.1702 60.9405 30.8561 60.1977 30.8561C59.455 30.8561 58.8868 32.1702 58.9288 33.7913C58.9707 35.4123 59.6068 36.7264 60.3496 36.7264C61.0923 36.7264 61.6605 35.4123 61.6185 33.7913Z" fill="#373737"/>
<path d="M48.8285 33.7913C48.7865 32.1702 48.1504 30.8561 47.4077 30.8561C46.6649 30.8561 46.0968 32.1702 46.1387 33.7913C46.1806 35.4123 46.8167 36.7264 47.5595 36.7264C48.3023 36.7264 48.8704 35.4123 48.8285 33.7913Z" fill="#373737"/>
<g filter="url(#filter1_ii_48_646)">
<path d="M82.0115 40.0434C84.3922 36.972 89.4303 40.062 94.8245 44.2428C100.219 48.4235 103.926 52.112 101.546 55.1835C99.1649 58.255 92.862 57.356 87.4678 53.1753C82.0736 48.9944 79.6309 43.115 82.0115 40.0434Z" fill="#FF5E14"/>
<path d="M14.0121 44.2138C19.406 40.033 24.4436 36.9429 26.8245 40.0138C29.2052 43.0853 26.7627 48.9646 21.3689 53.1457C15.9749 57.3266 9.67192 58.2266 7.29109 55.1553C4.91033 52.0838 8.61809 48.3949 14.0121 44.2138Z" fill="#FF5E14"/>
</g>
<path d="M18.3637 30.5672C18.1834 29.5199 18.6928 28.5142 19.5803 28.1648L30.4517 23.8856L30.7118 30.8857L20.7142 32.4536C19.6247 32.6245 18.5723 31.7799 18.3637 30.5672Z" fill="#3485FF"/>
<path d="M67.735 22.7915C69.0351 22.4772 69.8209 21.0355 69.3005 19.6381C67.6007 15.0745 64.4529 11.1766 60.3225 8.59393C55.4317 5.53578 49.5639 4.57225 44.0098 5.91531C38.4558 7.25836 33.6706 10.798 30.7068 15.7555C28.2039 19.9422 27.1732 24.8506 27.7339 29.6896C27.9056 31.1713 29.2602 32.0954 30.5603 31.781L67.735 22.7915Z" fill="url(#paint0_linear_48_646)"/>
<path d="M63.3842 20.8987C63.7092 20.8201 63.906 20.4592 63.7713 20.1118C63.3832 19.1104 62.684 18.2559 61.7722 17.6858C60.6703 16.9967 59.3482 16.7796 58.0968 17.0822C56.8454 17.3848 55.7673 18.1824 55.0995 19.2993C54.547 20.2235 54.3129 21.3038 54.4225 22.3725C54.4605 22.7433 54.7996 22.9746 55.1246 22.896C55.4497 22.8174 63.3842 20.8987 63.3842 20.8987Z" fill="white"/>
</g>
<defs>
<filter id="filter0_d_48_646" x="0" y="0.323242" width="108.281" height="94.6768" filterUnits="userSpaceOnUse" color-interpolation-filters="sRGB">
<feFlood flood-opacity="0" result="BackgroundImageFix"/>
<feColorMatrix in="SourceAlpha" type="matrix" values="0 0 0 0 0 0 0 0 0 0 0 0 0 0 0 0 0 0 127 0" result="hardAlpha"/>
<feOffset/>
<feGaussianBlur stdDeviation="2.5"/>
<feComposite in2="hardAlpha" operator="out"/>
<feColorMatrix type="matrix" values="0 0 0 0 0 0 0 0 0 0 0 0 0 0 0 0 0 0 0.25 0"/>
<feBlend mode="normal" in2="BackgroundImageFix" result="effect1_dropShadow_48_646"/>
<feBlend mode="normal" in="SourceGraphic" in2="effect1_dropShadow_48_646" result="shape"/>
</filter>
<filter id="filter1_ii_48_646" x="6.55591" y="35.772" width="95.7249" height="26.2358" filterUnits="userSpaceOnUse" color-interpolation-filters="sRGB">
<feFlood flood-opacity="0" result="BackgroundImageFix"/>
<feBlend mode="normal" in="SourceGraphic" in2="BackgroundImageFix" result="shape"/>
<feColorMatrix in="SourceAlpha" type="matrix" values="0 0 0 0 0 0 0 0 0 0 0 0 0 0 0 0 0 0 127 0" result="hardAlpha"/>
<feOffset dy="-3"/>
<feGaussianBlur stdDeviation="2"/>
<feComposite in2="hardAlpha" operator="arithmetic" k2="-1" k3="1"/>
<feColorMatrix type="matrix" values="0 0 0 0 1 0 0 0 0 0.985109 0 0 0 0 0.900729 0 0 0 0.4 0"/>
<feBlend mode="normal" in2="shape" result="effect1_innerShadow_48_646"/>
<feColorMatrix in="SourceAlpha" type="matrix" values="0 0 0 0 0 0 0 0 0 0 0 0 0 0 0 0 0 0 127 0" result="hardAlpha"/>
<feOffset dy="5"/>
<feGaussianBlur stdDeviation="2.5"/>
<feComposite in2="hardAlpha" operator="arithmetic" k2="-1" k3="1"/>
<feColorMatrix type="matrix" values="0 0 0 0 1 0 0 0 0 0.985109 0 0 0 0 0.900729 0 0 0 0.7 0"/>
<feBlend mode="normal" in2="effect1_innerShadow_48_646" result="effect2_innerShadow_48_646"/>
</filter>
<linearGradient id="paint0_linear_48_646" x1="26.8554" y1="15.6498" x2="68.5202" y2="30.9511" gradientUnits="userSpaceOnUse">
<stop stop-color="#68A4FF"/>
<stop offset="0.961538" stop-color="#3485FF"/>
</linearGradient>
</defs>
</svg>
