<svg width="305" height="305" viewBox="0 0 305 305" fill="none" xmlns="http://www.w3.org/2000/svg">
<g filter="url(#filter0_f_631_3402)">
<circle cx="152.5" cy="152.5" r="62.5" fill="#FFF2A5" fill-opacity="0.7"/>
</g>
<path d="M70.4852 14.632C73.6052 14.632 76.7492 14.464 78.9332 13.984L79.2452 16.144C77.2292 16.6 73.7252 16.888 69.7892 16.888H67.7012V7.12H77.2292V9.352H70.4852V14.632ZM86.7332 13H83.7092V18.016H80.8772V5.512H83.7092V10.72H86.7332V13ZM83.9732 22.576C83.9732 25.168 81.2852 26.848 76.6292 26.848C72.0212 26.848 69.3332 25.168 69.3332 22.576C69.3332 19.912 72.0212 18.256 76.6292 18.256C81.2852 18.256 83.9732 19.912 83.9732 22.576ZM81.0692 22.576C81.0692 21.304 79.4612 20.512 76.6292 20.512C73.8452 20.512 72.2132 21.304 72.2132 22.576C72.2132 23.848 73.8452 24.616 76.6292 24.616C79.4612 24.616 81.0692 23.848 81.0692 22.576ZM105.459 21.016H102.651V5.512H105.459V21.016ZM105.915 26.32H91.0588V19.624H93.8908V24.112H105.915V26.32ZM100.779 15.616L99.1948 17.848C97.5628 17.224 95.3308 15.232 94.3948 13.264C93.7468 15.448 91.4188 17.656 89.4508 18.352L87.7468 16.12C90.8668 14.992 92.9068 12.208 92.9068 8.992V6.736H95.8348V8.848C95.8348 12.136 98.3068 14.8 100.779 15.616ZM112.256 11.992C112.256 13.576 113.408 14.8 115.328 14.8C117.272 14.8 118.424 13.576 118.424 11.992C118.424 10.48 117.272 9.256 115.328 9.256C113.408 9.256 112.256 10.48 112.256 11.992ZM126.584 5.512V26.896H123.8V5.512H126.584ZM109.376 12.016C109.376 9.016 111.728 6.88 115.328 6.88C118.952 6.88 121.256 9.016 121.256 12.016C121.256 14.992 118.952 17.152 115.328 17.152C111.728 17.152 109.376 14.992 109.376 12.016ZM122.912 21.424C120.872 21.688 117.968 21.928 115.688 22.048C113.312 22.144 110.768 22.24 108.968 22.216L108.56 19.816C111.032 19.816 113.096 19.792 115.52 19.696C118.184 19.6 120.776 19.408 122.672 19.168L122.912 21.424ZM238.469 16.048H235.373V26.896H232.589V5.512H235.373V13.72H238.469V16.048ZM229.757 7.696C229.565 14.152 226.733 19.48 220.181 23.032L218.477 20.92C223.133 18.784 226.325 14.296 226.709 10.024H219.773V7.696H229.757ZM33.1383 55.92H30.3303V48.456H22.1223V46.2H41.4423V48.456H33.1383V55.92ZM39.1143 43.704H24.6183V35.664H27.4263V41.448H39.1143V43.704ZM59.736 35.472C59.736 38.832 59.592 41.376 59.064 43.464H62.208V45.696H53.928V50.952H51.12V45.696H42.888V43.464H56.352C56.76 41.832 56.952 39.888 56.928 37.728H45.384V35.472H59.736ZM60 55.32H45.36V48.528H48.144V53.112H60V55.32ZM83.4536 45.048H80.3576V55.896H77.5736V34.512H80.3576V42.72H83.4536V45.048ZM74.7416 36.696C74.5496 43.152 71.7176 48.48 65.1656 52.032L63.4616 49.92C68.1176 47.784 71.3096 43.296 71.6936 39.024H64.7576V36.696H74.7416ZM98.3392 54.912H95.6992V44.952H93.8752C93.6352 48.408 92.2432 51.456 89.2432 51.456C85.9552 51.456 84.6352 47.688 84.6352 43.752C84.6352 39.864 85.9552 36.12 89.2432 36.12C92.2672 36.12 93.6352 39.168 93.8752 42.648H95.6992V34.92H98.3392V54.912ZM102.611 55.896H99.9712V34.512H102.611V55.896ZM91.3072 43.776C91.3072 40.92 90.7072 38.568 89.2672 38.568C87.8752 38.568 87.2752 40.92 87.2752 43.776C87.2752 46.632 87.8752 48.96 89.2672 48.96C90.7072 48.96 91.3072 46.632 91.3072 43.776ZM123.377 55.896H120.713V34.512H123.377V55.896ZM119.081 54.912H116.465V45.168H113.681V42.912H116.465V34.92H119.081V54.912ZM114.233 37.032C114.233 43.416 111.761 48.288 106.529 51.72L104.705 49.776C108.881 47.28 111.185 43.536 111.497 39.288H106.001V37.032H114.233ZM132.999 38.52V36.216H144.279V38.52H140.175C140.223 41.784 142.479 44.16 144.927 44.952L143.391 47.16C141.759 46.56 139.671 44.784 138.759 42.816C138.111 44.904 135.855 47.04 133.791 47.76L132.135 45.552C135.231 44.424 137.295 41.832 137.295 38.592V38.52H132.999ZM149.943 50.016H147.135V42.456H143.919V40.2H147.135V34.512H149.943V50.016ZM150.399 55.32H135.639V48.576H138.471V53.112H150.399V55.32ZM170.133 51.888C170.133 54.336 167.421 55.848 162.693 55.848C157.965 55.848 155.229 54.336 155.229 51.888C155.229 49.44 157.965 47.904 162.669 47.904C167.421 47.904 170.133 49.44 170.133 51.888ZM162.693 38.688C161.613 41.136 158.133 42.84 155.037 43.248L153.861 41.064C157.437 40.704 161.253 38.76 161.253 35.544V34.92H164.157V35.544C164.157 38.76 168.501 40.92 171.573 41.064L170.373 43.272C167.517 42.864 163.773 41.136 162.693 38.688ZM172.341 46.92H153.021V44.688H161.277V41.928H164.085V44.688H172.341V46.92ZM167.253 51.888C167.253 50.808 165.453 50.136 162.669 50.136C159.909 50.136 158.133 50.808 158.133 51.888C158.133 52.992 159.909 53.64 162.669 53.64C165.453 53.64 167.253 52.992 167.253 51.888ZM187.562 48.912L187.85 51.048C185.834 51.312 183.722 51.504 181.178 51.624C178.874 51.696 175.898 51.792 174.122 51.792L173.738 49.512C175.634 49.512 177.506 49.488 179.33 49.44V45.528H175.466V36.432H186.146V38.664H178.274V43.32H186.218V45.528H182.138V49.344C184.154 49.248 186.026 49.104 187.562 48.912ZM191.57 34.512V55.896H188.762V34.512H191.57ZM212.216 46.248H209.408V41.784H206.6V39.528H209.408V34.512H212.216V46.248ZM205.688 40.824C205.688 43.824 203.288 45.744 200.168 45.744C197.12 45.744 194.624 43.824 194.624 40.824C194.624 37.848 197.072 35.664 200.168 35.664C203.24 35.664 205.688 37.824 205.688 40.824ZM203 40.8C203 39.216 201.92 37.968 200.168 37.968C198.464 37.968 197.36 39.264 197.36 40.8C197.36 42.432 198.488 43.608 200.168 43.608C201.824 43.608 203 42.384 203 40.8ZM213.992 53.976L212.312 55.992C210.968 55.416 209.192 53.568 208.712 52.2C208.352 53.592 206.816 55.512 205.04 56.352C204.464 55.68 203.936 55.056 203.336 54.408C205.856 53.232 207.296 51 207.296 48.312V47.304H210.056V48.312C210.056 50.952 211.808 53.208 213.992 53.976ZM203.096 53.712C202.376 53.4 201.488 52.44 201.152 51.744C200.6 53.352 198.776 55.32 197.072 56.04L195.44 54.048C197.768 52.944 199.568 50.856 199.568 48.144V47.376H202.28V48.072C202.28 49.968 203.528 51.336 204.944 51.864C204.32 52.44 203.744 53.088 203.096 53.712ZM234.638 46.296H215.318V44.064H234.638V46.296ZM224.99 38.424C223.91 40.92 220.43 42.504 217.334 42.912L216.158 40.728C219.734 40.368 223.55 38.52 223.55 35.304V34.728H226.454V35.304C226.454 38.52 230.798 40.584 233.87 40.728L232.67 42.936C229.814 42.528 226.07 40.92 224.99 38.424ZM232.166 55.632H217.79V47.448H220.574V49.488H229.382V47.4H232.166V55.632ZM229.382 53.4V51.6H220.574V53.4H229.382ZM253.723 34.512V55.896H250.963V34.512H253.723ZM248.779 47.328L249.139 49.584C246.547 50.256 241.747 50.544 239.227 50.544H237.259V36.648H240.043V48.144C242.947 48.144 246.451 47.88 248.779 47.328ZM273.553 34.512V42.576H276.625V44.904H273.553V55.896H270.745V34.512H273.553ZM260.449 48.624C263.497 48.624 266.473 48.528 268.897 47.976C269.017 48.72 269.089 49.488 269.209 50.208C267.145 50.736 263.905 50.928 259.729 50.928H257.665V36.48H267.433V38.736H260.449V48.624ZM279.055 48.24L278.671 35.928H281.791L281.455 48.24H279.055ZM278.815 53.352V50.544H281.695V53.352H278.815Z" fill="white"/>
<path d="M154.927 24.208H135.607V22H143.815V17.872H137.383V15.64H140.527L139.927 10.72L142.735 10.36L143.167 15.64H147.439L148.207 10.408L150.919 10.864L150.031 15.64H153.055V17.872H146.623V22H154.927V24.208ZM153.103 9.352H137.335V7.12H153.103V9.352ZM174.852 14.08L173.772 16.36C170.628 16.168 167.268 14.8 166.02 13.048C164.82 14.872 161.7 16.168 158.268 16.312L157.116 14.032C160.716 14.032 163.74 12.76 164.46 11.248H158.268V9.064H173.796V11.248H167.676C168.444 12.784 171.612 14.08 174.852 14.08ZM167.628 22.528H164.844V19.576H156.372V17.32H175.692V19.576H167.628V22.528ZM173.532 26.32H158.604V20.56H161.436V24.112H173.532V26.32ZM162.468 8.128V5.968H169.596V8.128H162.468ZM194.13 6.664C194.13 9.736 193.89 13.744 193.41 16.456H196.458V18.712H188.154V26.896H185.346V18.712H177.138V16.456H190.722C190.89 15.64 191.034 14.44 191.154 13.168L178.986 13.792L178.65 11.56L191.274 11.056C191.298 10.24 191.322 9.496 191.322 8.872H179.274V6.664H194.13ZM209.52 7.672C209.52 14.872 206.088 20.2 199.704 23.512L198.096 21.4C201.096 20.056 203.664 17.8 205.176 14.944L198.84 15.592C198.696 14.776 198.576 13.96 198.456 13.168L206.112 12.64C206.376 11.8 206.496 10.912 206.568 10H199.488V7.672H209.52ZM215.616 26.896H212.784V5.512H215.616V26.896Z" fill="#FFA263"/>
<path d="M146.659 84.5762C146.894 83.4969 147.958 82.8117 149.037 83.0459C150.116 83.2802 150.8 84.3446 150.566 85.4238L150.57 85.415L150.566 85.4375C150.56 85.4739 150.55 85.541 150.539 85.6338C150.518 85.8201 150.497 86.1074 150.504 86.4668C150.518 87.1907 150.647 88.1707 151.1 89.2041C151.229 89.4994 151.429 89.8078 151.685 90.1221C152.121 90.1088 152.56 90.1006 153 90.1006C153.062 90.1006 153.124 90.1023 153.186 90.1025C153.314 89.3742 153.519 88.6589 153.832 88.0039C154.598 86.4034 155.622 85.2585 156.452 84.5137C156.868 84.14 157.242 83.8602 157.522 83.6689C157.662 83.5734 157.78 83.4991 157.869 83.4453C157.913 83.4185 157.951 83.3958 157.98 83.3789C157.995 83.3706 158.008 83.3633 158.019 83.3574C158.024 83.3545 158.029 83.3519 158.033 83.3496C158.035 83.3486 158.039 83.3467 158.039 83.3467L158.042 83.3447L158.043 83.3437C158.043 83.3437 158.045 83.3436 158.788 84.7109L158.045 83.3437C159.015 82.8162 160.229 83.1752 160.757 84.1455C161.284 85.1158 160.925 86.3288 159.955 86.8564L159.956 86.8574L159.964 86.8535L159.944 86.8652C159.913 86.8844 159.855 86.9202 159.778 86.9727C159.623 87.0784 159.392 87.2501 159.124 87.4902C158.585 87.9739 157.927 88.7118 157.44 89.7295C157.358 89.9016 157.288 90.0955 157.23 90.3076C177.955 92.3427 194.365 109.023 195.884 125.179C214.135 137.3 226 156.12 226 174.092C226 203.919 193.317 213.5 153 213.5C112.683 213.5 80.0001 203.919 80 174.092C80.0001 156.12 91.8649 137.3 110.115 125.179C111.598 109.407 127.273 93.1391 147.299 90.4805C146.699 88.9795 146.525 87.5851 146.505 86.5459C146.494 85.9864 146.525 85.5206 146.563 85.1836C146.583 85.0151 146.604 84.8777 146.621 84.7754C146.63 84.7241 146.637 84.6807 146.644 84.6475C146.647 84.6309 146.65 84.6164 146.652 84.6045C146.654 84.5988 146.654 84.5935 146.655 84.5889C146.656 84.5866 146.657 84.584 146.657 84.582V84.5771C146.657 84.5771 146.659 84.5762 148.18 84.9062L146.659 84.5762Z" fill="white"/>
<path d="M151.782 118.132C151.982 117.956 153.061 117.956 153.261 118.132C153.896 118.691 155.014 120.097 156.03 120.99C156.608 121.497 158.103 121.753 159.613 121.88C160.383 121.946 160.543 123.664 159.8 124.007C157.606 125.021 154.847 126.031 152.61 125.999C150.478 125.969 147.865 124.997 145.761 124.018C145.018 123.672 145.181 121.936 145.951 121.861C147.317 121.728 148.641 121.473 149.191 120.99C150.207 120.097 151.146 118.691 151.782 118.132Z" fill="#2A7EFF"/>
<path d="M164.109 116.6C164.047 114.192 163.102 112.24 161.998 112.24C160.895 112.24 160.051 114.192 160.113 116.6C160.175 119.009 161.12 120.961 162.224 120.961C163.327 120.961 164.171 119.009 164.109 116.6Z" fill="#373737"/>
<path d="M145.109 116.6C145.047 114.192 144.102 112.24 142.998 112.24C141.895 112.24 141.051 114.192 141.113 116.6C141.175 119.009 142.12 120.961 143.224 120.961C144.327 120.961 145.171 119.009 145.109 116.6Z" fill="#373737"/>
<g filter="url(#filter1_ii_631_3402)">
<path d="M93.389 132.084C101.402 125.873 108.885 121.283 112.422 125.845C115.959 130.408 112.33 139.142 104.318 145.353C96.3048 151.564 86.9415 152.901 83.4046 148.338C79.8679 143.775 85.3759 138.295 93.389 132.084Z" fill="#FF5E14"/>
</g>
<g filter="url(#filter2_ii_631_3402)">
<path d="M191.354 125.845C194.891 121.283 202.375 125.873 210.388 132.084C218.402 138.294 223.909 143.774 220.373 148.337C216.836 152.899 207.473 151.564 199.46 145.353C191.446 139.142 187.818 130.408 191.354 125.845Z" fill="#FF5E14"/>
</g>
<g clip-path="url(#clip0_631_3402)">
<path d="M175.708 162.593C175.143 163.71 174.158 164.558 172.969 164.949C171.78 165.34 170.484 165.243 169.366 164.678L139.872 149.782C138.754 149.218 137.907 148.233 137.516 147.044C137.125 145.854 137.222 144.558 137.786 143.441L147.362 124.48C147.927 123.363 148.912 122.515 150.101 122.124C151.29 121.733 152.586 121.83 153.704 122.395L183.198 137.291C184.316 137.855 185.163 138.84 185.554 140.03C185.945 141.219 185.848 142.515 185.284 143.632L175.708 162.593Z" fill="#FFF0CD"/>
<path d="M155.354 139.934L137.42 145.832C137.376 145.848 137.347 145.88 137.308 145.897C137.363 146.678 137.611 147.429 138.03 148.091C138.073 148.082 138.114 148.09 138.156 148.076L156.093 142.177C156.241 142.128 156.377 142.051 156.494 141.95C156.612 141.849 156.708 141.725 156.778 141.587C156.848 141.449 156.89 141.298 156.901 141.143C156.913 140.988 156.894 140.833 156.845 140.686C156.797 140.539 156.719 140.402 156.618 140.285C156.517 140.167 156.394 140.071 156.255 140.001C156.117 139.931 155.966 139.889 155.811 139.878C155.657 139.866 155.501 139.886 155.354 139.934ZM174.014 164.435C174.007 164.394 174.013 164.351 173.999 164.308L168.102 146.372C168.054 146.225 167.977 146.089 167.876 145.971C167.775 145.854 167.651 145.757 167.513 145.687C167.375 145.617 167.224 145.575 167.069 145.564C166.915 145.552 166.759 145.571 166.612 145.619C166.465 145.668 166.329 145.745 166.211 145.846C166.094 145.947 165.997 146.07 165.927 146.208C165.857 146.347 165.815 146.497 165.804 146.652C165.792 146.806 165.811 146.962 165.859 147.109L171.757 165.045C171.77 165.087 171.802 165.117 171.82 165.156C172.6 165.101 173.354 164.853 174.014 164.435Z" fill="#FFA263"/>
<path d="M183.198 137.291L153.704 122.395C152.586 121.83 151.29 121.733 150.101 122.124C148.912 122.515 147.927 123.363 147.362 124.48L146.814 125.565L154.405 148.563C154.885 150.008 155.917 151.204 157.276 151.89C158.634 152.577 160.21 152.697 161.657 152.226L184.747 144.695L185.284 143.632C185.848 142.515 185.945 141.219 185.554 140.03C185.163 138.84 184.316 137.855 183.198 137.291Z" fill="#FFA263"/>
<path d="M183.199 137.291L153.705 122.395C152.911 121.996 152.021 121.83 151.136 121.915C150.252 122.001 149.41 122.335 148.708 122.879L156.406 146.289C156.599 146.878 156.907 147.423 157.311 147.893C157.716 148.363 158.209 148.749 158.762 149.028C159.315 149.308 159.918 149.476 160.536 149.522C161.154 149.568 161.776 149.493 162.365 149.299L185.776 141.6C185.797 140.712 185.566 139.836 185.11 139.073C184.654 138.311 183.991 137.693 183.199 137.291Z" fill="#FFEBB5"/>
<path d="M161.715 134.575C162.537 134.991 163.245 135.599 163.782 136.348C164.077 136.76 164.314 137.209 164.491 137.682C164.977 137.544 165.479 137.468 165.986 137.461C166.908 137.449 167.819 137.658 168.641 138.073C169.319 138.416 169.923 138.89 170.416 139.47C170.909 140.049 171.283 140.721 171.516 141.448C171.75 142.174 171.838 142.941 171.777 143.703C171.716 144.464 171.506 145.208 171.161 145.89L170.996 146.192C170.825 146.486 170.632 146.756 170.426 147.003C169.024 148.911 166.707 150.311 164.37 151.185C162.007 152.068 159.456 152.478 157.518 152.255L157.153 152.212L156.901 151.943C155.571 150.515 154.387 148.22 153.695 145.793C153.048 143.523 152.79 140.985 153.361 138.803L153.486 138.372C153.588 137.978 153.728 137.579 153.927 137.186C154.623 135.807 155.832 134.755 157.292 134.264C158.752 133.772 160.343 133.883 161.714 134.575L161.715 134.575Z" fill="#FF6A25" stroke="white" stroke-width="2"/>
</g>
<defs>
<filter id="filter0_f_631_3402" x="0" y="0" width="305" height="305" filterUnits="userSpaceOnUse" color-interpolation-filters="sRGB">
<feFlood flood-opacity="0" result="BackgroundImageFix"/>
<feBlend mode="normal" in="SourceGraphic" in2="BackgroundImageFix" result="shape"/>
<feGaussianBlur stdDeviation="45" result="effect1_foregroundBlur_631_3402"/>
</filter>
<filter id="filter1_ii_631_3402" x="82.3125" y="121" width="31.4648" height="35.0469" filterUnits="userSpaceOnUse" color-interpolation-filters="sRGB">
<feFlood flood-opacity="0" result="BackgroundImageFix"/>
<feBlend mode="normal" in="SourceGraphic" in2="BackgroundImageFix" result="shape"/>
<feColorMatrix in="SourceAlpha" type="matrix" values="0 0 0 0 0 0 0 0 0 0 0 0 0 0 0 0 0 0 127 0" result="hardAlpha"/>
<feOffset dy="-3"/>
<feGaussianBlur stdDeviation="2"/>
<feComposite in2="hardAlpha" operator="arithmetic" k2="-1" k3="1"/>
<feColorMatrix type="matrix" values="0 0 0 0 1 0 0 0 0 0.985109 0 0 0 0 0.900729 0 0 0 0.4 0"/>
<feBlend mode="normal" in2="shape" result="effect1_innerShadow_631_3402"/>
<feColorMatrix in="SourceAlpha" type="matrix" values="0 0 0 0 0 0 0 0 0 0 0 0 0 0 0 0 0 0 127 0" result="hardAlpha"/>
<feOffset dy="5"/>
<feGaussianBlur stdDeviation="2.5"/>
<feComposite in2="hardAlpha" operator="arithmetic" k2="-1" k3="1"/>
<feColorMatrix type="matrix" values="0 0 0 0 1 0 0 0 0 0.985109 0 0 0 0 0.900729 0 0 0 0.7 0"/>
<feBlend mode="normal" in2="effect1_innerShadow_631_3402" result="effect2_innerShadow_631_3402"/>
</filter>
<filter id="filter2_ii_631_3402" x="190" y="121" width="31.4648" height="35.0461" filterUnits="userSpaceOnUse" color-interpolation-filters="sRGB">
<feFlood flood-opacity="0" result="BackgroundImageFix"/>
<feBlend mode="normal" in="SourceGraphic" in2="BackgroundImageFix" result="shape"/>
<feColorMatrix in="SourceAlpha" type="matrix" values="0 0 0 0 0 0 0 0 0 0 0 0 0 0 0 0 0 0 127 0" result="hardAlpha"/>
<feOffset dy="-3"/>
<feGaussianBlur stdDeviation="2"/>
<feComposite in2="hardAlpha" operator="arithmetic" k2="-1" k3="1"/>
<feColorMatrix type="matrix" values="0 0 0 0 1 0 0 0 0 0.985109 0 0 0 0 0.900729 0 0 0 0.4 0"/>
<feBlend mode="normal" in2="shape" result="effect1_innerShadow_631_3402"/>
<feColorMatrix in="SourceAlpha" type="matrix" values="0 0 0 0 0 0 0 0 0 0 0 0 0 0 0 0 0 0 127 0" result="hardAlpha"/>
<feOffset dy="5"/>
<feGaussianBlur stdDeviation="2.5"/>
<feComposite in2="hardAlpha" operator="arithmetic" k2="-1" k3="1"/>
<feColorMatrix type="matrix" values="0 0 0 0 1 0 0 0 0 0.985109 0 0 0 0 0.900729 0 0 0 0.7 0"/>
<feBlend mode="normal" in2="effect1_innerShadow_631_3402" result="effect2_innerShadow_631_3402"/>
</filter>
<clipPath id="clip0_631_3402">
<rect width="42.4832" height="42.4832" fill="white" transform="translate(152.15 115) rotate(26.7958)"/>
</clipPath>
</defs>
</svg>
