<svg width="353" height="95" viewBox="0 0 353 95" fill="none" xmlns="http://www.w3.org/2000/svg">
<rect width="353" height="85" rx="20" fill="url(#paint0_linear_631_3401)"/>
<path d="M44.43 22.632V27.364H46.026V28.722H44.43V35.106H42.834V22.632H44.43ZM36.24 30.584C36.744 30.584 37.43 30.542 38.018 30.374L38.186 31.592C37.234 31.816 36.296 31.872 34.644 31.872V23.892H37.864V25.18H36.24V30.584ZM40.118 30.584C40.818 30.598 41.294 30.57 42.12 30.388L42.274 31.606C41.21 31.844 40.23 31.886 38.494 31.886V23.892H41.868V25.18H40.118V30.584ZM57.5233 29.744H46.2533V28.442H57.5233V29.744ZM56.5993 27.448H52.1753V23.108H56.5013V24.41H53.8413V26.146H56.5993V27.448ZM48.9133 26.188C49.5293 26.188 50.7053 26.104 51.4893 25.894L51.7133 27.182C50.5793 27.448 48.9973 27.546 47.2613 27.532V23.108H51.3493V24.41H48.9133V26.188ZM56.7253 33.93L55.9973 35.218C54.2893 34.966 52.4973 33.874 51.8813 32.768C51.3353 33.874 49.5853 34.98 47.7373 35.218L47.0093 33.888C49.2213 33.678 51.0413 32.544 51.0413 30.878V30.5H52.7213V30.878C52.7213 32.502 54.6953 33.65 56.7253 33.93ZM65.2266 26.146H57.9886V24.872H65.2266V26.146ZM64.6246 28.792C64.6246 30.122 63.3646 31.06 61.6846 31.06C59.9766 31.06 58.7166 30.122 58.7166 28.792C58.7166 27.476 59.9626 26.496 61.6846 26.496C63.3646 26.496 64.6246 27.476 64.6246 28.792ZM59.8366 24.284V23.038H63.5466V24.284H59.8366ZM67.8446 22.632V26.664H69.5806V28.022H67.8446V31.9H66.2066V22.632H67.8446ZM68.1386 34.812H59.6126V31.522H61.2646V33.51H68.1386V34.812ZM60.3406 28.792C60.3406 29.352 60.9566 29.744 61.6846 29.744C62.3986 29.744 63.0286 29.352 63.0286 28.792C63.0286 28.204 62.3986 27.798 61.6846 27.798C60.9566 27.798 60.3406 28.204 60.3406 28.792ZM80.4576 26.146H73.2196V24.872H80.4576V26.146ZM79.8556 28.792C79.8556 30.122 78.5956 31.06 76.9156 31.06C75.2076 31.06 73.9476 30.122 73.9476 28.792C73.9476 27.476 75.1936 26.496 76.9156 26.496C78.5956 26.496 79.8556 27.476 79.8556 28.792ZM75.0676 24.284V23.038H78.7776V24.284H75.0676ZM83.0756 22.632V26.664H84.8116V28.022H83.0756V31.9H81.4376V22.632H83.0756ZM83.3696 34.812H74.8436V31.522H76.4956V33.51H83.3696V34.812ZM75.5716 28.792C75.5716 29.352 76.1876 29.744 76.9156 29.744C77.6296 29.744 78.2596 29.352 78.2596 28.792C78.2596 28.204 77.6296 27.798 76.9156 27.798C76.1876 27.798 75.5716 28.204 75.5716 28.792ZM94.9089 22.632V27.42H96.6029V28.778H94.9089V35.106H93.2429V22.632H94.9089ZM89.7429 30.584V25.096H87.0829V30.584H89.7429ZM91.3809 23.78V31.886H85.4589V23.78H91.3809ZM107.204 35.106H105.552V22.632H107.204V35.106ZM99.3501 30.724C101.198 30.724 103.046 30.654 104.432 30.346C104.516 30.794 104.572 31.228 104.642 31.69C103.438 31.984 101.38 32.11 98.9721 32.11C98.5521 32.11 98.1461 32.096 97.7261 32.096V23.78H103.396V25.082H99.3501V30.724ZM120.087 29.534H108.817V28.33H120.087V29.534ZM118.939 34.966H110.245V32.068H117.021V31.41H110.189V30.234H118.645V33.146H111.883V33.79H118.939V34.966ZM118.841 27.672H110.301V24.844H116.923V24.186H110.273V23.024H118.575V25.866H111.939V26.51H118.841V27.672ZM135.318 33.552H124.048V32.25H128.836V29.828H125.406V23.486H127.03V25.418H132.336V23.458H133.974V29.828H130.474V32.25H135.318V33.552ZM132.336 28.526V26.678H127.03V28.526H132.336ZM146.48 35.106H144.926V28.862H143.722V34.532H142.196V22.856H143.722V27.546H144.926V22.632H146.48V35.106ZM141.692 31.438C141.034 31.634 139.032 31.802 137.548 31.802H136.428V24.088H138.038V30.444C139.256 30.444 140.712 30.346 141.482 30.122C141.538 30.57 141.622 30.99 141.692 31.438ZM157.907 26.678C157.907 28.582 156.101 29.954 153.357 29.954C150.627 29.954 148.821 28.582 148.821 26.678C148.821 24.76 150.627 23.36 153.357 23.36C156.101 23.36 157.907 24.76 157.907 26.678ZM158.985 33.552H147.715V32.236H150.235V30.164L151.873 30.234V32.236H154.799V30.234L156.437 30.164V32.236H158.985V33.552ZM156.227 26.678C156.227 25.544 155.093 24.732 153.357 24.732C151.621 24.732 150.501 25.544 150.501 26.678C150.501 27.798 151.621 28.61 153.357 28.61C155.079 28.61 156.227 27.798 156.227 26.678Z" fill="#FF5E14"/>
<path d="M49.03 57.406H34.54V55.75H40.696V52.654H35.872V50.98H38.23L37.78 47.29L39.886 47.02L40.21 50.98H43.414L43.99 47.056L46.024 47.398L45.358 50.98H47.626V52.654H42.802V55.75H49.03V57.406ZM47.662 46.264H35.836V44.59H47.662V46.264ZM63.6142 49.81L62.8042 51.52C60.4462 51.376 57.9262 50.35 56.9902 49.036C56.0902 50.404 53.7502 51.376 51.1762 51.484L50.3122 49.774C53.0122 49.774 55.2802 48.82 55.8202 47.686H51.1762V46.048H62.8222V47.686H58.2322C58.8082 48.838 61.1842 49.81 63.6142 49.81ZM58.1962 56.146H56.1082V53.932H49.7542V52.24H64.2442V53.932H58.1962V56.146ZM62.6242 58.99H51.4282V54.67H53.5522V57.334H62.6242V58.99ZM54.3262 45.346V43.726H59.6722V45.346H54.3262ZM77.7124 44.248C77.7124 46.552 77.5324 49.558 77.1724 51.592H79.4584V53.284H73.2304V59.422H71.1244V53.284H64.9684V51.592H75.1564C75.2824 50.98 75.3904 50.08 75.4804 49.126L66.3544 49.594L66.1024 47.92L75.5704 47.542C75.5884 46.93 75.6064 46.372 75.6064 45.904H66.5704V44.248H77.7124ZM88.8947 45.004C88.8947 50.404 86.3207 54.4 81.5327 56.884L80.3267 55.3C82.5767 54.292 84.5027 52.6 85.6367 50.458L80.8847 50.944C80.7767 50.332 80.6867 49.72 80.5967 49.126L86.3387 48.73C86.5367 48.1 86.6267 47.434 86.6807 46.75H81.3707V45.004H88.8947ZM93.4667 59.422H91.3427V43.384H93.4667V59.422ZM100.323 46.39V44.662H108.783V46.39H105.705C105.741 48.838 107.433 50.62 109.269 51.214L108.117 52.87C106.893 52.42 105.327 51.088 104.643 49.612C104.157 51.178 102.465 52.78 100.917 53.32L99.6754 51.664C101.997 50.818 103.545 48.874 103.545 46.444V46.39H100.323ZM113.031 55.012H110.925V49.342H108.513V47.65H110.925V43.384H113.031V55.012ZM113.373 58.99H102.303V53.932H104.427V57.334H113.373V58.99ZM124.214 48.874H114.908V47.2H124.214V48.874ZM117.158 46.084V44.428H122.108V46.084H117.158ZM127.526 43.384V49.882H129.758V51.628H127.526V59.422H125.402V43.384H127.526ZM115.7 52.888C115.7 50.926 117.266 49.432 119.57 49.432C121.874 49.432 123.44 50.872 123.44 52.888C123.44 54.85 121.874 56.344 119.57 56.344C117.266 56.344 115.7 54.922 115.7 52.888ZM117.752 52.888C117.752 53.932 118.508 54.634 119.57 54.634C120.74 54.634 121.388 53.932 121.388 52.888C121.388 51.826 120.614 51.124 119.57 51.124C118.526 51.124 117.752 51.826 117.752 52.888ZM143.46 59.422H141.354V43.384H143.46V59.422ZM138.528 45.058C138.402 49.9 136.26 53.86 131.364 56.524L130.068 54.94C133.578 53.338 135.972 49.99 136.26 46.804H131.04V45.058H138.528Z" fill="#2B2C2F"/>
<g filter="url(#filter0_d_631_3401)">
<path d="M290.72 19.3235C275.894 19.3237 263.75 30.9486 262.693 42.1838C250.766 50.0824 243.011 62.3429 243.011 74.053C243.011 93.4881 264.371 90.8831 290.72 90.8831C317.069 90.8831 338.429 93.4883 338.43 74.053C338.43 62.3432 330.675 50.0824 318.748 42.1838C317.691 30.9485 305.546 19.3235 290.72 19.3235Z" fill="white"/>
<ellipse cx="1.30568" cy="2.84228" rx="1.30568" ry="2.84228" transform="matrix(-0.995256 -0.0972941 0.123646 -0.992326 277.719 38.9302)" fill="#373737"/>
<ellipse cx="1.30568" cy="2.84228" rx="1.30568" ry="2.84228" transform="matrix(-0.995256 -0.0972941 0.123646 -0.992326 290.074 40.147)" fill="#373737"/>
<g filter="url(#filter1_ii_631_3401)">
<path d="M309.351 43.8102C306.257 45.9632 306.824 52.1 310.616 57.5171C314.409 62.9342 319.991 65.5803 323.085 63.4273C326.179 61.2742 323.807 56.7978 320.015 51.3807C316.222 45.9636 312.445 41.6571 309.351 43.8102Z" fill="#FF5E14"/>
</g>
<g filter="url(#filter2_ii_631_3401)">
<path d="M263.662 39.3731C265.973 42.3463 263.601 48.0373 258.364 52.0842C253.127 56.1312 247.008 57.0016 244.696 54.0284C242.385 51.0551 245.985 47.4848 251.222 43.4379C256.459 39.3909 261.35 36.3999 263.662 39.3731Z" fill="#FF5E14"/>
</g>
<path d="M288.996 18.5197L287.193 19.3847L288.996 18.5197ZM285.845 17.8237C284.874 17.2973 284.513 16.0834 285.04 15.1123C285.566 14.1412 286.78 13.7808 287.751 14.3071L286.798 16.0654L285.845 17.8237ZM288.996 24.0583C287.061 23.5533 287.061 23.5537 287.061 23.554C287.061 23.5541 287.061 23.5544 287.061 23.5546C287.06 23.555 287.06 23.5553 287.06 23.5555C287.06 23.5561 287.06 23.5564 287.06 23.5565C287.06 23.5567 287.06 23.5561 287.061 23.5547C287.061 23.5518 287.063 23.5457 287.065 23.5366C287.07 23.5182 287.077 23.4877 287.087 23.4461C287.106 23.3627 287.134 23.2362 287.166 23.0762C287.231 22.7538 287.307 22.3088 287.358 21.8166C287.47 20.7156 287.402 19.8215 287.193 19.3847L288.996 18.5197L290.799 17.6546C291.526 19.1691 291.458 21.0443 291.337 22.2248C291.27 22.8734 291.171 23.4471 291.089 23.8583C291.048 24.0652 291.01 24.2341 290.982 24.3546C290.968 24.4149 290.956 24.4633 290.948 24.4984C290.943 24.516 290.94 24.5303 290.937 24.5412C290.936 24.5466 290.934 24.5512 290.933 24.5548C290.933 24.5567 290.933 24.5583 290.932 24.5597C290.932 24.5604 290.932 24.561 290.932 24.5616C290.932 24.5619 290.932 24.5623 290.932 24.5625C290.931 24.5628 290.931 24.5632 288.996 24.0583ZM288.996 18.5197L287.193 19.3847C286.924 18.8232 286.558 18.413 286.256 18.143C286.107 18.0094 285.98 17.9163 285.901 17.8621C285.861 17.8353 285.834 17.8187 285.824 17.8123C285.818 17.8091 285.817 17.8084 285.821 17.8103C285.822 17.8113 285.825 17.8129 285.829 17.8151C285.831 17.8162 285.833 17.8175 285.836 17.8189C285.837 17.8197 285.839 17.8204 285.84 17.8212C285.841 17.8216 285.842 17.822 285.842 17.8224C285.843 17.8226 285.843 17.823 285.844 17.8231C285.844 17.8234 285.845 17.8237 286.798 16.0654C287.751 14.3071 287.752 14.3075 287.752 14.3078C287.752 14.3079 287.753 14.3083 287.753 14.3085C287.754 14.309 287.755 14.3094 287.756 14.3099C287.758 14.3109 287.76 14.3119 287.762 14.313C287.766 14.3152 287.77 14.3176 287.775 14.3202C287.784 14.3253 287.795 14.3313 287.807 14.3382C287.831 14.3519 287.86 14.369 287.894 14.3895C287.962 14.4306 288.049 14.4858 288.152 14.5558C288.357 14.6952 288.626 14.8956 288.924 15.1624C289.517 15.6928 290.25 16.5098 290.799 17.6546L288.996 18.5197Z" fill="white"/>
<path d="M293.159 19.2626L291.325 18.4604L293.159 19.2626ZM291.63 16.4229C291.395 15.345 292.081 14.2818 293.162 14.0482C294.243 13.8147 295.31 14.4992 295.545 15.5771L293.587 16L291.63 16.4229ZM288.953 22.8802C288.068 21.0882 288.068 21.0883 288.067 21.0885C288.067 21.0885 288.067 21.0887 288.067 21.0888C288.066 21.0889 288.066 21.0891 288.066 21.0892C288.065 21.0894 288.065 21.0896 288.065 21.0896C288.065 21.0897 288.065 21.0894 288.067 21.0888C288.069 21.0874 288.075 21.0846 288.083 21.0803C288.1 21.0718 288.129 21.0574 288.166 21.0375C288.243 20.9977 288.357 20.9364 288.5 20.8559C288.787 20.6937 289.175 20.4606 289.582 20.1771C290.492 19.5429 291.129 18.9062 291.325 18.4604L293.159 19.2626L294.994 20.0647C294.319 21.6001 292.852 22.7722 291.877 23.4516C291.341 23.8248 290.841 24.1246 290.476 24.3312C290.292 24.4351 290.139 24.517 290.029 24.5745C289.974 24.6032 289.93 24.6259 289.897 24.6423C289.881 24.6505 289.868 24.6571 289.858 24.6621C289.853 24.6646 289.849 24.6667 289.845 24.6684C289.844 24.6692 289.842 24.67 289.841 24.6706C289.84 24.6709 289.84 24.6712 289.839 24.6715C289.839 24.6716 289.838 24.6718 289.838 24.6719C289.838 24.672 289.838 24.6722 288.953 22.8802ZM293.159 19.2626L291.325 18.4604C291.576 17.8895 291.648 17.3453 291.656 16.9413C291.66 16.7415 291.648 16.5849 291.637 16.4897C291.632 16.4425 291.627 16.4115 291.625 16.3993C291.624 16.3932 291.624 16.392 291.624 16.3958C291.625 16.3977 291.625 16.4008 291.626 16.4054C291.627 16.4076 291.627 16.4102 291.628 16.4131C291.628 16.4146 291.629 16.4161 291.629 16.4178C291.629 16.4186 291.629 16.4194 291.63 16.4203C291.63 16.4207 291.63 16.4213 291.63 16.4216C291.63 16.4222 291.63 16.4229 293.587 16C295.545 15.5771 295.545 15.5778 295.545 15.5785C295.545 15.5787 295.545 15.5794 295.545 15.5799C295.546 15.5809 295.546 15.5818 295.546 15.5828C295.546 15.5848 295.547 15.5869 295.547 15.5892C295.548 15.5936 295.549 15.5984 295.55 15.6036C295.552 15.614 295.555 15.626 295.557 15.6395C295.563 15.6665 295.569 15.6998 295.575 15.739C295.589 15.8172 295.604 15.9194 295.618 16.0426C295.646 16.2884 295.669 16.6227 295.661 17.022C295.646 17.8161 295.504 18.9032 294.994 20.0647L293.159 19.2626Z" fill="white"/>
<path d="M281.908 38.0768C281.789 37.9497 281.088 37.8808 280.946 37.9823C280.497 38.3039 279.68 39.1442 278.962 39.6583C278.554 39.9508 277.985 40.1093 276.995 40.0952C276.49 40.088 276.533 41.4134 276.995 41.6836C278.357 42.481 279.408 43.0028 280.865 43.1254C282.254 43.2422 284.016 42.7786 285.447 42.278C285.952 42.1011 285.957 40.9651 285.461 40.8673C284.582 40.6938 283.737 40.4439 283.411 40.0952C282.807 39.4512 282.286 38.4795 281.908 38.0768Z" fill="#2A7EFF"/>
</g>
<g clip-path="url(#clip0_631_3401)">
<path d="M292.837 61.6866C292.555 62.2444 292.063 62.6675 291.469 62.8628C290.875 63.058 290.229 63.0094 289.671 62.7277L274.946 55.2912C274.388 55.0094 273.965 54.5176 273.77 53.9239C273.575 53.3302 273.623 52.6832 273.905 52.1253L278.686 42.6596C278.967 42.1018 279.459 41.6787 280.053 41.4834C280.647 41.2882 281.294 41.3368 281.852 41.6185L296.576 49.055C297.134 49.3368 297.557 49.8286 297.752 50.4223C297.947 51.016 297.899 51.663 297.617 52.2208L292.837 61.6866Z" fill="#FFF0CD"/>
<path d="M282.676 50.3744L273.723 53.3187C273.701 53.3268 273.686 53.3425 273.667 53.3511C273.694 53.7412 273.818 54.1158 274.027 54.4465C274.048 54.4421 274.069 54.4459 274.09 54.4389L283.045 51.494C283.118 51.4698 283.186 51.4313 283.245 51.3808C283.304 51.3303 283.352 51.2687 283.387 51.1996C283.421 51.1304 283.442 51.0551 283.448 50.9779C283.454 50.9007 283.444 50.8232 283.42 50.7496C283.396 50.6761 283.357 50.6081 283.307 50.5495C283.256 50.4908 283.195 50.4427 283.126 50.4078C283.056 50.373 282.981 50.3521 282.904 50.3464C282.827 50.3406 282.749 50.3501 282.676 50.3744ZM291.991 62.6058C291.988 62.5855 291.991 62.564 291.984 62.5426L289.04 53.5885C289.016 53.515 288.977 53.447 288.927 53.3883C288.876 53.3296 288.815 53.2814 288.746 53.2465C288.677 53.2116 288.601 53.1906 288.524 53.1848C288.447 53.179 288.37 53.1884 288.296 53.2126C288.223 53.2367 288.155 53.2751 288.096 53.3256C288.037 53.376 287.989 53.4375 287.954 53.5066C287.919 53.5756 287.898 53.6509 287.892 53.7281C287.887 53.8052 287.896 53.8828 287.92 53.9563L290.864 62.9106C290.871 62.9312 290.887 62.9466 290.896 62.9661C291.285 62.9386 291.662 62.8148 291.991 62.6058Z" fill="#FFA263"/>
<path d="M296.576 49.055L281.852 41.6185C281.294 41.3368 280.647 41.2882 280.053 41.4834C279.459 41.6787 278.967 42.1018 278.686 42.6596L278.412 43.2013L282.202 54.6826C282.441 55.4038 282.956 56.0009 283.635 56.3435C284.313 56.6862 285.099 56.7464 285.822 56.5111L297.349 52.7515L297.617 52.2208C297.899 51.663 297.947 51.016 297.752 50.4223C297.557 49.8286 297.134 49.3368 296.576 49.055Z" fill="#FFA263"/>
<path d="M296.576 49.0549L281.851 41.6184C281.455 41.4192 281.011 41.3362 280.569 41.3789C280.128 41.4217 279.707 41.5884 279.357 41.8599L283.2 53.5472C283.296 53.8412 283.45 54.1132 283.652 54.3479C283.854 54.5825 284.1 54.775 284.376 54.9145C284.652 55.0541 284.953 55.1378 285.262 55.161C285.571 55.1841 285.881 55.1463 286.175 55.0496L297.862 51.206C297.873 50.7626 297.757 50.3253 297.53 49.9447C297.302 49.564 296.971 49.2556 296.576 49.0549Z" fill="#FFEBB5"/>
<path d="M289.535 48.9988L289.682 49.0776C290.02 49.2703 290.323 49.5207 290.576 49.8179C290.865 50.1577 291.085 50.5523 291.221 50.9774C291.358 51.4025 291.408 51.8505 291.373 52.2957C291.337 52.7409 291.215 53.1751 291.014 53.5739C290.895 53.8086 290.754 54.0167 290.603 54.2011C290.598 54.2083 290.592 54.2153 290.587 54.2225L290.585 54.2238C289.804 55.2727 288.557 56.0098 287.352 56.4604C286.121 56.9201 284.767 57.1454 283.699 57.0226L283.333 56.9809L283.082 56.7109C282.349 55.9242 281.726 54.7003 281.366 53.4372C281.01 52.1902 280.864 50.7362 281.256 49.4782C281.315 49.249 281.397 49.0122 281.516 48.777C281.922 47.972 282.629 47.3569 283.483 47.0694C284.338 46.7816 285.272 46.8457 286.077 47.2523L286.254 47.3487C286.662 47.5864 287.014 47.9081 287.29 48.2927C287.378 48.4154 287.455 48.5442 287.526 48.6767C287.675 48.6545 287.826 48.6408 287.977 48.6388C288.517 48.6315 289.051 48.7548 289.534 48.9984L289.535 48.9988Z" fill="#FF6A25" stroke="white" stroke-width="2"/>
</g>
<defs>
<filter id="filter0_d_631_3401" x="238.002" y="10.0024" width="104.428" height="84.9976" filterUnits="userSpaceOnUse" color-interpolation-filters="sRGB">
<feFlood flood-opacity="0" result="BackgroundImageFix"/>
<feColorMatrix in="SourceAlpha" type="matrix" values="0 0 0 0 0 0 0 0 0 0 0 0 0 0 0 0 0 0 127 0" result="hardAlpha"/>
<feOffset/>
<feGaussianBlur stdDeviation="2"/>
<feComposite in2="hardAlpha" operator="out"/>
<feColorMatrix type="matrix" values="0 0 0 0 0 0 0 0 0 0 0 0 0 0 0 0 0 0 0.15 0"/>
<feBlend mode="normal" in2="BackgroundImageFix" result="effect1_dropShadow_631_3401"/>
<feBlend mode="normal" in="SourceGraphic" in2="effect1_dropShadow_631_3401" result="shape"/>
</filter>
<filter id="filter1_ii_631_3401" x="307.355" y="40.2441" width="17.1523" height="28.9321" filterUnits="userSpaceOnUse" color-interpolation-filters="sRGB">
<feFlood flood-opacity="0" result="BackgroundImageFix"/>
<feBlend mode="normal" in="SourceGraphic" in2="BackgroundImageFix" result="shape"/>
<feColorMatrix in="SourceAlpha" type="matrix" values="0 0 0 0 0 0 0 0 0 0 0 0 0 0 0 0 0 0 127 0" result="hardAlpha"/>
<feOffset dy="-3"/>
<feGaussianBlur stdDeviation="2"/>
<feComposite in2="hardAlpha" operator="arithmetic" k2="-1" k3="1"/>
<feColorMatrix type="matrix" values="0 0 0 0 1 0 0 0 0 0.985109 0 0 0 0 0.900729 0 0 0 0.4 0"/>
<feBlend mode="normal" in2="shape" result="effect1_innerShadow_631_3401"/>
<feColorMatrix in="SourceAlpha" type="matrix" values="0 0 0 0 0 0 0 0 0 0 0 0 0 0 0 0 0 0 127 0" result="hardAlpha"/>
<feOffset dy="5"/>
<feGaussianBlur stdDeviation="2.5"/>
<feComposite in2="hardAlpha" operator="arithmetic" k2="-1" k3="1"/>
<feColorMatrix type="matrix" values="0 0 0 0 1 0 0 0 0 0.985109 0 0 0 0 0.900729 0 0 0 0.7 0"/>
<feBlend mode="normal" in2="effect1_innerShadow_631_3401" result="effect2_innerShadow_631_3401"/>
</filter>
<filter id="filter2_ii_631_3401" x="243.982" y="35.1704" width="20.5645" height="25.6235" filterUnits="userSpaceOnUse" color-interpolation-filters="sRGB">
<feFlood flood-opacity="0" result="BackgroundImageFix"/>
<feBlend mode="normal" in="SourceGraphic" in2="BackgroundImageFix" result="shape"/>
<feColorMatrix in="SourceAlpha" type="matrix" values="0 0 0 0 0 0 0 0 0 0 0 0 0 0 0 0 0 0 127 0" result="hardAlpha"/>
<feOffset dy="-3"/>
<feGaussianBlur stdDeviation="2"/>
<feComposite in2="hardAlpha" operator="arithmetic" k2="-1" k3="1"/>
<feColorMatrix type="matrix" values="0 0 0 0 1 0 0 0 0 0.985109 0 0 0 0 0.900729 0 0 0 0.4 0"/>
<feBlend mode="normal" in2="shape" result="effect1_innerShadow_631_3401"/>
<feColorMatrix in="SourceAlpha" type="matrix" values="0 0 0 0 0 0 0 0 0 0 0 0 0 0 0 0 0 0 127 0" result="hardAlpha"/>
<feOffset dy="5"/>
<feGaussianBlur stdDeviation="2.5"/>
<feComposite in2="hardAlpha" operator="arithmetic" k2="-1" k3="1"/>
<feColorMatrix type="matrix" values="0 0 0 0 1 0 0 0 0 0.985109 0 0 0 0 0.900729 0 0 0 0.7 0"/>
<feBlend mode="normal" in2="effect1_innerShadow_631_3401" result="effect2_innerShadow_631_3401"/>
</filter>
<linearGradient id="paint0_linear_631_3401" x1="177" y1="-3.74374e-06" x2="177" y2="85" gradientUnits="userSpaceOnUse">
<stop offset="0.774038" stop-color="white"/>
<stop offset="1" stop-color="white" stop-opacity="0.7"/>
</linearGradient>
<clipPath id="clip0_631_3401">
<rect width="21.2088" height="21.2088" fill="white" transform="translate(281.076 37.9268) rotate(26.7958)"/>
</clipPath>
</defs>
</svg>
