<svg width="192" height="192" viewBox="0 0 192 192" fill="none" xmlns="http://www.w3.org/2000/svg">
<g filter="url(#filter0_f_606_5302)">
<circle cx="96" cy="96" r="43" fill="#FFEB7B"/>
</g>
<g filter="url(#filter1_d_606_5302)">
<g filter="url(#filter2_i_606_5302)">
<path d="M97.0987 117.934C98.1559 115.799 98.542 112.579 98.6216 109.708C98.6715 107.909 101.008 106.65 102.632 107.426C108.588 110.27 116.033 110.461 122.061 109.638C131.49 108.353 134.815 103.852 134.815 95.751C134.815 89.8342 124.243 77.9618 119.043 72.7644C115.043 68.585 105.328 60.0012 98.4702 59.101C94.6621 58.6012 91.1006 60.094 88.3144 62.0161C84.7385 64.4828 80.9238 66.8857 76.7212 67.9854C73.0923 68.935 68.8269 70.4595 66.2397 72.7644C62.4771 76.1166 59.0466 84.2756 58.1146 89.0631C56.8002 95.8144 56.6392 105.589 60.7538 112.79C65.8969 121.792 82.5264 128.543 86.6409 128.543C90.7555 128.543 94.87 122.435 97.0987 117.934Z" fill="#FFDD81"/>
</g>
<g filter="url(#filter3_diif_606_5302)">
<path d="M67.095 119.964C56.7088 112.287 57.6657 97.8462 57.6657 97.8462C57.6657 97.8462 59.654 105.606 63.0304 109.126C66.4698 112.713 74.3192 114.996 74.3192 114.996C74.3192 114.996 95.9938 119.06 94.1876 122.221L94.1457 122.295C93.1122 124.104 92.2931 125.537 90.5752 126.737C89.1512 127.731 88.3174 128.092 86.963 128.543C85.6085 128.995 75.3189 126.042 67.095 119.964Z" fill="#FECB40" shape-rendering="crispEdges"/>
<path d="M58.1647 97.8793C57.832 97.8572 57.4994 97.8352 57.1668 97.8131C57.1009 99.6044 57.2351 101.348 57.4794 103.097C58.3915 109.669 61.3991 116.268 66.909 120.215C72.9315 124.37 79.5826 127.892 87.0113 128.688C88.3052 128.277 89.5522 127.642 90.6482 126.841C92.3044 125.719 93.333 123.955 94.27 122.268C94.5428 121.841 94.2811 121.3 93.9905 121.018C93.6912 120.705 93.3289 120.464 92.9591 120.245C92.2221 119.816 91.4311 119.479 90.6502 119.174C89.0632 118.562 87.4469 118.072 85.8159 117.615C82.0301 116.569 78.1634 115.715 74.3229 114.977C70.2887 113.671 66.1346 112.113 63.0321 109.125C61.4526 107.439 60.4086 105.333 59.507 103.222C59.4456 103.076 59.3845 102.924 59.3269 102.776C58.702 101.158 58.2976 99.442 58.1501 97.7221C57.8272 97.8048 57.5043 97.8876 57.1814 97.9703C57.937 99.5998 58.6463 101.174 59.3203 102.778C59.3823 102.925 59.4456 103.076 59.507 103.222C60.4087 105.333 61.4509 107.44 63.0287 109.128C66.1289 112.122 70.2782 113.69 74.3137 115.015C78.1515 115.769 82.0136 116.644 85.7881 117.714C87.4138 118.181 89.0242 118.683 90.5984 119.306C91.3725 119.616 92.1559 119.959 92.8751 120.387C93.5185 120.79 94.5021 121.422 94.1053 122.174C93.1476 123.858 92.1227 125.563 90.5022 126.632C89.4018 127.414 88.2057 128.005 86.9146 128.398C79.8944 127.503 73.0975 123.901 67.281 119.712C62.0053 115.804 59.1986 109.387 58.3987 102.972C58.1847 101.278 58.0809 99.537 58.1647 97.8793ZM57.1668 97.8131L58.1647 97.8793L57.1814 97.9703L58.1501 97.7221L57.1668 97.8131Z" fill="#FFF0B1" fill-opacity="0.2"/>
</g>
<g filter="url(#filter4_ii_606_5302)">
<path d="M102.174 60.1289C94.1892 55.8431 82.997 65.0244 80.6426 66.6801C80.6426 66.6801 88.474 66.353 93.4381 70.5937C104.033 79.6448 100.511 106.868 100.511 106.868C103.672 106.417 104.608 112.307 124.187 109.684C129.834 108.928 134.919 103.852 134.919 95.7511C134.919 89.8343 124.347 77.962 119.147 72.7645C115.147 68.5852 108.136 63.3287 102.174 60.1289Z" fill="#FFC52A"/>
</g>
<g filter="url(#filter5_f_606_5302)">
<path d="M79.5345 119.249C77.4814 118.609 75.6752 115.448 71.6112 116.351L68.4503 117.254L64.8379 118.609H71.7657C71.9633 118.609 72.1603 118.628 72.3541 118.667L74.7167 119.14C75.8535 119.367 76.7576 120.229 77.0388 121.354L77.6724 123.888C77.8409 124.562 77.7655 125.272 77.4998 125.913C77.3506 126.274 77.1923 126.684 77.0774 127.052C76.9818 127.359 79.6668 124.897 80.6982 123.943C80.9608 123.7 81.1884 123.412 81.2414 123.058C81.4195 121.867 80.9712 119.697 79.5345 119.249Z" fill="url(#paint0_linear_606_5302)"/>
</g>
<g filter="url(#filter6_i_606_5302)">
<path d="M79.5339 119.249C79.1171 119.101 78.746 118.935 78.416 118.756C76.4773 117.704 73.5363 115.745 71.4281 116.392L68.8102 117.197C64.4166 118.546 60.4009 120.907 57.0853 124.091C55.7003 125.42 56.252 127.748 58.0863 128.315L71.3785 132.422C72.4837 132.764 73.681 132.327 74.3071 131.355L75.1174 130.096C76.4143 128.082 78.0423 126.3 79.9325 124.828L80.7576 124.185C82.0526 123.177 81.0803 119.8 79.5339 119.249Z" fill="white"/>
</g>
<g filter="url(#filter7_f_606_5302)">
<path d="M82.7916 89.3225C78.2725 92.1843 75.2597 87.9281 72.9649 84.7424C70.6702 81.5566 69.3488 77.2182 73.8679 74.3564C78.387 71.4947 84.5243 75.1867 86.8191 78.3725C89.1138 81.5582 87.3106 86.4607 82.7916 89.3225Z" fill="#FFF3D3" fill-opacity="0.7"/>
</g>
<g filter="url(#filter8_f_606_5302)">
<path d="M95.6464 117.748C95.0057 118.659 88.5245 116.346 85.6096 114.545C82.6947 112.744 66.9067 110.488 67.5475 109.578C68.1883 108.667 82.6947 110.486 85.6096 112.287C88.5245 114.088 96.2872 116.838 95.6464 117.748Z" fill="#FFF3D3" fill-opacity="0.7"/>
</g>
<g filter="url(#filter9_f_606_5302)">
<ellipse cx="3.58501" cy="4.94488" rx="3.58501" ry="4.94488" transform="matrix(0.783848 0.620953 -0.66941 0.742893 125.16 89.2605)" fill="#FFF3D3" fill-opacity="0.3"/>
</g>
</g>
<g filter="url(#filter10_f_606_5302)">
<path d="M89.2213 69.8737C85.7785 67.7959 79.2871 67.1644 79.2871 67.1644C79.2871 67.1644 79.7901 65.9899 82.448 66.2285C85.2251 66.4778 90.4476 67.0766 92.8337 68.519C96.3697 70.6566 97.6942 72.9846 99.6071 76.647C101.312 79.9108 101.863 81.9357 102.316 85.6781C103.122 92.3305 103.936 100.536 101.744 106.869C100.962 106.417 99.6071 107.353 99.6071 107.353C99.6071 107.353 100.962 94.7092 99.6071 85.6781C98.6199 79.0973 94.9186 73.3122 89.2213 69.8737Z" fill="url(#paint1_linear_606_5302)"/>
</g>
<g filter="url(#filter11_f_606_5302)">
<path d="M99.1559 78.8723C99.6918 80.3016 100.033 82.2799 100.236 84.5341C101.558 90.7652 103.065 100.057 101.865 107.021C100.962 106.868 99.6074 107.353 99.6074 107.353C99.6074 107.353 101.06 93.675 100.236 84.5341C99.0731 79.0479 98.0543 75.9346 99.1559 78.8723Z" fill="url(#paint2_linear_606_5302)"/>
</g>
<defs>
<filter id="filter0_f_606_5302" x="0.400002" y="0.400002" width="191.2" height="191.2" filterUnits="userSpaceOnUse" color-interpolation-filters="sRGB">
<feFlood flood-opacity="0" result="BackgroundImageFix"/>
<feBlend mode="normal" in="SourceGraphic" in2="BackgroundImageFix" result="shape"/>
<feGaussianBlur stdDeviation="26.3" result="effect1_foregroundBlur_606_5302"/>
</filter>
<filter id="filter1_d_606_5302" x="43.4086" y="46.1" width="104.411" height="99.3376" filterUnits="userSpaceOnUse" color-interpolation-filters="sRGB">
<feFlood flood-opacity="0" result="BackgroundImageFix"/>
<feColorMatrix in="SourceAlpha" type="matrix" values="0 0 0 0 0 0 0 0 0 0 0 0 0 0 0 0 0 0 127 0" result="hardAlpha"/>
<feOffset/>
<feGaussianBlur stdDeviation="6.45"/>
<feComposite in2="hardAlpha" operator="out"/>
<feColorMatrix type="matrix" values="0 0 0 0 1 0 0 0 0 1 0 0 0 0 1 0 0 0 1 0"/>
<feBlend mode="normal" in2="BackgroundImageFix" result="effect1_dropShadow_606_5302"/>
<feBlend mode="normal" in="SourceGraphic" in2="effect1_dropShadow_606_5302" result="shape"/>
</filter>
<filter id="filter2_i_606_5302" x="57.2871" y="57.0037" width="78.5273" height="71.5393" filterUnits="userSpaceOnUse" color-interpolation-filters="sRGB">
<feFlood flood-opacity="0" result="BackgroundImageFix"/>
<feBlend mode="normal" in="SourceGraphic" in2="BackgroundImageFix" result="shape"/>
<feColorMatrix in="SourceAlpha" type="matrix" values="0 0 0 0 0 0 0 0 0 0 0 0 0 0 0 0 0 0 127 0" result="hardAlpha"/>
<feOffset dx="1" dy="-2"/>
<feGaussianBlur stdDeviation="4.45"/>
<feComposite in2="hardAlpha" operator="arithmetic" k2="-1" k3="1"/>
<feColorMatrix type="matrix" values="0 0 0 0 0.995699 0 0 0 0 0.640682 0 0 0 0 0.176428 0 0 0 1 0"/>
<feBlend mode="normal" in2="shape" result="effect1_innerShadow_606_5302"/>
</filter>
<filter id="filter3_diif_606_5302" x="54.1504" y="95.6222" width="44.2344" height="35.1658" filterUnits="userSpaceOnUse" color-interpolation-filters="sRGB">
<feFlood flood-opacity="0" result="BackgroundImageFix"/>
<feColorMatrix in="SourceAlpha" type="matrix" values="0 0 0 0 0 0 0 0 0 0 0 0 0 0 0 0 0 0 127 0" result="hardAlpha"/>
<feOffset dy="-1"/>
<feComposite in2="hardAlpha" operator="out"/>
<feColorMatrix type="matrix" values="0 0 0 0 0.961707 0 0 0 0 0.432768 0 0 0 0 0 0 0 0 0.3 0"/>
<feBlend mode="normal" in2="BackgroundImageFix" result="effect1_dropShadow_606_5302"/>
<feBlend mode="normal" in="SourceGraphic" in2="effect1_dropShadow_606_5302" result="shape"/>
<feColorMatrix in="SourceAlpha" type="matrix" values="0 0 0 0 0 0 0 0 0 0 0 0 0 0 0 0 0 0 127 0" result="hardAlpha"/>
<feOffset dx="-6"/>
<feGaussianBlur stdDeviation="1.5"/>
<feComposite in2="hardAlpha" operator="arithmetic" k2="-1" k3="1"/>
<feColorMatrix type="matrix" values="0 0 0 0 1 0 0 0 0 0.333333 0 0 0 0 0 0 0 0 0.3 0"/>
<feBlend mode="normal" in2="shape" result="effect2_innerShadow_606_5302"/>
<feColorMatrix in="SourceAlpha" type="matrix" values="0 0 0 0 0 0 0 0 0 0 0 0 0 0 0 0 0 0 127 0" result="hardAlpha"/>
<feOffset dx="11"/>
<feGaussianBlur stdDeviation="2"/>
<feComposite in2="hardAlpha" operator="arithmetic" k2="-1" k3="1"/>
<feColorMatrix type="matrix" values="0 0 0 0 0.968627 0 0 0 0 0.668039 0 0 0 0 0.109804 0 0 0 0.8 0"/>
<feBlend mode="normal" in2="effect2_innerShadow_606_5302" result="effect3_innerShadow_606_5302"/>
<feGaussianBlur stdDeviation="1.05" result="effect4_foregroundBlur_606_5302"/>
</filter>
<filter id="filter4_ii_606_5302" x="77.6426" y="54.3" width="57.2773" height="56.0599" filterUnits="userSpaceOnUse" color-interpolation-filters="sRGB">
<feFlood flood-opacity="0" result="BackgroundImageFix"/>
<feBlend mode="normal" in="SourceGraphic" in2="BackgroundImageFix" result="shape"/>
<feColorMatrix in="SourceAlpha" type="matrix" values="0 0 0 0 0 0 0 0 0 0 0 0 0 0 0 0 0 0 127 0" result="hardAlpha"/>
<feOffset dx="-3" dy="-7"/>
<feGaussianBlur stdDeviation="2.35"/>
<feComposite in2="hardAlpha" operator="arithmetic" k2="-1" k3="1"/>
<feColorMatrix type="matrix" values="0 0 0 0 1 0 0 0 0 0.693725 0 0 0 0 0.164706 0 0 0 1 0"/>
<feBlend mode="normal" in2="shape" result="effect1_innerShadow_606_5302"/>
<feColorMatrix in="SourceAlpha" type="matrix" values="0 0 0 0 0 0 0 0 0 0 0 0 0 0 0 0 0 0 127 0" result="hardAlpha"/>
<feOffset dy="-3"/>
<feGaussianBlur stdDeviation="3.15"/>
<feComposite in2="hardAlpha" operator="arithmetic" k2="-1" k3="1"/>
<feColorMatrix type="matrix" values="0 0 0 0 1 0 0 0 0 0.416623 0 0 0 0 0.146278 0 0 0 0.5 0"/>
<feBlend mode="normal" in2="effect1_innerShadow_606_5302" result="effect2_innerShadow_606_5302"/>
</filter>
<filter id="filter5_f_606_5302" x="64.3379" y="115.69" width="17.4414" height="11.8887" filterUnits="userSpaceOnUse" color-interpolation-filters="sRGB">
<feFlood flood-opacity="0" result="BackgroundImageFix"/>
<feBlend mode="normal" in="SourceGraphic" in2="BackgroundImageFix" result="shape"/>
<feGaussianBlur stdDeviation="0.25" result="effect1_foregroundBlur_606_5302"/>
</filter>
<filter id="filter6_i_606_5302" x="56.3086" y="114.264" width="25.0508" height="18.2737" filterUnits="userSpaceOnUse" color-interpolation-filters="sRGB">
<feFlood flood-opacity="0" result="BackgroundImageFix"/>
<feBlend mode="normal" in="SourceGraphic" in2="BackgroundImageFix" result="shape"/>
<feColorMatrix in="SourceAlpha" type="matrix" values="0 0 0 0 0 0 0 0 0 0 0 0 0 0 0 0 0 0 127 0" result="hardAlpha"/>
<feOffset dy="-2"/>
<feGaussianBlur stdDeviation="1.75"/>
<feComposite in2="hardAlpha" operator="arithmetic" k2="-1" k3="1"/>
<feColorMatrix type="matrix" values="0 0 0 0 0.696289 0 0 0 0 0.63655 0 0 0 0 0.485446 0 0 0 0.25 0"/>
<feBlend mode="normal" in2="shape" result="effect1_innerShadow_606_5302"/>
</filter>
<filter id="filter7_f_606_5302" x="64.6594" y="67.1286" width="29.357" height="29.3387" filterUnits="userSpaceOnUse" color-interpolation-filters="sRGB">
<feFlood flood-opacity="0" result="BackgroundImageFix"/>
<feBlend mode="normal" in="SourceGraphic" in2="BackgroundImageFix" result="shape"/>
<feGaussianBlur stdDeviation="3.1" result="effect1_foregroundBlur_606_5302"/>
</filter>
<filter id="filter8_f_606_5302" x="63.6293" y="105.435" width="35.9543" height="16.4182" filterUnits="userSpaceOnUse" color-interpolation-filters="sRGB">
<feFlood flood-opacity="0" result="BackgroundImageFix"/>
<feBlend mode="normal" in="SourceGraphic" in2="BackgroundImageFix" result="shape"/>
<feGaussianBlur stdDeviation="1.95" result="effect1_foregroundBlur_606_5302"/>
</filter>
<filter id="filter9_f_606_5302" x="116.418" y="86.964" width="16.4836" height="16.392" filterUnits="userSpaceOnUse" color-interpolation-filters="sRGB">
<feFlood flood-opacity="0" result="BackgroundImageFix"/>
<feBlend mode="normal" in="SourceGraphic" in2="BackgroundImageFix" result="shape"/>
<feGaussianBlur stdDeviation="1.95" result="effect1_foregroundBlur_606_5302"/>
</filter>
<filter id="filter10_f_606_5302" x="77.2871" y="64.1965" width="27.8691" height="45.1562" filterUnits="userSpaceOnUse" color-interpolation-filters="sRGB">
<feFlood flood-opacity="0" result="BackgroundImageFix"/>
<feBlend mode="normal" in="SourceGraphic" in2="BackgroundImageFix" result="shape"/>
<feGaussianBlur stdDeviation="1" result="effect1_foregroundBlur_606_5302"/>
</filter>
<filter id="filter11_f_606_5302" x="98.2836" y="77.3432" width="4.41914" height="30.4099" filterUnits="userSpaceOnUse" color-interpolation-filters="sRGB">
<feFlood flood-opacity="0" result="BackgroundImageFix"/>
<feBlend mode="normal" in="SourceGraphic" in2="BackgroundImageFix" result="shape"/>
<feGaussianBlur stdDeviation="0.2" result="effect1_foregroundBlur_606_5302"/>
</filter>
<linearGradient id="paint0_linear_606_5302" x1="76.1268" y1="116.351" x2="74.3205" y2="120.866" gradientUnits="userSpaceOnUse">
<stop offset="0.235577" stop-color="#FFD8B2"/>
<stop offset="1" stop-color="white"/>
</linearGradient>
<linearGradient id="paint1_linear_606_5302" x1="80.5165" y1="66.2287" x2="102.768" y2="102.353" gradientUnits="userSpaceOnUse">
<stop stop-color="#FFB22A"/>
<stop offset="0.466346" stop-color="#FFC42A"/>
<stop offset="1" stop-color="#FF9F29"/>
</linearGradient>
<linearGradient id="paint2_linear_606_5302" x1="100.059" y1="84.2907" x2="101.865" y2="100.547" gradientUnits="userSpaceOnUse">
<stop stop-color="#FFC42A"/>
<stop offset="1" stop-color="#FF8D00"/>
</linearGradient>
</defs>
</svg>
