<svg width="353" height="109" viewBox="0 0 353 109" fill="none" xmlns="http://www.w3.org/2000/svg">
<rect y="14" width="353" height="85" rx="20" fill="url(#paint0_linear_36_638)"/>
<path d="M34.504 41.952C34.504 39.32 35.694 37.486 37.724 37.486C39.572 37.486 40.706 38.984 40.902 41.21H43.1V36.632H44.738V49.106H43.1V42.596H40.916C40.734 44.85 39.586 46.39 37.724 46.39C35.694 46.39 34.504 44.57 34.504 41.952ZM39.376 41.952C39.376 39.978 38.69 38.802 37.724 38.802C36.786 38.802 36.1 39.978 36.1 41.952C36.1 43.912 36.786 45.074 37.724 45.074C38.69 45.074 39.376 43.912 39.376 41.952ZM56.7673 45.676H55.1853V41.168H53.3513V39.88H55.1853V36.632H56.7673V45.676ZM57.0333 48.77H48.2693V44.892H49.9073V47.482H57.0333V48.77ZM47.9753 42.54C48.5213 42.512 49.2493 42.442 49.8513 42.316L49.9633 43.492C49.2213 43.66 48.0173 43.814 46.4073 43.814V37.584H49.6413V38.872H47.9753V42.54ZM51.8813 42.54C52.5953 42.54 53.4773 42.47 54.1353 42.33L54.2613 43.534C53.4073 43.702 51.9653 43.828 50.3273 43.828V37.584H53.7573V38.872H51.8813V42.54ZM73.0063 40.524H71.2423V42.834H69.5763V36.632H71.2423V39.18H73.0063V40.524ZM71.5923 49.008H63.0523V45.662H69.5763V44.794H62.9963V43.492H71.2423V46.838H64.6763V47.692H71.5923V49.008ZM67.6863 42.498H61.8483V37.262H67.6863V42.498ZM66.0623 41.224V38.522H63.4723V41.224H66.0623ZM83.6216 49.106H81.9976V36.632H83.6216V49.106ZM73.6676 41.952C73.6676 39.32 74.8576 37.486 76.8876 37.486C78.9316 37.486 80.1216 39.32 80.1216 41.952C80.1216 44.556 78.9316 46.39 76.8876 46.39C74.8576 46.39 73.6676 44.57 73.6676 41.952ZM78.5536 41.952C78.5536 39.978 77.8536 38.802 76.8876 38.802C75.9496 38.802 75.2636 39.978 75.2636 41.952C75.2636 43.912 75.9496 45.074 76.8876 45.074C77.8536 45.074 78.5536 43.912 78.5536 41.952ZM98.4466 43.366H94.9746V46.25H99.8186V47.538H88.5486V46.25H93.3366V43.366H90.0046V37.542H98.3766V38.844H91.6426V42.064H98.4466V43.366ZM107.522 42.764C107.256 43.184 106.99 43.604 106.71 44.024C105.758 43.73 104.456 42.862 103.952 41.812C103.504 42.932 102.258 43.968 101.026 44.36C100.732 43.94 100.424 43.52 100.116 43.1C101.656 42.596 102.762 41.714 103.028 40.3H100.648V39.012H107.228V40.3H104.848C105.142 41.686 106.304 42.414 107.522 42.764ZM101.922 44.864H110.14V49.12H108.502V46.166H101.922V44.864ZM111.918 41.21H110.126V44.276H108.502V36.632H110.126V39.866H111.918V41.21ZM102.132 38.312V37.038H105.758V38.312H102.132ZM122.813 44.36H121.259V41.378H120.237V44.276H118.711V36.856H120.237V40.048H121.259V36.618H122.813V44.36ZM117.927 42.456C117.927 43.618 116.905 44.43 115.267 44.43C113.657 44.43 112.621 43.618 112.621 42.456C112.621 41.294 113.657 40.482 115.267 40.482C116.905 40.482 117.927 41.294 117.927 42.456ZM123.359 48.07L122.393 49.218C121.595 48.91 120.699 48.014 120.405 47.258C120.181 48.014 119.257 48.966 118.207 49.4L117.325 48.224C118.795 47.552 119.579 46.558 119.579 45.018V44.892H121.175V45.018C121.175 46.544 122.071 47.636 123.359 48.07ZM117.003 48.056C116.583 47.874 116.107 47.468 115.897 47.034C115.631 47.902 114.623 48.896 113.587 49.274L112.705 48.07C114.217 47.426 115.015 46.502 115.015 44.948V44.892H116.597V44.976C116.597 46.068 117.115 46.67 117.941 46.964C117.619 47.328 117.311 47.678 117.003 48.056ZM112.243 40.146V38.872H118.221V40.146H112.243ZM113.741 38.354V37.094H117.031V38.354H113.741ZM116.443 42.456C116.443 42.05 116.009 41.714 115.267 41.714C114.539 41.714 114.105 42.05 114.105 42.456C114.105 42.862 114.539 43.212 115.267 43.212C116.009 43.212 116.443 42.862 116.443 42.456ZM135.318 43.198H124.048V41.896H135.318V43.198ZM134.282 49.05H125.392V45.872H132.21V45.158H125.406V43.884H133.834V47.02H127.03V47.706H134.282V49.05ZM126.988 39.054C126.988 39.614 127.968 40.062 129.704 40.062C131.44 40.062 132.434 39.614 132.434 39.054C132.434 38.48 131.44 38.06 129.704 38.06C127.968 38.06 126.988 38.48 126.988 39.054ZM125.294 39.054C125.294 37.696 126.876 36.814 129.704 36.814C132.518 36.814 134.114 37.696 134.114 39.054C134.114 40.398 132.518 41.294 129.704 41.294C126.876 41.294 125.294 40.398 125.294 39.054ZM145.696 36.632V41.588H147.474V42.946H145.696V49.106H144.114V36.632H145.696ZM139.648 37.934C139.662 41.91 138.71 44.276 136.736 46.376L135.532 45.452C137.268 43.828 138.122 41.518 138.108 39.292H136.302V37.934H139.648ZM143.106 37.934C143.12 42.232 142.476 44.528 140.292 47.132L139.018 46.222C140.796 44.36 141.566 42.064 141.566 39.292H140.208V37.934H143.106ZM148.975 44.654V43.604C148.975 42.638 149.451 42.246 150.361 41.518C150.963 41.056 151.201 40.72 151.201 39.992C151.201 39.096 150.641 38.802 149.591 38.802C148.779 38.802 148.331 38.928 147.757 39.096V37.892C148.401 37.612 149.115 37.472 150.053 37.472C151.649 37.472 152.923 38.144 152.923 39.866C152.923 41.07 152.517 41.504 151.509 42.288C150.795 42.848 150.431 43.086 150.431 43.73V44.654H148.975ZM148.891 47.636V45.998H150.599V47.636H148.891Z" fill="#3D8AFF"/>
<path d="M49.03 71.424H34.54V69.75H40.714V67.194C37.78 66.852 35.908 65.142 35.908 62.802C35.908 60.21 38.248 58.392 41.794 58.392C45.358 58.392 47.68 60.21 47.68 62.802C47.68 65.16 45.79 66.888 42.82 67.194V69.75H49.03V71.424ZM45.556 62.82C45.556 61.218 44.08 60.12 41.794 60.12C39.526 60.12 38.05 61.218 38.05 62.82C38.05 64.44 39.526 65.52 41.794 65.52C44.062 65.52 45.556 64.44 45.556 62.82ZM62.4622 62.532H51.6982V57.564H53.8222V60.876H62.4622V62.532ZM64.2442 65.376H49.7542V63.684H64.2442V65.376ZM62.9122 73.35H51.6082V69.156H60.2302V68.166H51.5002V66.492H62.3182V70.65H53.6962V71.64H62.9122V73.35ZM67.7584 62.244C67.7584 63.432 68.6224 64.35 70.0624 64.35C71.5204 64.35 72.3844 63.432 72.3844 62.244C72.3844 61.11 71.5204 60.192 70.0624 60.192C68.6224 60.192 67.7584 61.11 67.7584 62.244ZM78.5044 57.384V73.422H76.4164V57.384H78.5044ZM65.5984 62.262C65.5984 60.012 67.3624 58.41 70.0624 58.41C72.7804 58.41 74.5084 60.012 74.5084 62.262C74.5084 64.494 72.7804 66.114 70.0624 66.114C67.3624 66.114 65.5984 64.494 65.5984 62.262ZM75.7504 69.318C74.2204 69.516 72.0424 69.696 70.3324 69.786C68.5504 69.858 66.6424 69.93 65.2924 69.912L64.9864 68.112C66.8404 68.112 68.3884 68.094 70.2064 68.022C72.2044 67.95 74.1484 67.806 75.5704 67.626L75.7504 69.318ZM99.0412 71.406H84.5512V69.75H90.7072V66.654H85.8832V64.98H88.2412L87.7912 61.29L89.8972 61.02L90.2212 64.98H93.4252L94.0012 61.056L96.0352 61.398L95.3692 64.98H97.6372V66.654H92.8132V69.75H99.0412V71.406ZM97.6732 60.264H85.8472V58.59H97.6732V60.264ZM113.625 63.81L112.815 65.52C110.457 65.376 107.937 64.35 107.001 63.036C106.101 64.404 103.761 65.376 101.187 65.484L100.323 63.774C103.023 63.774 105.291 62.82 105.831 61.686H101.187V60.048H112.833V61.686H108.243C108.819 62.838 111.195 63.81 113.625 63.81ZM108.207 70.146H106.119V67.932H99.7654V66.24H114.255V67.932H108.207V70.146ZM112.635 72.99H101.439V68.67H103.563V71.334H112.635V72.99ZM104.337 59.346V57.726H109.683V59.346H104.337ZM127.724 58.248C127.724 60.552 127.544 63.558 127.184 65.592H129.47V67.284H123.242V73.422H121.136V67.284H114.98V65.592H125.168C125.294 64.98 125.402 64.08 125.492 63.126L116.366 63.594L116.114 61.92L125.582 61.542C125.6 60.93 125.618 60.372 125.618 59.904H116.582V58.248H127.724ZM138.906 59.004C138.906 64.404 136.332 68.4 131.544 70.884L130.338 69.3C132.588 68.292 134.514 66.6 135.648 64.458L130.896 64.944C130.788 64.332 130.698 63.72 130.608 63.126L136.35 62.73C136.548 62.1 136.638 61.434 136.692 60.75H131.382V59.004H138.906ZM143.478 73.422H141.354V57.384H143.478V73.422ZM164.267 71.424H149.777V69.75H155.933V66.636H151.523V58.482H153.611V60.966H160.433V58.446H162.539V66.636H158.039V69.75H164.267V71.424ZM160.433 64.962V62.586H153.611V64.962H160.433ZM173.991 69.318C172.299 69.642 169.977 69.822 167.259 69.822H165.567V63.09H170.517V60.426H165.549V58.752H172.659V64.764H167.673V68.094C169.167 68.094 171.687 68.022 173.775 67.626L173.991 69.318ZM178.239 73.422H176.151V65.088H173.721V63.324H176.151V57.384H178.239V73.422ZM195.055 65.286H192.733V73.422H190.645V57.384H192.733V63.54H195.055V65.286ZM188.521 59.022C188.377 63.864 186.253 67.86 181.339 70.524L180.061 68.94C183.553 67.338 185.947 63.972 186.235 60.768H181.033V59.022H188.521ZM208.685 73.422H206.579V57.384H208.685V73.422ZM203.753 59.058C203.627 63.9 201.485 67.86 196.589 70.524L195.293 68.94C198.803 67.338 201.197 63.99 201.485 60.804H196.265V59.058H203.753Z" fill="#2B2C2F"/>
<g filter="url(#filter0_d_36_638)">
<path d="M320.418 65.9999C320.971 65.9999 321.418 65.5522 321.418 64.9999V52.5453C321.418 52.2109 321.251 51.8987 320.973 51.7132L316.356 48.6355C316.036 48.4217 315.621 48.4113 315.29 48.6085L310.07 51.7192C309.767 51.8996 309.582 52.2259 309.582 52.5782V64.9999C309.582 65.5522 310.03 65.9999 310.582 65.9999H320.418Z" fill="#9B9B9B"/>
<path d="M330.575 4H300.423C299.71 3.99913 299.005 4.14017 298.346 4.41505C297.688 4.68994 297.09 5.09326 296.586 5.60192C296.083 6.11058 295.683 6.71459 295.411 7.37935C295.139 8.04412 294.999 8.75658 295 9.47593V46.5364C295 47.9887 295.571 49.3816 296.588 50.4085C297.605 51.4354 298.984 52.0124 300.423 52.0124H330.577C332.016 52.0124 333.395 51.4354 334.412 50.4085C335.429 49.3816 336 47.9887 336 46.5364V9.47593C335.999 8.02342 335.428 6.6306 334.41 5.60373C333.393 4.57686 332.014 4 330.575 4Z" fill="#FFA263"/>
<path d="M303.004 9.42725H327.997C328.243 9.42725 328.479 9.52593 328.653 9.70158C328.827 9.87724 328.925 10.1155 328.925 10.3639C328.925 10.6123 328.827 10.8505 328.653 11.0262C328.479 11.2018 328.243 11.3005 327.997 11.3005H303C302.754 11.3005 302.518 11.2018 302.344 11.0262C302.17 10.8505 302.072 10.6123 302.072 10.3639C302.072 10.1155 302.17 9.87724 302.344 9.70158C302.518 9.52593 302.754 9.42725 303 9.42725M303.916 28.0029H327.085C327.573 28.0035 328.041 28.1997 328.386 28.5485C328.731 28.8972 328.925 29.37 328.925 29.8629V42.8253C328.925 43.3186 328.731 43.7917 328.385 44.1405C328.04 44.4894 327.571 44.6853 327.083 44.6853H303.919C303.43 44.6853 302.962 44.4894 302.616 44.1405C302.271 43.7917 302.077 43.3186 302.077 42.8253V29.8629C302.077 29.3696 302.271 28.8965 302.616 28.5477C302.962 28.1989 303.43 28.0029 303.919 28.0029" fill="#FF6A25"/>
<path d="M324.742 14.1147H323.345L314.754 19.894L307.719 14.1147H306.257C305.148 14.1147 304.084 14.5597 303.299 15.3519C302.515 16.144 302.074 17.2183 302.074 18.3385C302.074 19.4587 302.515 20.533 303.299 21.3251C304.084 22.1172 305.148 22.5622 306.257 22.5622H324.742C325.834 22.537 326.874 22.0809 327.638 21.2915C328.402 20.5022 328.83 19.4422 328.83 18.3385C328.83 17.2347 328.402 16.1748 327.638 15.3855C326.874 14.5961 325.834 14.14 324.742 14.1147Z" fill="#321B41"/>
<path d="M309.927 14.1147H321.884L317.804 32.8697H305.963L309.927 14.1147Z" fill="#E1D8EC"/>
<path d="M308.457 14.1147H312.262L315.036 20.7997C315.277 21.3842 315.117 22.1327 314.621 22.7172L306.019 32.8697H305.197C304.758 32.8697 304.48 32.5132 304.578 32.0726L308.457 14.1147Z" fill="#CDC4D6"/>
<path d="M319.564 14.1147H323.369L319.49 32.0704C319.437 32.2914 319.315 32.489 319.14 32.633C318.966 32.7769 318.75 32.8593 318.525 32.8675H317.703L313.863 23.6118L314.62 22.7172C315.115 22.1327 315.278 21.3842 315.034 20.7997L314.661 19.9029L319.564 14.1147Z" fill="#F3EEF8"/>
<path d="M307.67 14.1147H311.474L314.248 20.8019C314.489 21.3842 314.329 22.1349 313.833 22.7195L305.231 32.872H304.409C303.971 32.872 303.694 32.5132 303.791 32.0726L307.67 14.1147Z" fill="#F3EEF8"/>
</g>
<g filter="url(#filter1_d_36_638)">
<path d="M276.808 33.9287C276.945 33.2928 277.564 32.889 278.193 33.027C278.821 33.1651 279.219 33.7923 279.083 34.4282L279.085 34.423L279.083 34.4363C279.08 34.4577 279.073 34.4973 279.067 34.5519C279.055 34.6617 279.043 34.831 279.047 35.0428C279.055 35.4693 279.13 36.0468 279.394 36.6557C279.469 36.8297 279.586 37.0114 279.734 37.1966C279.989 37.1888 280.244 37.1839 280.5 37.1839C280.536 37.1839 280.572 37.1849 280.608 37.1851C280.683 36.7559 280.802 36.3345 280.984 35.9485C281.43 35.0054 282.027 34.3308 282.51 33.8919C282.752 33.6717 282.97 33.5069 283.133 33.3942C283.214 33.3378 283.283 33.2941 283.335 33.2624C283.361 33.2466 283.382 33.2332 283.4 33.2233C283.408 33.2184 283.416 33.2141 283.422 33.2106C283.425 33.2089 283.428 33.2074 283.43 33.206C283.431 33.2054 283.434 33.2043 283.434 33.2043L283.435 33.2031L283.436 33.2025C283.436 33.2025 283.437 33.2025 283.87 34.0081L283.437 33.2025C284.002 32.8917 284.709 33.1032 285.016 33.675C285.323 34.2467 285.114 34.9614 284.549 35.2724L284.55 35.2729L284.554 35.2706L284.543 35.2775C284.525 35.2888 284.491 35.3099 284.446 35.3408C284.356 35.4032 284.221 35.5043 284.065 35.6458C283.752 35.9308 283.369 36.3656 283.085 36.9653C283.037 37.0667 282.997 37.1809 282.963 37.3059C295.029 38.5051 304.582 48.3335 305.467 57.8533C316.092 64.9958 323 76.0851 323 86.6747C323 104.25 303.972 101.895 280.5 101.895C257.028 101.895 238 104.25 238 86.6747C238 76.0853 244.908 64.9958 255.533 57.8533C256.396 48.5599 265.522 38.9743 277.181 37.4078C276.831 36.5234 276.731 35.7017 276.719 35.0894C276.712 34.7597 276.731 34.4852 276.753 34.2867C276.764 34.1874 276.776 34.1064 276.786 34.0461C276.791 34.0159 276.796 33.9904 276.799 33.9707C276.801 33.961 276.803 33.9525 276.804 33.9454C276.805 33.9421 276.806 33.9389 276.806 33.9362C276.806 33.9349 276.807 33.9334 276.807 33.9322V33.9293C276.807 33.9293 276.808 33.9287 277.694 34.1232L276.808 33.9287Z" fill="white"/>
<path d="M279.791 53.7012C279.907 53.5974 280.535 53.5974 280.652 53.7012C281.022 54.0303 281.672 54.8587 282.264 55.3849C282.6 55.6841 283.471 55.8349 284.35 55.9097C284.798 55.9482 284.892 56.9606 284.459 57.1629C283.182 57.7602 281.575 58.3552 280.273 58.3368C279.032 58.3192 277.51 57.7463 276.286 57.1693C275.853 56.9654 275.948 55.9425 276.396 55.8981C277.191 55.8198 277.962 55.6698 278.282 55.3849C278.874 54.8587 279.421 54.0303 279.791 53.7012Z" fill="#2A7EFF"/>
<path d="M286.968 52.7987C286.931 51.3797 286.381 50.2294 285.739 50.2294C285.096 50.2294 284.605 51.3797 284.641 52.7987C284.678 54.2176 285.228 55.3679 285.87 55.3679C286.512 55.3679 287.004 54.2176 286.968 52.7987Z" fill="#373737"/>
<path d="M275.906 52.7987C275.87 51.3797 275.319 50.2294 274.677 50.2294C274.035 50.2294 273.543 51.3797 273.58 52.7987C273.616 54.2176 274.166 55.3679 274.808 55.3679C275.451 55.3679 275.942 54.2176 275.906 52.7987Z" fill="#373737"/>
<g filter="url(#filter2_ii_36_638)">
<path d="M304.605 58.2717C306.664 55.5831 311.021 58.2879 315.686 61.9475C320.352 65.607 323.558 68.8357 321.499 71.5243C319.44 74.2129 313.989 73.426 309.324 69.7664C304.659 66.1068 302.546 60.9603 304.605 58.2717Z" fill="#FF5E14"/>
</g>
<g filter="url(#filter3_ii_36_638)">
<path d="M247.117 53.3312C252.384 56.0414 256.66 58.8736 255.106 61.8856C253.551 64.8976 248.021 65.1425 242.754 62.4323C237.487 59.722 234.477 55.083 236.032 52.0709C237.586 49.0587 241.85 50.6208 247.117 53.3312Z" fill="#FF5E14"/>
</g>
</g>
<defs>
<filter id="filter0_d_36_638" x="291" y="0" width="49" height="70" filterUnits="userSpaceOnUse" color-interpolation-filters="sRGB">
<feFlood flood-opacity="0" result="BackgroundImageFix"/>
<feColorMatrix in="SourceAlpha" type="matrix" values="0 0 0 0 0 0 0 0 0 0 0 0 0 0 0 0 0 0 127 0" result="hardAlpha"/>
<feOffset/>
<feGaussianBlur stdDeviation="2"/>
<feComposite in2="hardAlpha" operator="out"/>
<feColorMatrix type="matrix" values="0 0 0 0 0 0 0 0 0 0 0 0 0 0 0 0 0 0 0.15 0"/>
<feBlend mode="normal" in2="BackgroundImageFix" result="effect1_dropShadow_36_638"/>
<feBlend mode="normal" in="SourceGraphic" in2="effect1_dropShadow_36_638" result="shape"/>
</filter>
<filter id="filter1_d_36_638" x="228.623" y="26" width="101.377" height="83" filterUnits="userSpaceOnUse" color-interpolation-filters="sRGB">
<feFlood flood-opacity="0" result="BackgroundImageFix"/>
<feColorMatrix in="SourceAlpha" type="matrix" values="0 0 0 0 0 0 0 0 0 0 0 0 0 0 0 0 0 0 127 0" result="hardAlpha"/>
<feOffset/>
<feGaussianBlur stdDeviation="3.5"/>
<feComposite in2="hardAlpha" operator="out"/>
<feColorMatrix type="matrix" values="0 0 0 0 0 0 0 0 0 0 0 0 0 0 0 0 0 0 0.15 0"/>
<feBlend mode="normal" in2="BackgroundImageFix" result="effect1_dropShadow_36_638"/>
<feBlend mode="normal" in="SourceGraphic" in2="effect1_dropShadow_36_638" result="shape"/>
</filter>
<filter id="filter2_ii_36_638" x="303.816" y="54.1843" width="18.3184" height="23.9368" filterUnits="userSpaceOnUse" color-interpolation-filters="sRGB">
<feFlood flood-opacity="0" result="BackgroundImageFix"/>
<feBlend mode="normal" in="SourceGraphic" in2="BackgroundImageFix" result="shape"/>
<feColorMatrix in="SourceAlpha" type="matrix" values="0 0 0 0 0 0 0 0 0 0 0 0 0 0 0 0 0 0 127 0" result="hardAlpha"/>
<feOffset dy="-3"/>
<feGaussianBlur stdDeviation="2"/>
<feComposite in2="hardAlpha" operator="arithmetic" k2="-1" k3="1"/>
<feColorMatrix type="matrix" values="0 0 0 0 1 0 0 0 0 0.985109 0 0 0 0 0.900729 0 0 0 0.4 0"/>
<feBlend mode="normal" in2="shape" result="effect1_innerShadow_36_638"/>
<feColorMatrix in="SourceAlpha" type="matrix" values="0 0 0 0 0 0 0 0 0 0 0 0 0 0 0 0 0 0 127 0" result="hardAlpha"/>
<feOffset dy="5"/>
<feGaussianBlur stdDeviation="2.5"/>
<feComposite in2="hardAlpha" operator="arithmetic" k2="-1" k3="1"/>
<feColorMatrix type="matrix" values="0 0 0 0 1 0 0 0 0 0.985109 0 0 0 0 0.900729 0 0 0 0.7 0"/>
<feBlend mode="normal" in2="effect1_innerShadow_36_638" result="effect2_innerShadow_36_638"/>
</filter>
<filter id="filter3_ii_36_638" x="235.623" y="47.4304" width="19.8066" height="20.8845" filterUnits="userSpaceOnUse" color-interpolation-filters="sRGB">
<feFlood flood-opacity="0" result="BackgroundImageFix"/>
<feBlend mode="normal" in="SourceGraphic" in2="BackgroundImageFix" result="shape"/>
<feColorMatrix in="SourceAlpha" type="matrix" values="0 0 0 0 0 0 0 0 0 0 0 0 0 0 0 0 0 0 127 0" result="hardAlpha"/>
<feOffset dy="-3"/>
<feGaussianBlur stdDeviation="2"/>
<feComposite in2="hardAlpha" operator="arithmetic" k2="-1" k3="1"/>
<feColorMatrix type="matrix" values="0 0 0 0 1 0 0 0 0 0.985109 0 0 0 0 0.900729 0 0 0 0.4 0"/>
<feBlend mode="normal" in2="shape" result="effect1_innerShadow_36_638"/>
<feColorMatrix in="SourceAlpha" type="matrix" values="0 0 0 0 0 0 0 0 0 0 0 0 0 0 0 0 0 0 127 0" result="hardAlpha"/>
<feOffset dy="4"/>
<feGaussianBlur stdDeviation="2.5"/>
<feComposite in2="hardAlpha" operator="arithmetic" k2="-1" k3="1"/>
<feColorMatrix type="matrix" values="0 0 0 0 1 0 0 0 0 0.985109 0 0 0 0 0.900729 0 0 0 0.7 0"/>
<feBlend mode="normal" in2="effect1_innerShadow_36_638" result="effect2_innerShadow_36_638"/>
</filter>
<linearGradient id="paint0_linear_36_638" x1="177" y1="14" x2="177" y2="99" gradientUnits="userSpaceOnUse">
<stop offset="0.774038" stop-color="white"/>
<stop offset="1" stop-color="white" stop-opacity="0.7"/>
</linearGradient>
</defs>
</svg>
