<svg width="353" height="100" viewBox="0 0 353 100" fill="none" xmlns="http://www.w3.org/2000/svg">
<rect width="353" height="85" rx="20" fill="url(#paint0_linear_36_639)"/>
<path d="M44.43 22.632V27.364H46.026V28.722H44.43V35.106H42.834V22.632H44.43ZM36.24 30.584C36.744 30.584 37.43 30.542 38.018 30.374L38.186 31.592C37.234 31.816 36.296 31.872 34.644 31.872V23.892H37.864V25.18H36.24V30.584ZM40.118 30.584C40.818 30.598 41.294 30.57 42.12 30.388L42.274 31.606C41.21 31.844 40.23 31.886 38.494 31.886V23.892H41.868V25.18H40.118V30.584ZM57.5233 29.744H46.2533V28.442H57.5233V29.744ZM56.5993 27.448H52.1753V23.108H56.5013V24.41H53.8413V26.146H56.5993V27.448ZM48.9133 26.188C49.5293 26.188 50.7053 26.104 51.4893 25.894L51.7133 27.182C50.5793 27.448 48.9973 27.546 47.2613 27.532V23.108H51.3493V24.41H48.9133V26.188ZM56.7253 33.93L55.9973 35.218C54.2893 34.966 52.4973 33.874 51.8813 32.768C51.3353 33.874 49.5853 34.98 47.7373 35.218L47.0093 33.888C49.2213 33.678 51.0413 32.544 51.0413 30.878V30.5H52.7213V30.878C52.7213 32.502 54.6953 33.65 56.7253 33.93ZM65.2266 26.146H57.9886V24.872H65.2266V26.146ZM64.6246 28.792C64.6246 30.122 63.3646 31.06 61.6846 31.06C59.9766 31.06 58.7166 30.122 58.7166 28.792C58.7166 27.476 59.9626 26.496 61.6846 26.496C63.3646 26.496 64.6246 27.476 64.6246 28.792ZM59.8366 24.284V23.038H63.5466V24.284H59.8366ZM67.8446 22.632V26.664H69.5806V28.022H67.8446V31.9H66.2066V22.632H67.8446ZM68.1386 34.812H59.6126V31.522H61.2646V33.51H68.1386V34.812ZM60.3406 28.792C60.3406 29.352 60.9566 29.744 61.6846 29.744C62.3986 29.744 63.0286 29.352 63.0286 28.792C63.0286 28.204 62.3986 27.798 61.6846 27.798C60.9566 27.798 60.3406 28.204 60.3406 28.792ZM80.4576 26.146H73.2196V24.872H80.4576V26.146ZM79.8556 28.792C79.8556 30.122 78.5956 31.06 76.9156 31.06C75.2076 31.06 73.9476 30.122 73.9476 28.792C73.9476 27.476 75.1936 26.496 76.9156 26.496C78.5956 26.496 79.8556 27.476 79.8556 28.792ZM75.0676 24.284V23.038H78.7776V24.284H75.0676ZM83.0756 22.632V26.664H84.8116V28.022H83.0756V31.9H81.4376V22.632H83.0756ZM83.3696 34.812H74.8436V31.522H76.4956V33.51H83.3696V34.812ZM75.5716 28.792C75.5716 29.352 76.1876 29.744 76.9156 29.744C77.6296 29.744 78.2596 29.352 78.2596 28.792C78.2596 28.204 77.6296 27.798 76.9156 27.798C76.1876 27.798 75.5716 28.204 75.5716 28.792ZM94.9089 22.632V27.42H96.6029V28.778H94.9089V35.106H93.2429V22.632H94.9089ZM89.7429 30.584V25.096H87.0829V30.584H89.7429ZM91.3809 23.78V31.886H85.4589V23.78H91.3809ZM107.204 35.106H105.552V22.632H107.204V35.106ZM99.3501 30.724C101.198 30.724 103.046 30.654 104.432 30.346C104.516 30.794 104.572 31.228 104.642 31.69C103.438 31.984 101.38 32.11 98.9721 32.11C98.5521 32.11 98.1461 32.096 97.7261 32.096V23.78H103.396V25.082H99.3501V30.724ZM120.087 29.534H108.817V28.33H120.087V29.534ZM118.939 34.966H110.245V32.068H117.021V31.41H110.189V30.234H118.645V33.146H111.883V33.79H118.939V34.966ZM118.841 27.672H110.301V24.844H116.923V24.186H110.273V23.024H118.575V25.866H111.939V26.51H118.841V27.672ZM135.318 33.552H124.048V32.25H128.836V29.828H125.406V23.486H127.03V25.418H132.336V23.458H133.974V29.828H130.474V32.25H135.318V33.552ZM132.336 28.526V26.678H127.03V28.526H132.336ZM146.48 35.106H144.926V28.862H143.722V34.532H142.196V22.856H143.722V27.546H144.926V22.632H146.48V35.106ZM141.692 31.438C141.034 31.634 139.032 31.802 137.548 31.802H136.428V24.088H138.038V30.444C139.256 30.444 140.712 30.346 141.482 30.122C141.538 30.57 141.622 30.99 141.692 31.438ZM157.907 26.678C157.907 28.582 156.101 29.954 153.357 29.954C150.627 29.954 148.821 28.582 148.821 26.678C148.821 24.76 150.627 23.36 153.357 23.36C156.101 23.36 157.907 24.76 157.907 26.678ZM158.985 33.552H147.715V32.236H150.235V30.164L151.873 30.234V32.236H154.799V30.234L156.437 30.164V32.236H158.985V33.552ZM156.227 26.678C156.227 25.544 155.093 24.732 153.357 24.732C151.621 24.732 150.501 25.544 150.501 26.678C150.501 27.798 151.621 28.61 153.357 28.61C155.079 28.61 156.227 27.798 156.227 26.678Z" fill="#FF5E14"/>
<path d="M49.03 57.406H34.54V55.75H40.696V52.654H35.872V50.98H38.23L37.78 47.29L39.886 47.02L40.21 50.98H43.414L43.99 47.056L46.024 47.398L45.358 50.98H47.626V52.654H42.802V55.75H49.03V57.406ZM47.662 46.264H35.836V44.59H47.662V46.264ZM63.6142 49.81L62.8042 51.52C60.4462 51.376 57.9262 50.35 56.9902 49.036C56.0902 50.404 53.7502 51.376 51.1762 51.484L50.3122 49.774C53.0122 49.774 55.2802 48.82 55.8202 47.686H51.1762V46.048H62.8222V47.686H58.2322C58.8082 48.838 61.1842 49.81 63.6142 49.81ZM58.1962 56.146H56.1082V53.932H49.7542V52.24H64.2442V53.932H58.1962V56.146ZM62.6242 58.99H51.4282V54.67H53.5522V57.334H62.6242V58.99ZM54.3262 45.346V43.726H59.6722V45.346H54.3262ZM77.7124 44.248C77.7124 46.552 77.5324 49.558 77.1724 51.592H79.4584V53.284H73.2304V59.422H71.1244V53.284H64.9684V51.592H75.1564C75.2824 50.98 75.3904 50.08 75.4804 49.126L66.3544 49.594L66.1024 47.92L75.5704 47.542C75.5884 46.93 75.6064 46.372 75.6064 45.904H66.5704V44.248H77.7124ZM88.8947 45.004C88.8947 50.404 86.3207 54.4 81.5327 56.884L80.3267 55.3C82.5767 54.292 84.5027 52.6 85.6367 50.458L80.8847 50.944C80.7767 50.332 80.6867 49.72 80.5967 49.126L86.3387 48.73C86.5367 48.1 86.6267 47.434 86.6807 46.75H81.3707V45.004H88.8947ZM93.4667 59.422H91.3427V43.384H93.4667V59.422ZM100.323 46.39V44.662H108.783V46.39H105.705C105.741 48.838 107.433 50.62 109.269 51.214L108.117 52.87C106.893 52.42 105.327 51.088 104.643 49.612C104.157 51.178 102.465 52.78 100.917 53.32L99.6754 51.664C101.997 50.818 103.545 48.874 103.545 46.444V46.39H100.323ZM113.031 55.012H110.925V49.342H108.513V47.65H110.925V43.384H113.031V55.012ZM113.373 58.99H102.303V53.932H104.427V57.334H113.373V58.99ZM124.214 48.874H114.908V47.2H124.214V48.874ZM117.158 46.084V44.428H122.108V46.084H117.158ZM127.526 43.384V49.882H129.758V51.628H127.526V59.422H125.402V43.384H127.526ZM115.7 52.888C115.7 50.926 117.266 49.432 119.57 49.432C121.874 49.432 123.44 50.872 123.44 52.888C123.44 54.85 121.874 56.344 119.57 56.344C117.266 56.344 115.7 54.922 115.7 52.888ZM117.752 52.888C117.752 53.932 118.508 54.634 119.57 54.634C120.74 54.634 121.388 53.932 121.388 52.888C121.388 51.826 120.614 51.124 119.57 51.124C118.526 51.124 117.752 51.826 117.752 52.888ZM143.46 59.422H141.354V43.384H143.46V59.422ZM138.528 45.058C138.402 49.9 136.26 53.86 131.364 56.524L130.068 54.94C133.578 53.338 135.972 49.99 136.26 46.804H131.04V45.058H138.528Z" fill="#2B2C2F"/>
<g filter="url(#filter0_d_36_639)">
<path d="M286.72 24.3235C271.894 24.3237 259.75 35.9486 258.693 47.1838C246.766 55.0824 239.011 67.3429 239.011 79.053C239.011 98.4881 260.371 95.8831 286.72 95.8831C313.069 95.8831 334.429 98.4883 334.43 79.053C334.43 67.3432 326.675 55.0824 314.748 47.1838C313.691 35.9485 301.546 24.3235 286.72 24.3235Z" fill="white"/>
<ellipse cx="1.30568" cy="2.84228" rx="1.30568" ry="2.84228" transform="matrix(-0.995256 -0.0972941 0.123646 -0.992326 273.719 43.9302)" fill="#373737"/>
<ellipse cx="1.30568" cy="2.84228" rx="1.30568" ry="2.84228" transform="matrix(-0.995256 -0.0972941 0.123646 -0.992326 286.074 45.1467)" fill="#373737"/>
<g filter="url(#filter1_ii_36_639)">
<path d="M305.351 48.8097C302.257 50.9627 302.824 57.0995 306.616 62.5166C310.409 67.9337 315.991 70.5798 319.085 68.4268C322.179 66.2737 319.807 61.7973 316.015 56.3802C312.222 50.9631 308.445 46.6567 305.351 48.8097Z" fill="#FF5E14"/>
</g>
<g filter="url(#filter2_ii_36_639)">
<path d="M259.662 44.3731C261.973 47.3463 259.601 53.0373 254.364 57.0842C249.127 61.1312 243.008 62.0016 240.696 59.0284C238.385 56.0551 241.985 52.4848 247.222 48.4379C252.459 44.3909 257.35 41.3999 259.662 44.3731Z" fill="#FF5E14"/>
</g>
<path d="M284.996 23.5197L283.193 24.3847L284.996 23.5197ZM281.845 22.8237C280.874 22.2973 280.513 21.0834 281.04 20.1123C281.566 19.1412 282.78 18.7808 283.751 19.3071L282.798 21.0654L281.845 22.8237ZM284.996 29.0583C283.061 28.5533 283.061 28.5537 283.061 28.554C283.061 28.5541 283.061 28.5544 283.061 28.5546C283.06 28.555 283.06 28.5553 283.06 28.5555C283.06 28.5561 283.06 28.5564 283.06 28.5565C283.06 28.5567 283.06 28.5561 283.061 28.5547C283.061 28.5518 283.063 28.5457 283.065 28.5366C283.07 28.5182 283.077 28.4877 283.087 28.4461C283.106 28.3627 283.134 28.2362 283.166 28.0762C283.231 27.7538 283.307 27.3088 283.358 26.8166C283.47 25.7156 283.402 24.8215 283.193 24.3847L284.996 23.5197L286.799 22.6546C287.526 24.1691 287.458 26.0443 287.337 27.2248C287.27 27.8734 287.171 28.4471 287.089 28.8583C287.048 29.0652 287.01 29.2341 286.982 29.3546C286.968 29.4149 286.956 29.4633 286.948 29.4984C286.943 29.516 286.94 29.5303 286.937 29.5412C286.936 29.5466 286.934 29.5512 286.933 29.5548C286.933 29.5567 286.933 29.5583 286.932 29.5597C286.932 29.5604 286.932 29.561 286.932 29.5616C286.932 29.5619 286.932 29.5623 286.932 29.5625C286.931 29.5628 286.931 29.5632 284.996 29.0583ZM284.996 23.5197L283.193 24.3847C282.924 23.8232 282.558 23.413 282.256 23.143C282.107 23.0094 281.98 22.9163 281.901 22.8621C281.861 22.8353 281.834 22.8187 281.824 22.8123C281.818 22.8091 281.817 22.8084 281.821 22.8103C281.822 22.8113 281.825 22.8129 281.829 22.8151C281.831 22.8162 281.833 22.8175 281.836 22.8189C281.837 22.8197 281.839 22.8204 281.84 22.8212C281.841 22.8216 281.842 22.822 281.842 22.8224C281.843 22.8226 281.843 22.823 281.844 22.8231C281.844 22.8234 281.845 22.8237 282.798 21.0654C283.751 19.3071 283.752 19.3075 283.752 19.3078C283.752 19.3079 283.753 19.3083 283.753 19.3085C283.754 19.309 283.755 19.3094 283.756 19.3099C283.758 19.3109 283.76 19.3119 283.762 19.313C283.766 19.3152 283.77 19.3176 283.775 19.3202C283.784 19.3253 283.795 19.3313 283.807 19.3382C283.831 19.3519 283.86 19.369 283.894 19.3895C283.962 19.4306 284.049 19.4858 284.152 19.5558C284.357 19.6952 284.626 19.8956 284.924 20.1624C285.517 20.6928 286.25 21.5098 286.799 22.6546L284.996 23.5197Z" fill="white"/>
<path d="M289.159 24.2626L287.325 23.4604L289.159 24.2626ZM287.63 21.4229C287.395 20.345 288.081 19.2818 289.162 19.0482C290.243 18.8147 291.31 19.4992 291.545 20.5771L289.587 21L287.63 21.4229ZM284.953 27.8802C284.068 26.0882 284.068 26.0883 284.067 26.0885C284.067 26.0885 284.067 26.0887 284.067 26.0888C284.066 26.0889 284.066 26.0891 284.066 26.0892C284.065 26.0894 284.065 26.0896 284.065 26.0896C284.065 26.0897 284.065 26.0894 284.067 26.0888C284.069 26.0874 284.075 26.0846 284.083 26.0803C284.1 26.0718 284.129 26.0574 284.166 26.0375C284.243 25.9977 284.357 25.9364 284.5 25.8559C284.787 25.6937 285.175 25.4606 285.582 25.1771C286.492 24.5429 287.129 23.9062 287.325 23.4604L289.159 24.2626L290.994 25.0647C290.319 26.6001 288.852 27.7722 287.877 28.4516C287.341 28.8248 286.841 29.1246 286.476 29.3312C286.292 29.4351 286.139 29.517 286.029 29.5745C285.974 29.6032 285.93 29.6259 285.897 29.6423C285.881 29.6505 285.868 29.6571 285.858 29.6621C285.853 29.6646 285.849 29.6667 285.845 29.6684C285.844 29.6692 285.842 29.67 285.841 29.6706C285.84 29.6709 285.84 29.6712 285.839 29.6715C285.839 29.6716 285.838 29.6718 285.838 29.6719C285.838 29.672 285.838 29.6722 284.953 27.8802ZM289.159 24.2626L287.325 23.4604C287.576 22.8895 287.648 22.3453 287.656 21.9413C287.66 21.7415 287.648 21.5849 287.637 21.4897C287.632 21.4425 287.627 21.4115 287.625 21.3993C287.624 21.3932 287.624 21.392 287.624 21.3958C287.625 21.3977 287.625 21.4008 287.626 21.4054C287.627 21.4076 287.627 21.4102 287.628 21.4131C287.628 21.4146 287.629 21.4161 287.629 21.4178C287.629 21.4186 287.629 21.4194 287.63 21.4203C287.63 21.4207 287.63 21.4213 287.63 21.4216C287.63 21.4222 287.63 21.4229 289.587 21C291.545 20.5771 291.545 20.5778 291.545 20.5785C291.545 20.5787 291.545 20.5794 291.545 20.5799C291.546 20.5809 291.546 20.5818 291.546 20.5828C291.546 20.5848 291.547 20.5869 291.547 20.5892C291.548 20.5936 291.549 20.5984 291.55 20.6036C291.552 20.614 291.555 20.626 291.557 20.6395C291.563 20.6665 291.569 20.6998 291.575 20.739C291.589 20.8172 291.604 20.9194 291.618 21.0426C291.646 21.2884 291.669 21.6227 291.661 22.022C291.646 22.8161 291.504 23.9032 290.994 25.0647L289.159 24.2626Z" fill="white"/>
<path d="M277.908 43.0765C277.789 42.9495 277.088 42.8806 276.946 42.982C276.497 43.3036 275.68 44.1439 274.962 44.6581C274.554 44.9505 273.985 45.109 272.995 45.0949C272.49 45.0877 272.533 46.4131 272.995 46.6834C274.357 47.4808 275.408 48.0026 276.865 48.1252C278.254 48.242 280.016 47.7784 281.447 47.2777C281.952 47.1009 281.957 45.9648 281.461 45.867C280.582 45.6936 279.737 45.4436 279.411 45.0949C278.807 44.451 278.286 43.4793 277.908 43.0765Z" fill="#2A7EFF"/>
</g>
<g clip-path="url(#clip0_36_639)">
<path d="M288.838 66.6868C288.557 67.2447 288.065 67.6678 287.471 67.863C286.877 68.0583 286.23 68.0097 285.673 67.7279L270.948 60.2914C270.39 60.0097 269.967 59.5179 269.772 58.9241C269.577 58.3304 269.625 57.6835 269.907 57.1256L274.688 47.6599C274.969 47.102 275.461 46.6789 276.055 46.4837C276.649 46.2884 277.296 46.337 277.853 46.6188L292.578 54.0552C293.136 54.337 293.559 54.8288 293.754 55.4225C293.949 56.0163 293.901 56.6632 293.619 57.2211L288.838 66.6868Z" fill="#FFF0CD"/>
<path d="M278.678 55.3748L269.725 58.3192C269.703 58.3273 269.688 58.343 269.669 58.3516C269.696 58.7417 269.82 59.1163 270.029 59.447C270.05 59.4426 270.071 59.4464 270.092 59.4394L279.047 56.4945C279.12 56.4703 279.188 56.4318 279.247 56.3813C279.306 56.3307 279.354 56.2692 279.389 56.2C279.423 56.1309 279.444 56.0556 279.45 55.9784C279.456 55.9012 279.446 55.8236 279.422 55.7501C279.398 55.6766 279.359 55.6086 279.309 55.5499C279.258 55.4913 279.197 55.4432 279.128 55.4083C279.058 55.3735 278.983 55.3526 278.906 55.3468C278.829 55.3411 278.751 55.3506 278.678 55.3748ZM287.993 67.6063C287.99 67.586 287.993 67.5644 287.986 67.5431L285.042 58.589C285.018 58.5155 284.979 58.4474 284.929 58.3888C284.878 58.3301 284.817 58.2819 284.748 58.247C284.679 58.2121 284.603 58.1911 284.526 58.1853C284.449 58.1795 284.372 58.1889 284.298 58.2131C284.225 58.2372 284.156 58.2756 284.098 58.3261C284.039 58.3765 283.991 58.438 283.956 58.5071C283.921 58.5761 283.9 58.6514 283.894 58.7285C283.889 58.8057 283.898 58.8833 283.922 58.9568L286.866 67.9111C286.873 67.9317 286.889 67.947 286.898 67.9666C287.287 67.9391 287.664 67.8153 287.993 67.6063Z" fill="#FFA263"/>
<path d="M292.578 54.0552L277.853 46.6188C277.296 46.337 276.649 46.2884 276.055 46.4837C275.461 46.6789 274.969 47.102 274.688 47.6599L274.414 48.2015L278.203 59.6828C278.443 60.404 278.958 61.0012 279.637 61.3438C280.315 61.6864 281.101 61.7467 281.824 61.5114L293.351 57.7517L293.619 57.2211C293.901 56.6632 293.949 56.0163 293.754 55.4225C293.559 54.8288 293.136 54.337 292.578 54.0552Z" fill="#FFA263"/>
<path d="M292.578 54.0551L277.853 46.6186C277.457 46.4194 277.013 46.3364 276.571 46.3792C276.13 46.4219 275.709 46.5887 275.359 46.8602L279.202 58.5474C279.298 58.8414 279.452 59.1135 279.654 59.3481C279.856 59.5827 280.102 59.7753 280.378 59.9148C280.654 60.0543 280.955 60.138 281.264 60.1612C281.572 60.1844 281.883 60.1466 282.177 60.0499L293.864 56.2063C293.875 55.7629 293.759 55.3256 293.532 54.9449C293.304 54.5643 292.973 54.2558 292.578 54.0551Z" fill="#FFEBB5"/>
<path d="M285.537 53.9988L285.684 54.0776C286.022 54.2703 286.325 54.5207 286.578 54.8179C286.867 55.1577 287.087 55.5523 287.223 55.9774C287.36 56.4025 287.41 56.8505 287.375 57.2957C287.339 57.7409 287.217 58.1751 287.016 58.5739C286.897 58.8086 286.756 59.0167 286.605 59.2011C286.6 59.2083 286.594 59.2153 286.589 59.2225L286.587 59.2238C285.806 60.2727 284.559 61.0098 283.353 61.4604C282.123 61.9201 280.769 62.1454 279.701 62.0226L279.335 61.9809L279.084 61.7109C278.351 60.9242 277.728 59.7003 277.368 58.4372C277.012 57.1902 276.866 55.7362 277.258 54.4782C277.317 54.249 277.399 54.0122 277.518 53.777C277.924 52.972 278.631 52.3569 279.485 52.0694C280.34 51.7816 281.274 51.8457 282.079 52.2523L282.256 52.3487C282.664 52.5864 283.016 52.9081 283.292 53.2927C283.379 53.4154 283.457 53.5442 283.528 53.6767C283.677 53.6545 283.827 53.6408 283.979 53.6388C284.519 53.6315 285.053 53.7548 285.536 53.9984L285.537 53.9988Z" fill="#FF6A25" stroke="white" stroke-width="2"/>
</g>
<defs>
<filter id="filter0_d_36_639" x="234.002" y="15.0024" width="104.428" height="84.9976" filterUnits="userSpaceOnUse" color-interpolation-filters="sRGB">
<feFlood flood-opacity="0" result="BackgroundImageFix"/>
<feColorMatrix in="SourceAlpha" type="matrix" values="0 0 0 0 0 0 0 0 0 0 0 0 0 0 0 0 0 0 127 0" result="hardAlpha"/>
<feOffset/>
<feGaussianBlur stdDeviation="2"/>
<feComposite in2="hardAlpha" operator="out"/>
<feColorMatrix type="matrix" values="0 0 0 0 0 0 0 0 0 0 0 0 0 0 0 0 0 0 0.15 0"/>
<feBlend mode="normal" in2="BackgroundImageFix" result="effect1_dropShadow_36_639"/>
<feBlend mode="normal" in="SourceGraphic" in2="effect1_dropShadow_36_639" result="shape"/>
</filter>
<filter id="filter1_ii_36_639" x="303.355" y="45.2437" width="17.1523" height="28.9321" filterUnits="userSpaceOnUse" color-interpolation-filters="sRGB">
<feFlood flood-opacity="0" result="BackgroundImageFix"/>
<feBlend mode="normal" in="SourceGraphic" in2="BackgroundImageFix" result="shape"/>
<feColorMatrix in="SourceAlpha" type="matrix" values="0 0 0 0 0 0 0 0 0 0 0 0 0 0 0 0 0 0 127 0" result="hardAlpha"/>
<feOffset dy="-3"/>
<feGaussianBlur stdDeviation="2"/>
<feComposite in2="hardAlpha" operator="arithmetic" k2="-1" k3="1"/>
<feColorMatrix type="matrix" values="0 0 0 0 1 0 0 0 0 0.985109 0 0 0 0 0.900729 0 0 0 0.4 0"/>
<feBlend mode="normal" in2="shape" result="effect1_innerShadow_36_639"/>
<feColorMatrix in="SourceAlpha" type="matrix" values="0 0 0 0 0 0 0 0 0 0 0 0 0 0 0 0 0 0 127 0" result="hardAlpha"/>
<feOffset dy="5"/>
<feGaussianBlur stdDeviation="2.5"/>
<feComposite in2="hardAlpha" operator="arithmetic" k2="-1" k3="1"/>
<feColorMatrix type="matrix" values="0 0 0 0 1 0 0 0 0 0.985109 0 0 0 0 0.900729 0 0 0 0.7 0"/>
<feBlend mode="normal" in2="effect1_innerShadow_36_639" result="effect2_innerShadow_36_639"/>
</filter>
<filter id="filter2_ii_36_639" x="239.982" y="40.1707" width="20.5645" height="25.6233" filterUnits="userSpaceOnUse" color-interpolation-filters="sRGB">
<feFlood flood-opacity="0" result="BackgroundImageFix"/>
<feBlend mode="normal" in="SourceGraphic" in2="BackgroundImageFix" result="shape"/>
<feColorMatrix in="SourceAlpha" type="matrix" values="0 0 0 0 0 0 0 0 0 0 0 0 0 0 0 0 0 0 127 0" result="hardAlpha"/>
<feOffset dy="-3"/>
<feGaussianBlur stdDeviation="2"/>
<feComposite in2="hardAlpha" operator="arithmetic" k2="-1" k3="1"/>
<feColorMatrix type="matrix" values="0 0 0 0 1 0 0 0 0 0.985109 0 0 0 0 0.900729 0 0 0 0.4 0"/>
<feBlend mode="normal" in2="shape" result="effect1_innerShadow_36_639"/>
<feColorMatrix in="SourceAlpha" type="matrix" values="0 0 0 0 0 0 0 0 0 0 0 0 0 0 0 0 0 0 127 0" result="hardAlpha"/>
<feOffset dy="5"/>
<feGaussianBlur stdDeviation="2.5"/>
<feComposite in2="hardAlpha" operator="arithmetic" k2="-1" k3="1"/>
<feColorMatrix type="matrix" values="0 0 0 0 1 0 0 0 0 0.985109 0 0 0 0 0.900729 0 0 0 0.7 0"/>
<feBlend mode="normal" in2="effect1_innerShadow_36_639" result="effect2_innerShadow_36_639"/>
</filter>
<linearGradient id="paint0_linear_36_639" x1="177" y1="-3.74374e-06" x2="177" y2="85" gradientUnits="userSpaceOnUse">
<stop offset="0.774038" stop-color="white"/>
<stop offset="1" stop-color="white" stop-opacity="0.7"/>
</linearGradient>
<clipPath id="clip0_36_639">
<rect width="21.2088" height="21.2088" fill="white" transform="translate(277.078 42.927) rotate(26.7958)"/>
</clipPath>
</defs>
</svg>
