<svg width="15" height="15" viewBox="0 0 15 15" fill="none" xmlns="http://www.w3.org/2000/svg">
<g clip-path="url(#clip0_48_3661)">
<path fill-rule="evenodd" clip-rule="evenodd" d="M10.7358 1.28748C9.28603 0.588354 7.6489 0.377467 6.06932 0.686378C4.48975 0.995289 3.05268 1.80739 1.97314 3.00115C0.893602 4.19491 0.229648 5.70615 0.0806304 7.30874C-0.0683873 8.91132 0.305544 10.5191 1.14647 11.8914L0.0825415 14.7253C0.0492812 14.8139 0.0400659 14.9097 0.0558325 15.003C0.0715992 15.0962 0.111785 15.1837 0.172305 15.2564C0.232825 15.3291 0.31152 15.3845 0.400388 15.4169C0.489256 15.4494 0.585128 15.4577 0.678256 15.4411L4.39183 14.7693C6.17962 15.6105 8.22838 15.7071 10.0874 15.0378C11.0079 14.7064 11.8541 14.197 12.5777 13.5385C13.3013 12.8801 13.8881 12.0856 14.3047 11.2003C14.7212 10.3151 14.9593 9.35651 15.0054 8.37926C15.0515 7.40201 14.9046 6.42525 14.5732 5.50476C14.2418 4.58427 13.7324 3.73806 13.0739 3.01446C12.4155 2.29086 11.621 1.70403 10.7358 1.28748Z" fill="#FF6A25"/>
</g>
<defs>
<clipPath id="clip0_48_3661">
<rect width="15" height="15" fill="white"/>
</clipPath>
</defs>
</svg>
