<svg width="17" height="16" viewBox="0 0 17 16" fill="none" xmlns="http://www.w3.org/2000/svg">
<path fill-rule="evenodd" clip-rule="evenodd" d="M8.4999 1.3883C9.426 0.497898 10.6414 0.00221603 11.9039 0C13.2686 0 14.5717 0.58256 15.5253 1.60819C16.4742 2.63464 17.0028 4.0028 17 5.42519C17.0028 6.84757 16.4742 8.21573 15.5253 9.24218C14.8959 9.9191 14.2673 10.6124 13.6355 11.3082C12.3514 12.7228 11.0539 14.1529 9.70572 15.4994L9.70335 15.5026C9.36861 15.8316 8.9223 16.0102 8.4614 15.9996C8.0005 15.989 7.56225 15.79 7.24188 15.446L1.47368 9.24218C-0.491226 7.12774 -0.491226 3.72264 1.47368 1.60901C2.38189 0.621458 3.62826 0.0446357 4.94316 0.0033303C6.25807 -0.0379751 7.53578 0.459557 8.4999 1.3883Z" fill="#FF6A25"/>
</svg>
