<svg width="27" height="27" viewBox="0 0 27 27" fill="none" xmlns="http://www.w3.org/2000/svg">
<path d="M27 20.25C27 21.0456 26.6839 21.8087 26.1213 22.3713C25.5587 22.9339 24.7956 23.25 24 23.25H3C2.20435 23.25 1.44129 22.9339 0.87868 22.3713C0.316071 21.8087 0 21.0456 0 20.25V6.75C0 5.95435 0.316071 5.19129 0.87868 4.62868C1.44129 4.06607 2.20435 3.75 3 3.75H24C24.7956 3.75 25.5587 4.06607 26.1213 4.62868C26.6839 5.19129 27 5.95435 27 6.75V20.25Z" fill="#FFF0CD"/>
<path d="M8.96186 13.227L0.477861 21.711C0.457611 21.7328 0.450111 21.759 0.432861 21.78C0.687861 22.2075 1.04336 22.5623 1.47086 22.818C1.49261 22.8008 1.51811 22.7933 1.53836 22.773L10.0239 14.2875C10.0935 14.2178 10.1487 14.135 10.1864 14.0439C10.224 13.9529 10.2433 13.8553 10.2433 13.7567C10.2432 13.6582 10.2237 13.5606 10.186 13.4696C10.1482 13.3786 10.0928 13.2959 10.0231 13.2263C9.95338 13.1566 9.87062 13.1014 9.77954 13.0638C9.68847 13.0261 9.59088 13.0068 9.49233 13.0068C9.39379 13.0069 9.29622 13.0264 9.2052 13.0642C9.11418 13.1019 9.0315 13.1573 8.96186 13.227ZM26.5674 21.78C26.5516 21.759 26.5426 21.7328 26.5224 21.7125L18.0384 13.227C17.9687 13.1573 17.8861 13.102 17.7951 13.0643C17.7041 13.0266 17.6065 13.0071 17.508 13.0071C17.4095 13.0071 17.3119 13.0264 17.2209 13.0641C17.1299 13.1018 17.0472 13.157 16.9775 13.2266C16.9078 13.2963 16.8525 13.3789 16.8148 13.4699C16.7771 13.5609 16.7576 13.6585 16.7576 13.757C16.7575 13.8555 16.7769 13.9531 16.8146 14.0441C16.8523 14.1351 16.9075 14.2178 16.9771 14.2875L25.4619 22.773C25.4814 22.7925 25.5084 22.8008 25.5294 22.818C25.956 22.5633 26.3127 22.2066 26.5674 21.78Z" fill="#FFA263"/>
<path d="M24 3.75H3C2.20435 3.75 1.44129 4.06607 0.87868 4.62868C0.316071 5.19129 0 5.95435 0 6.75L0 7.5225L10.8953 18.3945C11.5814 19.0766 12.5096 19.4594 13.4771 19.4594C14.4446 19.4594 15.3728 19.0766 16.059 18.3945L27 7.50675V6.75C27 5.95435 26.6839 5.19129 26.1213 4.62868C25.5587 4.06607 24.7956 3.75 24 3.75Z" fill="#FFA263"/>
<path d="M24 3.75H2.99996C2.43535 3.75108 1.88256 3.91187 1.40546 4.21379C0.92835 4.51571 0.546394 4.94645 0.303711 5.45625L11.3782 16.5315C11.6568 16.8101 11.9875 17.0311 12.3515 17.1819C12.7155 17.3326 13.1056 17.4102 13.4996 17.4102C13.8936 17.4102 14.2837 17.3326 14.6477 17.1819C15.0117 17.0311 15.3424 16.8101 15.621 16.5315L26.6962 5.45625C26.4535 4.94645 26.0716 4.51571 25.5945 4.21379C25.1174 3.91187 24.5646 3.75108 24 3.75Z" fill="#FFEBB5"/>
<path d="M11.0352 8C11.679 8.00033 12.3127 8.15677 12.8838 8.45508C13.1014 8.56873 13.3069 8.70227 13.499 8.85254C13.6916 8.70184 13.8981 8.568 14.1162 8.4541C14.6875 8.15585 15.3218 8.00008 15.9658 8C16.4976 8 17.0241 8.10646 17.5146 8.3125C18.005 8.5185 18.4494 8.8201 18.8232 9.19922C19.1972 9.57846 19.4937 10.0278 19.6953 10.5215C19.8969 11.0151 20.0001 11.5437 20 12.0771L19.9922 12.3184C19.9775 12.5559 19.9423 12.7844 19.8926 13.001C19.6227 14.5743 18.6637 16.0867 17.5684 17.2734C16.4543 18.4805 15.0782 19.4842 13.8457 19.9385L13.5 20.0654L13.1543 19.9385C11.9218 19.4842 10.5457 18.4806 9.43164 17.2734C8.38985 16.1446 7.46942 14.7217 7.14941 13.2314L7.09375 12.9326C7.03679 12.6642 7.00001 12.3784 7 12.0771C7 11.0003 7.42175 9.96484 8.17676 9.19922C8.93219 8.43322 9.95978 8.00012 11.0342 8H11.0352Z" fill="#FF6A25" stroke="white" stroke-width="2"/>
</svg>
