<svg width="23" height="23" viewBox="0 0 23 23" fill="none" xmlns="http://www.w3.org/2000/svg">
<path fill-rule="evenodd" clip-rule="evenodd" d="M11.5027 2.05181C9.80052 2.05146 8.12981 2.51097 6.66721 3.38177C5.20462 4.25257 4.00446 5.50231 3.19359 6.9989C2.38272 8.49549 1.99127 10.1833 2.0606 11.884C2.12993 13.5847 2.65747 15.2351 3.58747 16.6608C3.69756 16.8002 3.7699 16.9656 3.79753 17.1411C3.82515 17.3166 3.80712 17.4963 3.74518 17.6628L2.6264 20.6411L6.71711 19.9019L6.72697 19.9003C6.97523 19.8544 7.23166 19.9024 7.44654 20.035C8.72658 20.6421 10.1268 20.9537 11.5435 20.9466C12.9603 20.9394 14.3573 20.6138 15.6312 19.9937C16.905 19.3737 18.0231 18.4751 18.9027 17.3645C19.7823 16.2539 20.4008 14.9598 20.7125 13.5778C21.0242 12.1959 21.0211 10.7615 20.7034 9.38089C20.3858 8.00029 19.7617 6.70881 18.8773 5.60203C17.9929 4.49525 16.871 3.60151 15.5944 2.98697C14.3179 2.37243 12.9195 2.05282 11.5027 2.05181ZM6.76147 21.98C8.20718 22.6354 9.81389 22.9985 11.5027 22.9985C14.0427 22.9979 16.5111 22.1564 18.5225 20.6055C20.5339 19.0545 21.9752 16.8813 22.6215 14.4251C23.2678 11.9689 23.0826 9.36779 22.095 7.02784C21.1073 4.68789 19.3727 2.74073 17.1619 1.49028C14.9511 0.239821 12.3884 -0.243571 9.87397 0.115545C7.3595 0.474662 5.03467 1.65608 3.26233 3.47541C1.48999 5.29474 0.369882 7.6496 0.0768189 10.1725C-0.216245 12.6953 0.33423 15.2442 1.64233 17.4213L0.0668286 21.612C0.00296046 21.7819 -0.0147333 21.9656 0.01555 22.1446C0.0458332 22.3235 0.123011 22.4913 0.239221 22.6307C0.355431 22.7701 0.50652 22.8762 0.677097 22.9382C0.847673 23.0002 1.03164 23.0159 1.21026 22.9837L6.76147 21.98Z" fill="#C5C5C5"/>
</svg>
