<svg width="25" height="28" viewBox="0 0 25 28" fill="none" xmlns="http://www.w3.org/2000/svg">
<path d="M16.0332 24.25C15.8447 24.6698 15.578 25.0577 15.2383 25.3906C14.5171 26.0973 13.5327 26.5 12.5 26.5C11.4673 26.5 10.4829 26.0973 9.76172 25.3906C9.42205 25.0577 9.15535 24.6698 8.9668 24.25H16.0332ZM12.5 1.5C14.9535 1.5 17.3005 2.45531 19.0264 4.14648C20.7512 5.83676 21.7148 8.12296 21.7148 10.5V17.4053L22.165 17.8467L23.4268 19.083V19.084C23.4645 19.121 23.4874 19.1644 23.4961 19.207C23.5047 19.2494 23.5001 19.294 23.4824 19.3359C23.4645 19.3781 23.4322 19.4191 23.3848 19.4502C23.3369 19.4815 23.2771 19.5 23.2139 19.5H1.78613C1.72295 19.5 1.66307 19.4815 1.61523 19.4502C1.56783 19.4191 1.53546 19.3781 1.51758 19.3359C1.49987 19.294 1.49533 19.2494 1.50391 19.207C1.51256 19.1644 1.53452 19.12 1.57227 19.083L2.83496 17.8467L3.28516 17.4053V10.5C3.28516 8.12296 4.24881 5.83676 5.97363 4.14648C7.69947 2.45531 10.0465 1.5 12.5 1.5Z" stroke="white" stroke-width="3"/>
</svg>
