<svg width="31" height="28" viewBox="0 0 31 28" fill="none" xmlns="http://www.w3.org/2000/svg">
<path fill-rule="evenodd" clip-rule="evenodd" d="M0.572333 5.3334C0.638855 5.07491 0.78051 4.84195 0.979396 4.66396C1.17828 4.48597 1.42547 4.37094 1.68972 4.33341L28.5899 0.543489C28.8384 0.508155 29.0918 0.5428 29.3217 0.64353C29.5516 0.74426 29.7489 0.907089 29.8914 1.11373C30.0338 1.32037 30.1159 1.56263 30.1283 1.81332C30.1407 2.064 30.083 2.31318 29.9616 2.53286L16.8545 26.3276C16.7257 26.5616 16.5304 26.7521 16.2933 26.875C16.0562 26.9979 15.788 27.0478 15.5226 27.0182C15.2571 26.9886 15.0064 26.881 14.8022 26.7089C14.5979 26.5368 14.4493 26.308 14.3752 26.0514L11.3342 15.5485L17.3208 11.4207C17.6156 11.2175 17.8175 10.9055 17.8822 10.5534C17.9469 10.2013 17.8691 9.83785 17.6659 9.54309C17.4626 9.24833 17.1507 9.04638 16.7985 8.98165C16.4464 8.91693 16.083 8.99473 15.7883 9.19795L9.80163 13.3257L1.06519 6.74972C0.852166 6.58901 0.691551 6.36876 0.603632 6.11681C0.515713 5.86486 0.505546 5.59174 0.572333 5.3334Z" fill="#FF6A25"/>
</svg>
