<svg width="353" height="48" viewBox="0 0 353 48" fill="none" xmlns="http://www.w3.org/2000/svg">
<rect width="353" height="48" rx="8" fill="#FEE500"/>
<path d="M97 13.4805C103.075 13.4805 108 17.286 108 21.9805C108 26.6749 103.075 30.4805 97 30.4805C96.9171 30.4805 96.8344 30.477 96.752 30.4756C96.7149 30.5033 96.6707 30.5371 96.6191 30.5752C96.4531 30.698 96.2152 30.8721 95.9287 31.0801C95.3561 31.4958 94.5858 32.0459 93.7988 32.5811C93.0145 33.1144 92.2029 33.6411 91.5498 34.0039C91.2263 34.1836 90.9215 34.3336 90.6699 34.4229C90.5467 34.4666 90.4094 34.5062 90.2744 34.5166C90.1586 34.5255 89.9159 34.5233 89.7266 34.334C89.5868 34.1942 89.5414 34.0183 89.5225 33.9131C89.5011 33.7938 89.497 33.6654 89.501 33.542C89.509 33.2929 89.5521 32.9884 89.6123 32.6631C89.7336 32.0079 89.9412 31.1936 90.1611 30.4082C90.3097 29.8778 90.4665 29.3554 90.6074 28.8955C87.8187 27.3536 86 24.8322 86 21.9805C86 17.286 90.9249 13.4805 97 13.4805Z" fill="#181600"/>
<path d="M145.93 18.1562C145.93 22.4219 144.758 26.0781 139.555 28.6719L138.602 27.3594C141.047 26.1484 142.5 24.7422 143.32 23.0625L138.93 23.4844L138.711 21.9844L143.852 21.6562C144.031 21 144.141 20.3047 144.195 19.5625H139.445V18.1562H145.93ZM149.648 16.7656V22.2969H151.742V23.7188H149.648V30.8594H147.914V16.7656H149.648ZM159.758 18.1562C159.758 22.4219 158.586 26.0781 153.383 28.6719L152.43 27.3594C154.875 26.1484 156.328 24.7422 157.148 23.0625L152.758 23.4844L152.539 21.9844L157.68 21.6562C157.859 21 157.969 20.3047 158.023 19.5625H153.273V18.1562H159.758ZM163.477 16.7656V22.2969H165.57V23.7188H163.477V30.8594H161.742V16.7656H163.477ZM172.664 17.5625C175.695 17.5625 177.93 19.0781 177.93 21.375C177.93 23.4922 176.109 24.9062 173.523 25.1562V27.75H179.148V29.1719H166.242V27.75H171.805V25.1562C169.234 24.9062 167.414 23.4922 167.43 21.375C167.414 19.0781 169.648 17.5625 172.664 17.5625ZM172.664 18.9688C170.602 18.9531 169.117 19.8906 169.133 21.375C169.117 22.9062 170.602 23.8125 172.664 23.8125C174.758 23.8125 176.227 22.9062 176.227 21.375C176.227 19.8906 174.758 18.9531 172.664 18.9688ZM196.773 27.8125V29.25H183.867V27.8125H189.43V25.5156H185.398V20.8906H193.523V19.1406H185.367V17.7344H195.242V22.2656H187.133V24.0938H195.57V25.5156H191.148V27.8125H196.773ZM208.93 18.1406V19.7344C208.93 21.625 208.93 23.5781 208.414 26.5469L206.648 26.3906C207.195 23.6094 207.195 21.5625 207.195 19.7344V19.5469H199.055V18.1406H208.93ZM210.57 27.5312V28.9531H197.695V27.5312H210.57ZM223.289 16.7812V26.9844H221.539V16.7812H223.289ZM223.68 29.2031V30.6094H213.945V25.9531H215.695V29.2031H223.68ZM215.586 17.7031C217.727 17.7031 219.383 19.1875 219.383 21.2344C219.383 23.3281 217.727 24.7812 215.586 24.7812C213.43 24.7812 211.773 23.3281 211.773 21.2344C211.773 19.1875 213.43 17.7031 215.586 17.7031ZM215.586 19.2188C214.383 19.2188 213.461 20.0156 213.477 21.2344C213.461 22.4844 214.383 23.2656 215.586 23.2656C216.758 23.2656 217.68 22.4844 217.68 21.2344C217.68 20.0156 216.758 19.2188 215.586 19.2188Z" fill="#181600"/>
</svg>
