<svg width="211" height="49" viewBox="0 0 211 49" fill="none" xmlns="http://www.w3.org/2000/svg">
<path d="M29.3188 35.5192C29.3188 37.1761 30.6619 38.5192 32.3188 38.5192H43.8238C46.91 38.5192 48.1445 40.5982 48.1445 42.6771C48.1445 44.8574 46.8586 46.8349 43.8238 46.8349H4.32066C1.28591 46.8349 0 44.8574 0 42.6771C0 40.5982 1.23447 38.5192 4.32066 38.5192H15.8257C17.4826 38.5192 18.8257 37.1761 18.8257 35.5192V28.7331H10.5445C4.47497 28.7331 2.72613 26.6035 2.72613 20.9245V6.72694C2.72613 3.32968 5.24652 1.80852 8.02408 1.80852C10.8531 1.80852 13.2192 3.38039 13.2192 6.72694V18.7441C13.2192 19.8596 13.5278 20.1132 14.7108 20.1132H41.6635C44.6468 20.1132 45.7784 22.3442 45.7784 24.3724C45.7784 26.4513 44.5954 28.7331 41.6635 28.7331H29.3188V35.5192Z" fill="#FF691D"/>
<path d="M57.6166 28.1415C54.9933 28.1922 53.1416 26.671 53.1416 24.3893C53.1416 22.1583 54.4789 20.7892 56.485 20.5864C61.0628 20.0286 63.7375 17.1891 63.7375 12.8285V12.3214H57.1536C54.7361 12.3214 53.3988 10.2425 53.3988 8.4171C53.3988 6.5917 54.5304 4.41137 57.1536 4.41137H63.5318C63.5318 1.41975 65.2292 0 68.4182 0C71.6073 0 73.4075 1.47046 73.4075 4.41137H79.94C82.5632 4.41137 83.6948 6.5917 83.6948 8.4171C83.6948 10.2425 82.3575 12.3214 79.94 12.3214H73.3047V12.9806C73.3047 13.6905 73.2532 14.4003 73.1504 15.1102C80.5572 15.313 84.3635 18.9638 84.1578 27.533H74.642C75.0535 23.8315 73.2018 21.8033 70.4757 21.9554C67.4924 25.9105 62.6059 28.0908 57.6166 28.1415ZM82.306 15.3637C82.306 13.0313 83.952 11.358 86.5753 11.358H89.1985V5.32406C89.1985 2.02821 91.616 0.304231 94.3422 0.304231C97.0683 0.304231 99.4858 2.02821 99.4858 5.32406V26.633L89.1985 28.1415V19.268H86.5753C84.0034 19.268 82.306 17.7469 82.306 15.3637ZM66.7208 29.7134H89.25C96.6054 29.7134 100.052 33.4149 100.052 38.891C100.052 44.3672 96.6054 48.0687 89.25 48.0687H66.7208C59.314 48.0687 55.9192 44.2658 55.9192 38.891C55.9192 33.5163 59.314 29.7134 66.7208 29.7134ZM69.1898 41.2742H86.8324C88.7356 41.2742 89.61 40.2601 89.61 38.891C89.61 37.522 88.7356 36.5079 86.8324 36.5079H69.1898C67.2352 36.5079 66.3608 37.522 66.3608 38.891C66.3608 40.2601 67.2352 41.2742 69.1898 41.2742Z" fill="#FF691D"/>
<path d="M152.98 18.5793H154.831C157.969 18.5793 158.895 20.9624 158.895 22.9907C158.895 25.0696 157.918 27.402 154.831 27.402H152.98V46.7039C152.98 46.7039 150.273 48.4041 148.265 48.8167C146.256 49.2292 142.692 48.8167 142.692 48.8167V5.85224C142.692 2.55639 145.11 0.832403 147.836 0.832403C150.562 0.832403 152.98 2.55639 152.98 5.85224V18.5793ZM117.128 2.50568H129.37C136.006 2.50568 137.24 4.48319 137.24 10.8721V46.518H117.128C110.493 46.518 109.259 44.5405 109.259 38.1516V10.8721C109.259 4.48319 110.493 2.50568 117.128 2.50568ZM123.618 39.2796C127.313 39.2796 127.313 38.5572 127.313 38.5572V12.1397C127.313 11.1256 127.056 10.4664 125.924 10.4664H120.523C119.392 10.4664 119.186 11.1256 119.186 12.1397V36.8332C119.186 37.9488 120.939 39.2796 123.618 39.2796Z" fill="#FF691D"/>
<path d="M205.908 26.9753H173.657C167.793 26.9753 164.707 23.9329 164.707 19.2173V18.4568C164.707 13.7412 167.793 10.9524 173.657 10.9524H197.524V9.68473C197.524 9.07626 197.318 8.51851 196.289 8.51851H168.771C166.507 8.51851 165.222 6.74382 165.222 4.91842C165.222 3.14373 166.456 1.31834 168.771 1.31834H200.404C206.422 1.31834 208.171 3.90431 208.171 7.96075V17.4427H177.258C176.229 17.4427 175.766 17.899 175.766 18.7103C175.766 19.5723 176.229 19.9272 177.258 19.9272H205.908C208.48 19.9272 209.457 21.7526 209.457 23.4766C209.457 25.1499 208.48 26.9753 205.908 26.9753ZM167.176 29.4598H206.679C209.766 29.4598 211 31.5388 211 33.6177C211 35.7473 209.714 37.7755 206.679 37.7755H192.174V45.9898C192.174 45.9898 190.208 47.5363 187.378 48.2885C185.356 48.8259 181.681 48.1701 181.681 48.1701V37.7755H167.176C164.141 37.7755 162.856 35.7473 162.856 33.6177C162.856 31.5388 164.09 29.4598 167.176 29.4598Z" fill="#FF691D"/>
</svg>
