<svg width="23" height="24" viewBox="0 0 23 24" fill="none" xmlns="http://www.w3.org/2000/svg">
<path d="M11.5 13.7143C17.825 13.7143 23 18 23 21.4286C23 22.1106 22.7404 22.7646 22.2782 23.2468C21.8161 23.7291 21.1893 24 20.5357 24H2.46429C1.81072 24 1.18392 23.7291 0.721773 23.2468C0.259629 22.7646 0 22.1106 0 21.4286C0 18 5.175 13.7143 11.5 13.7143ZM11.5 0C13.025 0 14.4875 0.632141 15.5659 1.75736C16.6442 2.88258 17.25 4.4087 17.25 6C17.25 7.5913 16.6442 9.11742 15.5659 10.2426C14.4875 11.3679 13.025 12 11.5 12C9.97501 12 8.51247 11.3679 7.43414 10.2426C6.3558 9.11742 5.75 7.5913 5.75 6C5.75 4.4087 6.3558 2.88258 7.43414 1.75736C8.51247 0.632141 9.97501 0 11.5 0Z" fill="#FF6A25"/>
</svg>
