<svg width="42" height="49" viewBox="0 0 42 49" fill="none" xmlns="http://www.w3.org/2000/svg">
<path d="M17.6976 27.5794C19.1722 27.5794 20.6467 25.2447 21.4454 23.5244C22.2074 21.8833 24.7794 20.2016 26.5753 20.4211C27.8858 20.5813 29.214 20.525 30.3915 20.3537C33.7707 19.8622 34.9623 18.1418 34.9623 15.0456C34.9623 12.7841 31.1735 8.24622 29.3098 6.25965C27.8762 4.6622 24.3946 1.38129 21.937 1.03722C17.886 0.470078 13.6882 3.45811 10.5649 6.09959C10.5032 6.15181 10.4435 6.20516 10.3862 6.25965C9.03773 7.54092 7.80831 10.6595 7.47428 12.4893C7.00324 15.0698 6.94555 18.8057 8.42011 21.5583C10.2633 24.9989 16.223 27.5794 17.6976 27.5794Z" fill="#C5C5C5"/>
<path d="M23.2647 1.43013C20.3156 0.0170261 15.7783 1.89408 15 3.00001C15 3.00001 18.9667 4.63886 20.7457 6.25974C23.9296 9.16055 23.5 21 23.5 21C26.3912 20.1327 24.137 21.3736 31.1537 20.3712C33.1775 20.0821 35 18.0962 35 15C35 12.7385 31.8637 7.48657 30 5.5C28.5664 3.90255 25 2.26161 23.2647 1.43013Z" fill="#D2D2D2"/>
<path d="M13.2089 22.2864C13.1918 22.2799 13.1749 22.2733 13.1581 22.2666C12.3822 21.9562 10.8296 21.407 10.1374 21.8754C9.06948 22.598 8.13354 23.4986 7.3704 24.538L7.08461 24.9272C6.57187 25.6255 6.94174 26.6206 7.78613 26.8144L10.2605 27.3825C10.6756 27.4778 11.1049 27.2957 11.325 26.9311L11.6249 26.4343C12.0906 25.6628 12.6823 24.9749 13.3754 24.3991L13.6879 24.1394C14.1563 23.7503 13.7781 22.5025 13.2089 22.2864Z" fill="#A9A9A9"/>
<path d="M10.2891 45.8125H0.609375V44.7227H4.76953V42.6367H1.44141V41.6055H2.92969V38.4414H1.40625V37.3867H9.44531V38.4414H7.89844V41.6055H9.41016V42.6367H6.05859V44.7227H10.2891V45.8125ZM6.60938 41.6055V38.4414H4.23047V41.6055H6.60938ZM16.4414 37.5273H19.6875V38.5352H16.541C16.5957 38.8633 16.7695 39.1621 17.0625 39.4316C17.3594 39.6973 17.7676 39.9199 18.2871 40.0996C18.8105 40.2793 19.4297 40.3984 20.1445 40.457L19.7227 41.4531C18.7891 41.3711 17.9844 41.1797 17.3086 40.8789C16.6328 40.5742 16.1289 40.1797 15.7969 39.6953C15.4648 40.1797 14.9609 40.5742 14.2852 40.8789C13.6094 41.1797 12.8047 41.3711 11.8711 41.4531L11.4492 40.457C12.1602 40.3984 12.7754 40.2793 13.2949 40.0996C13.8184 39.9199 14.2266 39.6973 14.5195 39.4316C14.8164 39.1621 14.9941 38.8633 15.0527 38.5352H11.9297V37.5273H15.1523V36.4609H16.4414V37.5273ZM20.6484 43H16.5586V44.8516H15.2695V43H10.9688V41.9688H20.6484V43ZM19.582 46.832H12.1406V43.8789H13.4414V45.7773H19.582V46.832ZM29.8711 38.0312C29.8711 38.7852 29.8496 39.459 29.8066 40.0527C29.7676 40.6426 29.6699 41.3164 29.5137 42.0742H31.0078V43.1289H26.8359V47.0195H25.5234V43.1289H21.3516V42.0742H28.2305C28.3633 41.4805 28.4609 40.9102 28.5234 40.3633L22.3477 40.668L22.1836 39.5547L28.5996 39.3672C28.6074 39.1953 28.6133 39.0254 28.6172 38.8574C28.6211 38.6895 28.625 38.5234 28.6289 38.3594V38.1133H22.5117V37.0703H29.8711V38.0312ZM37.4648 37.4922C37.4609 38.6484 37.3164 39.6973 37.0312 40.6387C36.7461 41.5801 36.2422 42.457 35.5195 43.2695C34.8008 44.0781 33.8125 44.7891 32.5547 45.4023L31.8633 44.3945C32.7617 43.957 33.5039 43.4727 34.0898 42.9414C34.6797 42.4062 35.1387 41.8164 35.4668 41.1719L32.0977 41.4766L31.9336 40.3633L35.8828 40.1172C36.0195 39.6523 36.1133 39.1289 36.1641 38.5469H32.4727V37.4922H37.4648ZM40.5703 47.043H39.2578V36.4492H40.5703V47.043Z" fill="#C5C5C5"/>
</svg>
