<svg width="24" height="24" viewBox="0 0 42 49" fill="none" xmlns="http://www.w3.org/2000/svg">
<path d="M17.6976 27.5794C19.1722 27.5794 20.6467 25.2447 21.4454 23.5244C22.2074 21.8833 24.7794 20.2016 26.5753 20.4211C27.8858 20.5813 29.214 20.525 30.3915 20.3537C33.7707 19.8622 34.9623 18.1418 34.9623 15.0456C34.9623 12.7841 31.1735 8.24622 29.3098 6.25965C27.8762 4.6622 24.3946 1.38129 21.937 1.03722C17.886 0.470078 13.6882 3.45811 10.5649 6.09959C10.5032 6.15181 10.4435 6.20516 10.3862 6.25965C9.03773 7.54092 7.80831 10.6595 7.47428 12.4893C7.00324 15.0698 6.94555 18.8057 8.42011 21.5583C10.2633 24.9989 16.223 27.5794 17.6976 27.5794Z" fill="#C5C5C5"/>
<path d="M23.2647 1.43013C20.3156 0.0170261 15.7783 1.89408 15 3.00001C15 3.00001 18.9667 4.63886 20.7457 6.25974C23.9296 9.16055 23.5 21 23.5 21C26.3912 20.1327 24.137 21.3736 31.1537 20.3712C33.1775 20.0821 35 18.0962 35 15C35 12.7385 31.8637 7.48657 30 5.5C28.5664 3.90255 25 2.26161 23.2647 1.43013Z" fill="#D2D2D2"/>
<path d="M13.2089 22.2864C13.1918 22.2799 13.1749 22.2733 13.1581 22.2666C12.3822 21.9562 10.8296 21.407 10.1374 21.8754C9.06948 22.598 8.13354 23.4986 7.3704 24.538L7.08461 24.9272C6.57187 25.6255 6.94174 26.6206 7.78613 26.8144L10.2605 27.3825C10.6756 27.4778 11.1049 27.2957 11.325 26.9311L11.6249 26.4343C12.0906 25.6628 12.6823 24.9749 13.3754 24.3991L13.6879 24.1394C14.1563 23.7503 13.7781 22.5025 13.2089 22.2864Z" fill="#A9A9A9"/>
</svg>
