<svg width="39" height="46" viewBox="0 0 39 46" fill="none" xmlns="http://www.w3.org/2000/svg">
<path d="M0 11.4412C0 10.3414 0.436921 9.28656 1.21465 8.50883C1.99237 7.73111 3.04719 7.29419 4.14706 7.29419H20.3897C20.9797 7.29419 21.5639 7.4104 22.109 7.63617C22.654 7.86195 23.1493 8.19287 23.5665 8.61006C23.9837 9.02724 24.3146 9.5225 24.5404 10.0676C24.7661 10.6126 24.8824 11.1969 24.8824 11.7868V22.5001H28.6838C29.2738 22.5001 29.858 22.6163 30.4031 22.8421C30.9482 23.0678 31.4434 23.3988 31.8606 23.8159C32.2778 24.2331 32.6087 24.7284 32.8345 25.2735C33.0603 25.8185 33.1765 26.4027 33.1765 26.9927V44.6177C33.1765 44.9843 33.0308 45.3359 32.7716 45.5952C32.5123 45.8544 32.1607 46.0001 31.7941 46.0001H26.2647V39.7795C26.2647 39.2295 26.0462 38.7021 25.6574 38.3133C25.2685 37.9244 24.7411 37.706 24.1912 37.706H8.98529C8.43536 37.706 7.90795 37.9244 7.51909 38.3133C7.13023 38.7021 6.91176 39.2295 6.91176 39.7795V46.0001H1.38235C1.01573 46.0001 0.664124 45.8544 0.404882 45.5952C0.145641 45.3359 0 44.9843 0 44.6177V11.4412ZM23.5 40.4707V46.0001H17.9706V40.4707H23.5ZM15.2059 40.4707V46.0001H9.67647V40.4707H15.2059ZM11.0588 16.2795C11.0588 15.7295 10.8404 15.2021 10.4515 14.8133C10.0626 14.4244 9.53523 14.206 8.98529 14.206C8.43536 14.206 7.90795 14.4244 7.51909 14.8133C7.13023 15.2021 6.91176 15.7295 6.91176 16.2795C6.91176 16.8294 7.13023 17.3568 7.51909 17.7457C7.90795 18.1346 8.43536 18.353 8.98529 18.353C9.53523 18.353 10.0626 18.1346 10.4515 17.7457C10.8404 17.3568 11.0588 16.8294 11.0588 16.2795ZM11.0588 23.1912C11.0588 22.6413 10.8404 22.1139 10.4515 21.725C10.0626 21.3362 9.53523 21.1177 8.98529 21.1177C8.43536 21.1177 7.90795 21.3362 7.51909 21.725C7.13023 22.1139 6.91176 22.6413 6.91176 23.1912C6.91176 23.7412 7.13023 24.2686 7.51909 24.6575C7.90795 25.0463 8.43536 25.2648 8.98529 25.2648C9.53523 25.2648 10.0626 25.0463 10.4515 24.6575C10.8404 24.2686 11.0588 23.7412 11.0588 23.1912ZM8.98529 32.1765C9.53523 32.1765 10.0626 31.9581 10.4515 31.5692C10.8404 31.1804 11.0588 30.6529 11.0588 30.103C11.0588 29.5531 10.8404 29.0257 10.4515 28.6368C10.0626 28.2479 9.53523 28.0295 8.98529 28.0295C8.43536 28.0295 7.90795 28.2479 7.51909 28.6368C7.13023 29.0257 6.91176 29.5531 6.91176 30.103C6.91176 30.6529 7.13023 31.1804 7.51909 31.5692C7.90795 31.9581 8.43536 32.1765 8.98529 32.1765ZM17.9706 16.2795C17.9706 15.7295 17.7521 15.2021 17.3633 14.8133C16.9744 14.4244 16.447 14.206 15.8971 14.206C15.3471 14.206 14.8197 14.4244 14.4309 14.8133C14.042 15.2021 13.8235 15.7295 13.8235 16.2795C13.8235 16.8294 14.042 17.3568 14.4309 17.7457C14.8197 18.1346 15.3471 18.353 15.8971 18.353C16.447 18.353 16.9744 18.1346 17.3633 17.7457C17.7521 17.3568 17.9706 16.8294 17.9706 16.2795ZM15.8971 25.2648C16.447 25.2648 16.9744 25.0463 17.3633 24.6575C17.7521 24.2686 17.9706 23.7412 17.9706 23.1912C17.9706 22.6413 17.7521 22.1139 17.3633 21.725C16.9744 21.3362 16.447 21.1177 15.8971 21.1177C15.3471 21.1177 14.8197 21.3362 14.4309 21.725C14.042 22.1139 13.8235 22.6413 13.8235 23.1912C13.8235 23.7412 14.042 24.2686 14.4309 24.6575C14.8197 25.0463 15.3471 25.2648 15.8971 25.2648ZM17.9706 30.103C17.9706 29.5531 17.7521 29.0257 17.3633 28.6368C16.9744 28.2479 16.447 28.0295 15.8971 28.0295C15.3471 28.0295 14.8197 28.2479 14.4309 28.6368C14.042 29.0257 13.8235 29.5531 13.8235 30.103C13.8235 30.6529 14.042 31.1804 14.4309 31.5692C14.8197 31.9581 15.3471 32.1765 15.8971 32.1765C16.447 32.1765 16.9744 31.9581 17.3633 31.5692C17.7521 31.1804 17.9706 30.6529 17.9706 30.103ZM22.8088 32.1765C23.3588 32.1765 23.8862 31.9581 24.275 31.5692C24.6639 31.1804 24.8824 30.6529 24.8824 30.103C24.8824 29.5531 24.6639 29.0257 24.275 28.6368C23.8862 28.2479 23.3588 28.0295 22.8088 28.0295C22.2589 28.0295 21.7315 28.2479 21.3426 28.6368C20.9538 29.0257 20.7353 29.5531 20.7353 30.103C20.7353 30.6529 20.9538 31.1804 21.3426 31.5692C21.7315 31.9581 22.2589 32.1765 22.8088 32.1765Z" fill="#7595B7"/>
<path d="M35.5098 1L35.7578 1.01367C36.005 1.03954 36.2473 1.10202 36.4766 1.2002C36.7821 1.3311 37.0583 1.52209 37.2891 1.76074C37.5198 1.99936 37.7006 2.28145 37.8223 2.58984C37.9423 2.89393 38.0027 3.21825 38 3.54492V12.041L37.9951 12.2158C37.9698 12.6224 37.848 13.0189 37.6377 13.3701C37.4083 13.7531 37.0804 14.0666 36.6895 14.2822L36.6904 14.2832L29.5205 18.6104L29.4932 18.627L29.4648 18.6416C29.012 18.8769 28.5093 19 27.999 19C27.4889 19 26.9869 18.8768 26.5342 18.6416L26.5059 18.627L26.4785 18.6104L19.3086 14.2832H19.3076C18.9166 14.0671 18.5903 13.7508 18.3613 13.3672C18.1215 12.9654 17.9965 12.5055 18 12.0381V3.54297C17.9969 2.88003 18.2517 2.23921 18.7139 1.76172C19.1785 1.28177 19.8157 1.00607 20.4854 1H35.5098ZM27.5 8.33301H24.5V9.37988H27.5V12.4268H28.5V9.37988H31.5V8.33301H28.5V5.28516H27.5V8.33301Z" fill="#7595B7" stroke="white" stroke-width="2"/>
</svg>
