<svg width="24" height="49" viewBox="0 0 24 49" fill="none" xmlns="http://www.w3.org/2000/svg">
<path d="M0 23.9143V10.0286C0 9.54 0.1065 9.07714 0.3195 8.64C0.5325 8.20286 0.826 7.84285 1.2 7.56L10.2 0.617143C10.725 0.205714 11.325 0 12 0C12.675 0 13.275 0.205714 13.8 0.617143L22.8 7.56C23.175 7.84285 23.469 8.20286 23.682 8.64C23.895 9.07714 24.001 9.54 24 10.0286V23.9143C24 24.7629 23.706 25.4895 23.118 26.0943C22.53 26.6991 21.824 27.001 21 27H16.5C16.075 27 15.719 26.8519 15.432 26.5557C15.145 26.2594 15.001 25.8933 15 25.4571V17.7429C15 17.3057 14.856 16.9395 14.568 16.6443C14.28 16.3491 13.924 16.201 13.5 16.2H10.5C10.075 16.2 9.719 16.3481 9.432 16.6443C9.145 16.9406 9.001 17.3067 9 17.7429V25.4571C9 25.8943 8.856 26.261 8.568 26.5572C8.28 26.8534 7.924 27.001 7.5 27H3C2.175 27 1.469 26.6981 0.881999 26.0943C0.295 25.4906 0.001 24.7639 0 23.9143Z" fill="#C5C5C5"/>
<path d="M15.1504 46.9141H7.80273V43.832H15.1504V46.9141ZM9.0918 45.9297H13.8848V44.8164H9.0918V45.9297ZM15.7949 38.2422H7.14648V37.2578H10.8379V36.332H12.1387V37.2578H15.7949V38.2422ZM11.4824 38.5703C12.623 38.5703 13.4961 38.6973 14.1016 38.9512C14.707 39.2051 15.0098 39.5781 15.0098 40.0703C15.0098 40.5156 14.7637 40.8652 14.2715 41.1191C13.7832 41.3691 13.0723 41.5176 12.1387 41.5645V42.1797H16.3223V43.2109H6.66602V42.1797H10.8379V41.5645C9.91211 41.5215 9.20117 41.373 8.70508 41.1191C8.21289 40.8652 7.9668 40.5156 7.9668 40.0703C7.9668 39.5781 8.26953 39.2051 8.875 38.9512C9.48047 38.6973 10.3496 38.5703 11.4824 38.5703ZM11.4824 39.4492C10.7637 39.457 10.2305 39.5098 9.88281 39.6074C9.53516 39.7051 9.36133 39.8594 9.36133 40.0703C9.36133 40.4844 10.0684 40.6914 11.4824 40.6914C12.1934 40.6914 12.7266 40.6406 13.082 40.5391C13.4375 40.4375 13.6152 40.2812 13.6152 40.0703C13.6152 39.8594 13.4395 39.7051 13.0879 39.6074C12.7402 39.5098 12.2051 39.457 11.4824 39.4492Z" fill="#C5C5C5"/>
</svg>
