<svg width="23" height="24" viewBox="0 0 23 24" fill="none" xmlns="http://www.w3.org/2000/svg">
<path d="M22.6475 21.591L17.4335 16.1503C18.6888 14.4065 19.3665 12.284 19.3642 10.103C19.3642 4.53226 15.0207 0 9.68208 0C4.34341 0 0 4.53226 0 10.103C0 15.6738 4.34341 20.2061 9.68208 20.2061C11.7722 20.2085 13.8063 19.5014 15.4774 18.1915L20.6913 23.6322C20.9553 23.8783 21.2995 24.0098 21.6534 23.9994C22.0073 23.9891 22.3439 23.8378 22.5942 23.5766C22.8446 23.3154 22.9896 22.9641 22.9995 22.5948C23.0094 22.2256 22.8834 21.8664 22.6475 21.591ZM2.76631 10.103C2.76631 8.67576 3.17191 7.28053 3.93183 6.09379C4.69174 4.90705 5.77184 3.9821 7.03553 3.4359C8.29922 2.88971 9.68975 2.7468 11.0313 3.02525C12.3728 3.30369 13.6051 3.99099 14.5723 5.00023C15.5395 6.00947 16.1981 7.29532 16.465 8.69518C16.7318 10.095 16.5949 11.546 16.0714 12.8647C15.548 14.1833 14.6616 15.3103 13.5243 16.1033C12.387 16.8963 11.0499 17.3195 9.68208 17.3195C7.84858 17.3172 6.0908 16.5562 4.79432 15.2033C3.49784 13.8505 2.76851 12.0163 2.76631 10.103Z" fill="#C5C5C5"/>
</svg>
