<svg width="23" height="47" viewBox="0 0 23 47" fill="none" xmlns="http://www.w3.org/2000/svg">
<path d="M22.6475 21.591L17.4335 16.1503C18.6888 14.4065 19.3665 12.284 19.3642 10.103C19.3642 4.53226 15.0207 0 9.68208 0C4.34341 0 0 4.53226 0 10.103C0 15.6738 4.34341 20.2061 9.68208 20.2061C11.7722 20.2085 13.8063 19.5014 15.4774 18.1915L20.6913 23.6322C20.9553 23.8783 21.2995 24.0098 21.6534 23.9994C22.0073 23.9891 22.3439 23.8378 22.5942 23.5766C22.8446 23.3154 22.9896 22.9641 22.9995 22.5948C23.0094 22.2256 22.8834 21.8664 22.6475 21.591ZM2.76631 10.103C2.76631 8.67576 3.17191 7.28053 3.93183 6.09379C4.69174 4.90705 5.77184 3.9821 7.03553 3.4359C8.29922 2.88971 9.68975 2.7468 11.0313 3.02525C12.3728 3.30369 13.6051 3.99099 14.5723 5.00023C15.5395 6.00947 16.1981 7.29532 16.465 8.69518C16.7318 10.095 16.5949 11.546 16.0714 12.8647C15.548 14.1833 14.6616 15.3103 13.5243 16.1033C12.387 16.8963 11.0499 17.3195 9.68208 17.3195C7.84858 17.3172 6.0908 16.5562 4.79432 15.2033C3.49784 13.8505 2.76851 12.0163 2.76631 10.103Z" fill="#C5C5C5"/>
<path d="M11.3516 40.7422H10.0508V38.1523H8.24609V37.0859H10.0508V34.4492H11.3516V40.7422ZM7.76562 41.0117C8.51172 41.0117 9.15625 41.0918 9.69922 41.252C10.2461 41.4082 10.6641 41.6387 10.9531 41.9434C11.2422 42.2441 11.3867 42.6055 11.3867 43.0273C11.3867 43.4492 11.2422 43.8105 10.9531 44.1113C10.6641 44.416 10.2461 44.6465 9.69922 44.8027C9.15625 44.9629 8.51172 45.043 7.76562 45.043C7.02344 45.043 6.38086 44.9629 5.83789 44.8027C5.29492 44.6465 4.87891 44.416 4.58984 44.1113C4.30469 43.8105 4.16406 43.4492 4.16797 43.0273C4.16406 42.6055 4.30469 42.2441 4.58984 41.9434C4.87891 41.6387 5.29492 41.4082 5.83789 41.252C6.38086 41.0918 7.02344 41.0117 7.76562 41.0117ZM7.76562 42.0078C7.02344 42.0078 6.45312 42.0957 6.05469 42.2715C5.65625 42.4434 5.45703 42.6953 5.45703 43.0273C5.45703 43.3555 5.65625 43.6055 6.05469 43.7773C6.45312 43.9492 7.02344 44.0352 7.76562 44.0352C8.50781 44.0352 9.08008 43.9492 9.48242 43.7773C9.88477 43.6055 10.0859 43.3555 10.0859 43.0273C10.0859 42.6953 9.88477 42.4434 9.48242 42.2715C9.08008 42.0957 8.50781 42.0078 7.76562 42.0078ZM6.37109 36.2656C6.37109 36.7031 6.4668 37.1289 6.6582 37.543C6.84961 37.9531 7.13281 38.3223 7.50781 38.6504C7.88281 38.9746 8.33594 39.2266 8.86719 39.4062L8.21094 40.4375C7.63672 40.2422 7.13867 39.9551 6.7168 39.5762C6.29883 39.1934 5.9707 38.748 5.73242 38.2402C5.49414 38.8145 5.1543 39.3164 4.71289 39.7461C4.27148 40.1719 3.74219 40.4961 3.125 40.7188L2.44531 39.6875C2.99609 39.5 3.4668 39.2285 3.85742 38.873C4.24805 38.5137 4.54297 38.1094 4.74219 37.6602C4.94531 37.2109 5.04688 36.75 5.04688 36.2773V36.1953H2.84375V35.1406H8.5625V36.1953H6.37109V36.2656ZM22.5312 43.7656H12.8516V42.6992H17.0234V40.6367H13.918V35.1523H15.2188V36.8867H20.1289V35.1523H21.4297V40.6367H18.3125V42.6992H22.5312V43.7656ZM20.1289 39.582V37.9297H15.2188V39.582H20.1289Z" fill="#C5C5C5"/>
</svg>
