<svg width="52" height="47" viewBox="0 0 52 47" fill="none" xmlns="http://www.w3.org/2000/svg">
<path d="M25.5 13.7143C31.825 13.7143 37 18 37 21.4286C37 22.1106 36.7404 22.7646 36.2782 23.2468C35.8161 23.7291 35.1893 24 34.5357 24H16.4643C15.8107 24 15.1839 23.7291 14.7218 23.2468C14.2596 22.7646 14 22.1106 14 21.4286C14 18 19.175 13.7143 25.5 13.7143ZM25.5 0C27.025 0 28.4875 0.632141 29.5659 1.75736C30.6442 2.88258 31.25 4.4087 31.25 6C31.25 7.5913 30.6442 9.11742 29.5659 10.2426C28.4875 11.3679 27.025 12 25.5 12C23.975 12 22.5125 11.3679 21.4341 10.2426C20.3558 9.11742 19.75 7.5913 19.75 6C19.75 4.4087 20.3558 2.88258 21.4341 1.75736C22.5125 0.632141 23.975 0 25.5 0Z" fill="#C5C5C5"/>
<path d="M5.81445 42.418H0.798828V35.4805H5.81445V42.418ZM2.07617 41.375H4.51367V36.5H2.07617V41.375ZM8.7207 38.5156H10.3496V39.6172H8.7207V45.043H7.41992V34.4492H8.7207V38.5156ZM19.6074 45.0547H18.2949V34.4492H19.6074V45.0547ZM13.9004 35.2227C14.4316 35.2227 14.9043 35.377 15.3184 35.6855C15.7363 35.9902 16.0645 36.4258 16.3027 36.9922C16.541 37.5547 16.6621 38.2109 16.666 38.9609C16.6621 39.7148 16.541 40.375 16.3027 40.9414C16.0684 41.5078 15.7422 41.9453 15.3242 42.2539C14.9062 42.5586 14.4316 42.7109 13.9004 42.7109C13.3652 42.7109 12.8887 42.5586 12.4707 42.2539C12.0527 41.9453 11.7246 41.5078 11.4863 40.9414C11.252 40.375 11.1348 39.7148 11.1348 38.9609C11.1348 38.2109 11.252 37.5547 11.4863 36.9922C11.7246 36.4258 12.0527 35.9902 12.4707 35.6855C12.8887 35.377 13.3652 35.2227 13.9004 35.2227ZM13.9004 36.3945C13.5996 36.3945 13.334 36.4961 13.1035 36.6992C12.877 36.9023 12.7012 37.1973 12.5762 37.584C12.4512 37.9707 12.3887 38.4297 12.3887 38.9609C12.3887 39.4961 12.4512 39.957 12.5762 40.3438C12.7012 40.7305 12.877 41.0273 13.1035 41.2344C13.334 41.4375 13.5996 41.5391 13.9004 41.5391C14.1973 41.5391 14.459 41.4375 14.6855 41.2344C14.9121 41.0273 15.0879 40.7305 15.2129 40.3438C15.3379 39.957 15.4004 39.4961 15.4004 38.9609C15.4004 38.4297 15.3379 37.9727 15.2129 37.5898C15.0879 37.2031 14.9121 36.9082 14.6855 36.7051C14.459 36.498 14.1973 36.3945 13.9004 36.3945ZM30.3652 45.043H29.123V34.4492H30.3652V45.043ZM28.2559 44.5156H27.0137V39.5234H25.8418V38.3633H27.0137V34.6719H28.2559V44.5156ZM26.1113 36.7578H25.3613V41.3281C25.6973 41.2969 26.0137 41.2617 26.3105 41.2227L26.3926 42.1719C25.1699 42.4219 23.4395 42.5469 21.2012 42.5469L21.0488 41.4688L22.0098 41.4629V36.7578H21.2598V35.7031H26.1113V36.7578ZM24.166 41.4043V36.7578H23.1816V41.4395L24.166 41.4043ZM40.3496 45.0547H39.0371V34.4492H40.3496V45.0547ZM34.6426 35.2227C35.1738 35.2227 35.6465 35.377 36.0605 35.6855C36.4785 35.9902 36.8066 36.4258 37.0449 36.9922C37.2832 37.5547 37.4043 38.2109 37.4082 38.9609C37.4043 39.7148 37.2832 40.375 37.0449 40.9414C36.8105 41.5078 36.4844 41.9453 36.0664 42.2539C35.6484 42.5586 35.1738 42.7109 34.6426 42.7109C34.1074 42.7109 33.6309 42.5586 33.2129 42.2539C32.7949 41.9453 32.4668 41.5078 32.2285 40.9414C31.9941 40.375 31.877 39.7148 31.877 38.9609C31.877 38.2109 31.9941 37.5547 32.2285 36.9922C32.4668 36.4258 32.7949 35.9902 33.2129 35.6855C33.6309 35.377 34.1074 35.2227 34.6426 35.2227ZM34.6426 36.3945C34.3418 36.3945 34.0762 36.4961 33.8457 36.6992C33.6191 36.9023 33.4434 37.1973 33.3184 37.584C33.1934 37.9707 33.1309 38.4297 33.1309 38.9609C33.1309 39.4961 33.1934 39.957 33.3184 40.3438C33.4434 40.7305 33.6191 41.0273 33.8457 41.2344C34.0762 41.4375 34.3418 41.5391 34.6426 41.5391C34.9395 41.5391 35.2012 41.4375 35.4277 41.2344C35.6543 41.0273 35.8301 40.7305 35.9551 40.3438C36.0801 39.957 36.1426 39.4961 36.1426 38.9609C36.1426 38.4297 36.0801 37.9727 35.9551 37.5898C35.8301 37.2031 35.6543 36.9082 35.4277 36.7051C35.2012 36.498 34.9395 36.3945 34.6426 36.3945ZM45.9043 37.4609C45.9043 38.043 46.0137 38.6191 46.2324 39.1895C46.4551 39.7559 46.7715 40.2656 47.1816 40.7188C47.5957 41.168 48.0801 41.5078 48.6348 41.7383L47.9199 42.7695C47.3066 42.5078 46.7734 42.1152 46.3203 41.5918C45.8672 41.0684 45.5156 40.4609 45.2656 39.7695C45.0156 40.5117 44.6621 41.1699 44.2051 41.7441C43.752 42.3145 43.2207 42.7422 42.6113 43.0273L41.8613 42.0078C42.4043 41.7578 42.8809 41.3906 43.291 40.9062C43.7051 40.4219 44.0234 39.8789 44.2461 39.2773C44.4688 38.6719 44.5801 38.0664 44.5801 37.4609V36.5703H42.248V35.4922H48.2246V36.5703H45.9043V37.4609ZM50.7207 45.043H49.4082V34.4492H50.7207V45.043Z" fill="#C5C5C5"/>
</svg>
