<svg width="54" height="28" viewBox="0 0 54 28" fill="none" xmlns="http://www.w3.org/2000/svg">
<path d="M24.48 10.636H25.488C27.196 10.636 27.7 11.952 27.7 13.072C27.7 14.22 27.168 15.508 25.488 15.508H24.48V27.128H18.88V3.608C18.88 1.788 20.196 0.835999 21.68 0.835999C23.164 0.835999 24.48 1.788 24.48 3.608V10.636ZM4.964 1.76H11.628C15.24 1.76 15.912 2.852 15.912 6.38V26.064H4.964C1.352 26.064 0.68 24.972 0.68 21.444V6.38C0.68 2.852 1.352 1.76 4.964 1.76ZM7.008 21.668H10.508V7.08C10.508 6.52 10.368 6.156 9.752 6.156H6.812C6.196 6.156 6.084 6.52 6.084 7.08V20.716C6.084 21.332 6.28 21.668 7.008 21.668ZM53.32 27.128H47.72V3.608C47.72 1.788 49.036 0.835999 50.52 0.835999C52.004 0.835999 53.32 1.788 53.32 3.608V27.128ZM28.624 19.064V8.788C28.624 3.944 31.984 1.284 36.576 1.284C41.168 1.284 44.556 3.916 44.556 8.788V19.064C44.556 23.964 41.168 26.596 36.604 26.596C32.012 26.596 28.624 23.964 28.624 19.064ZM34.084 8.592V19.26C34.084 21.108 35.288 22.004 36.576 22.004C37.864 22.004 39.124 21.108 39.124 19.26V8.592C39.124 6.8 37.864 5.848 36.576 5.876C35.288 5.904 34.084 6.828 34.084 8.592Z" fill="#FF6A25"/>
</svg>
