<svg width="113" height="113" viewBox="0 0 113 113" fill="none" xmlns="http://www.w3.org/2000/svg">
<g filter="url(#filter0_d_48_1835)">
<circle cx="56.5" cy="56.5" r="52.5" fill="#FF6A25"/>
<mask id="mask0_48_1835" style="mask-type:alpha" maskUnits="userSpaceOnUse" x="4" y="4" width="105" height="105">
<circle cx="56.5" cy="56.5" r="52.5" fill="url(#paint0_linear_48_1835)"/>
</mask>
<g mask="url(#mask0_48_1835)">
<path d="M52.1818 22.1393C52.3512 21.3591 53.1204 20.8639 53.9006 21.0332C54.6807 21.2026 55.1752 21.9719 55.006 22.752L55.0088 22.7456L55.006 22.7618C55.0015 22.7881 54.9938 22.8367 54.9862 22.9037C54.971 23.0384 54.9557 23.2461 54.9608 23.5058C54.9711 24.0291 55.0642 24.7374 55.3914 25.4844C55.4849 25.6978 55.6298 25.9207 55.8142 26.1479C56.13 26.1383 56.4469 26.1324 56.765 26.1324C56.8096 26.1324 56.8545 26.1336 56.8991 26.1338C56.9919 25.6073 57.14 25.0903 57.3664 24.6169C57.9197 23.46 58.6605 22.6324 59.2602 22.0941C59.5611 21.824 59.8314 21.6218 60.0339 21.4835C60.135 21.4144 60.2203 21.3608 60.2844 21.3219C60.3164 21.3025 60.3437 21.2861 60.3649 21.2739C60.3754 21.2679 60.3848 21.2626 60.3924 21.2583C60.3962 21.2563 60.4 21.2544 60.403 21.2527L60.4073 21.2506L60.4094 21.2492L60.4101 21.2485C60.4101 21.2485 60.4112 21.2484 60.9487 22.2367L60.4115 21.2485C61.1129 20.8672 61.9903 21.1266 62.3717 21.828C62.753 22.5293 62.4934 23.406 61.7922 23.7875L61.7929 23.7882L61.7985 23.7853L61.7844 23.7938C61.7616 23.8077 61.72 23.8335 61.6644 23.8715C61.5525 23.9479 61.3848 24.072 61.1915 24.2456C60.802 24.5952 60.3264 25.1285 59.9746 25.8641C59.9151 25.9885 59.8647 26.1287 59.8228 26.282C74.8026 27.753 86.6641 39.8093 87.7617 51.4871C100.954 60.2487 109.53 73.8517 109.53 86.8419C109.53 108.401 85.8921 108.731 56.7509 108.731C27.6098 108.731 4.00006 108.401 4 86.8419C4.0001 73.852 12.5761 60.2487 25.7675 51.4871C26.839 40.0871 38.1697 28.3286 52.6441 26.4069C52.2103 25.322 52.0851 24.3141 52.0703 23.563C52.0623 23.1586 52.0851 22.8219 52.1126 22.5783C52.1264 22.4566 52.1418 22.3572 52.1543 22.2833C52.1605 22.2462 52.1658 22.2149 52.1705 22.1908C52.1728 22.1788 52.1751 22.1684 52.1768 22.1597C52.1777 22.1556 52.1782 22.1518 52.179 22.1484L52.1804 22.1435V22.14C52.1804 22.14 52.1814 22.1393 53.2808 22.3779L52.1818 22.1393Z" fill="white"/>
<path d="M55.8843 46.3938C56.0291 46.2664 56.8088 46.2664 56.9536 46.3938C57.4129 46.7975 58.2205 47.8137 58.9548 48.4591C59.3725 48.8262 60.4533 49.0111 61.5446 49.1029C62.1012 49.1502 62.2174 50.3921 61.6801 50.6403C60.0944 51.3729 58.0998 52.1029 56.4828 52.0802C54.9423 52.0586 53.0532 51.3559 51.5326 50.648C50.9956 50.398 51.1137 49.1431 51.6702 49.0888C52.6573 48.9927 53.6139 48.8087 54.0116 48.4591C54.7458 47.8138 55.425 46.7975 55.8843 46.3938Z" fill="#2A7EFF"/>
<path d="M64.7946 45.2867C64.7496 43.5461 64.0666 42.135 63.269 42.135C62.4715 42.135 61.8615 43.5461 61.9065 45.2867C61.9515 47.0273 62.6345 48.4384 63.4321 48.4384C64.2296 48.4384 64.8396 47.0273 64.7946 45.2867Z" fill="#373737"/>
<path d="M51.0612 45.2867C51.0162 43.5461 50.3331 42.135 49.5356 42.135C48.738 42.135 48.128 43.5461 48.173 45.2867C48.218 47.0273 48.9011 48.4384 49.6986 48.4384C50.4962 48.4384 51.1062 47.0273 51.0612 45.2867Z" fill="#373737"/>
<g filter="url(#filter1_ii_48_1835)">
<path d="M86.693 52C89.2492 48.702 94.659 52.0199 100.451 56.5091C106.243 60.9982 110.224 64.9588 107.668 68.2568C105.112 71.5549 98.3437 70.5895 92.5517 66.1004C86.7596 61.6112 84.1368 55.2981 86.693 52Z" fill="#FF5E14"/>
<path d="M13.6781 56.478C19.4698 51.9888 24.879 48.6708 27.4354 51.9682C29.9917 55.2662 27.3691 61.5792 21.5774 66.0686C15.7856 70.558 9.01772 71.5243 6.46128 68.2265C3.90493 64.9285 7.88616 60.9674 13.6781 56.478Z" fill="#FF5E14"/>
</g>
</g>
</g>
<defs>
<filter id="filter0_d_48_1835" x="0" y="0" width="113" height="113" filterUnits="userSpaceOnUse" color-interpolation-filters="sRGB">
<feFlood flood-opacity="0" result="BackgroundImageFix"/>
<feColorMatrix in="SourceAlpha" type="matrix" values="0 0 0 0 0 0 0 0 0 0 0 0 0 0 0 0 0 0 127 0" result="hardAlpha"/>
<feOffset/>
<feGaussianBlur stdDeviation="2"/>
<feComposite in2="hardAlpha" operator="out"/>
<feColorMatrix type="matrix" values="0 0 0 0 1 0 0 0 0 0.634259 0 0 0 0 0.386738 0 0 0 1 0"/>
<feBlend mode="normal" in2="BackgroundImageFix" result="effect1_dropShadow_48_1835"/>
<feBlend mode="normal" in="SourceGraphic" in2="effect1_dropShadow_48_1835" result="shape"/>
</filter>
<filter id="filter1_ii_48_1835" x="5.67188" y="47.6348" width="102.785" height="27.5811" filterUnits="userSpaceOnUse" color-interpolation-filters="sRGB">
<feFlood flood-opacity="0" result="BackgroundImageFix"/>
<feBlend mode="normal" in="SourceGraphic" in2="BackgroundImageFix" result="shape"/>
<feColorMatrix in="SourceAlpha" type="matrix" values="0 0 0 0 0 0 0 0 0 0 0 0 0 0 0 0 0 0 127 0" result="hardAlpha"/>
<feOffset dy="-3"/>
<feGaussianBlur stdDeviation="2"/>
<feComposite in2="hardAlpha" operator="arithmetic" k2="-1" k3="1"/>
<feColorMatrix type="matrix" values="0 0 0 0 1 0 0 0 0 0.985109 0 0 0 0 0.900729 0 0 0 0.4 0"/>
<feBlend mode="normal" in2="shape" result="effect1_innerShadow_48_1835"/>
<feColorMatrix in="SourceAlpha" type="matrix" values="0 0 0 0 0 0 0 0 0 0 0 0 0 0 0 0 0 0 127 0" result="hardAlpha"/>
<feOffset dy="5"/>
<feGaussianBlur stdDeviation="2.5"/>
<feComposite in2="hardAlpha" operator="arithmetic" k2="-1" k3="1"/>
<feColorMatrix type="matrix" values="0 0 0 0 1 0 0 0 0 0.985109 0 0 0 0 0.900729 0 0 0 0.7 0"/>
<feBlend mode="normal" in2="effect1_innerShadow_48_1835" result="effect2_innerShadow_48_1835"/>
</filter>
<linearGradient id="paint0_linear_48_1835" x1="56.5" y1="4" x2="56.5" y2="109" gradientUnits="userSpaceOnUse">
<stop stop-color="#FF6A25"/>
<stop offset="1" stop-color="#FF893B"/>
</linearGradient>
</defs>
</svg>
