<svg width="29" height="28" viewBox="0 0 29 28" fill="none" xmlns="http://www.w3.org/2000/svg">
<path d="M11.6976 27.5794C13.1722 27.5794 14.6467 25.2447 15.4454 23.5244C16.2074 21.8833 18.7794 20.2016 20.5753 20.4211C21.8858 20.5813 23.214 20.525 24.3915 20.3537C27.7707 19.8622 28.9623 18.1418 28.9623 15.0456C28.9623 12.7841 25.1735 8.24622 23.3098 6.25965C21.8762 4.6622 18.3946 1.38129 15.937 1.03722C11.886 0.470078 7.68822 3.45811 4.56492 6.09959C4.50317 6.15181 4.44353 6.20516 4.38618 6.25965C3.03773 7.54092 1.80831 10.6595 1.47428 12.4893C1.00324 15.0698 0.945548 18.8057 2.42011 21.5583C4.26332 24.9989 10.223 27.5794 11.6976 27.5794Z" fill="#C5C5C5"/>
<path d="M17.2647 1.43013C14.3156 0.0170261 9.77825 1.89408 9 3.00001C9 3.00001 12.9667 4.63886 14.7457 6.25974C17.9296 9.16055 17.5 21 17.5 21C20.3912 20.1327 18.137 21.3736 25.1537 20.3712C27.1775 20.0821 29 18.0962 29 15C29 12.7385 25.8637 7.48657 24 5.5C22.5664 3.90255 19 2.26161 17.2647 1.43013Z" fill="#D2D2D2"/>
<path d="M7.20894 22.2864C7.19179 22.2799 7.17486 22.2733 7.15814 22.2666C6.38215 21.9562 4.82964 21.407 4.13742 21.8754C3.06948 22.598 2.13354 23.4986 1.3704 24.538L1.08461 24.9272C0.571865 25.6255 0.941743 26.6206 1.78613 26.8144L4.26052 27.3825C4.6756 27.4778 5.10494 27.2957 5.32502 26.9311L5.62492 26.4343C6.09058 25.6628 6.68225 24.9749 7.37536 24.3991L7.68795 24.1394C8.15626 23.7503 7.77812 22.5025 7.20894 22.2864Z" fill="#A9A9A9"/>
</svg>
