<svg width="76" height="76" viewBox="0 0 76 76" fill="none" xmlns="http://www.w3.org/2000/svg">
<rect width="76" height="76" rx="4" fill="#FFC0A2"/>
<mask id="mask0_48_2500" style="mask-type:alpha" maskUnits="userSpaceOnUse" x="0" y="0" width="76" height="76">
<rect width="76" height="76" rx="4" fill="#FFA263"/>
</mask>
<g mask="url(#mask0_48_2500)">
<path d="M33.8473 6.96912C33.9874 6.30549 34.6236 5.88422 35.2688 6.02822C35.914 6.1723 36.3229 6.82671 36.183 7.4903L36.1853 7.4849L36.183 7.49871C36.1793 7.52106 36.1729 7.56235 36.1666 7.6194C36.1541 7.73396 36.1414 7.9106 36.1456 8.13158C36.1542 8.5767 36.2311 9.17924 36.5017 9.81463C36.5791 9.99621 36.6989 10.1858 36.8514 10.379C37.1126 10.3709 37.3747 10.3658 37.6377 10.3658C37.6747 10.3658 37.7118 10.3669 37.7486 10.367C37.8254 9.91923 37.9478 9.47944 38.1351 9.07668C38.5927 8.09259 39.2054 7.38863 39.7014 6.93069C39.9502 6.70092 40.1737 6.52891 40.3412 6.4113C40.4248 6.35253 40.4954 6.3069 40.5484 6.2738C40.5749 6.25729 40.5974 6.24333 40.6149 6.23297C40.6236 6.22786 40.6314 6.2234 40.6377 6.21976C40.6408 6.21799 40.644 6.21637 40.6465 6.21496C40.6476 6.21432 40.65 6.21316 40.65 6.21316L40.6517 6.21196L40.6523 6.21135C40.6523 6.21135 40.6533 6.21128 41.0977 7.05198L40.6535 6.21135C41.2335 5.887 41.9592 6.1077 42.2746 6.70432C42.5899 7.30091 42.3752 8.0467 41.7953 8.37116L41.7959 8.37176L41.8006 8.36936L41.7889 8.37656C41.77 8.38835 41.7356 8.41034 41.6897 8.44261C41.5971 8.50765 41.4585 8.61319 41.2985 8.76085C40.9764 9.05826 40.5831 9.51195 40.2921 10.1377C40.2429 10.2435 40.2013 10.3627 40.1666 10.4931C52.5552 11.7444 62.3649 22.0001 63.2727 31.9339C74.1826 39.3869 81.2754 50.9583 81.2755 62.0084C81.2754 80.348 61.7382 77.8902 37.6377 77.8902C13.5374 77.8902 -5.99995 80.348 -6 62.0084C-5.99991 50.9585 1.09258 39.3869 12.0022 31.9339C12.8884 22.2365 22.259 12.2341 34.2297 10.5994C33.8709 9.67655 33.7674 8.81918 33.7551 8.18022C33.7485 7.83619 33.7673 7.54982 33.7901 7.34259C33.8015 7.23902 33.8143 7.15454 33.8246 7.09161C33.8297 7.0601 33.8342 7.03342 33.838 7.01295C33.8399 7.00276 33.8418 6.99388 33.8433 6.98653C33.8439 6.98304 33.8444 6.97976 33.845 6.97692C33.8453 6.97555 33.8459 6.97393 33.8462 6.97272V6.96972C33.8462 6.96972 33.847 6.96911 34.7563 7.17207L33.8473 6.96912Z" fill="white"/>
<path d="M36.9094 27.6012C37.0292 27.4929 37.674 27.4929 37.7938 27.6012C38.1736 27.9447 38.8415 28.8091 39.4487 29.3581C39.7942 29.6704 40.6881 29.8277 41.5906 29.9057C42.0509 29.946 42.147 31.0024 41.7027 31.2135C40.3913 31.8367 38.7416 32.4576 37.4044 32.4384C36.1303 32.42 34.568 31.8222 33.3104 31.2201C32.8663 31.0074 32.964 29.94 33.4243 29.8937C34.2406 29.812 35.0318 29.6554 35.3606 29.3581C35.9678 28.8091 36.5295 27.9447 36.9094 27.6012Z" fill="#2A7EFF"/>
<path d="M44.2784 26.6595C44.2412 25.1788 43.6763 23.9785 43.0167 23.9785C42.3571 23.9785 41.8526 25.1788 41.8899 26.6595C41.9271 28.1401 42.492 29.3405 43.1516 29.3405C43.8111 29.3405 44.3157 28.1401 44.2784 26.6595Z" fill="#373737"/>
<path d="M32.9206 26.6595C32.8834 25.1788 32.3185 23.9785 31.6589 23.9785C30.9993 23.9785 30.4948 25.1788 30.532 26.6595C30.5692 28.1401 31.1341 29.3405 31.7937 29.3405C32.4533 29.3405 32.9578 28.1401 32.9206 26.6595Z" fill="#373737"/>
<g filter="url(#filter0_ii_48_2500)">
<path d="M62.3889 32.3703C64.503 29.5649 68.977 32.3873 73.7671 36.206C78.5572 40.0246 81.8496 43.3937 79.7356 46.1992C77.6215 49.0047 72.0244 48.1835 67.2342 44.3648C62.4441 40.5461 60.2749 35.1759 62.3889 32.3703Z" fill="#FF5E14"/>
<path d="M2.0041 36.1796C6.79395 32.3608 11.2675 29.5383 13.3817 32.3433C15.4958 35.1487 13.3269 40.5189 8.53703 44.3378C3.74708 48.1567 -1.85011 48.9787 -3.96433 46.1734C-6.07849 43.3679 -2.78593 39.9985 2.0041 36.1796Z" fill="#FF5E14"/>
</g>
</g>
<defs>
<filter id="filter0_ii_48_2500" x="-4.61719" y="28.209" width="85.0059" height="24.6562" filterUnits="userSpaceOnUse" color-interpolation-filters="sRGB">
<feFlood flood-opacity="0" result="BackgroundImageFix"/>
<feBlend mode="normal" in="SourceGraphic" in2="BackgroundImageFix" result="shape"/>
<feColorMatrix in="SourceAlpha" type="matrix" values="0 0 0 0 0 0 0 0 0 0 0 0 0 0 0 0 0 0 127 0" result="hardAlpha"/>
<feOffset dy="-3"/>
<feGaussianBlur stdDeviation="2"/>
<feComposite in2="hardAlpha" operator="arithmetic" k2="-1" k3="1"/>
<feColorMatrix type="matrix" values="0 0 0 0 1 0 0 0 0 0.985109 0 0 0 0 0.900729 0 0 0 0.4 0"/>
<feBlend mode="normal" in2="shape" result="effect1_innerShadow_48_2500"/>
<feColorMatrix in="SourceAlpha" type="matrix" values="0 0 0 0 0 0 0 0 0 0 0 0 0 0 0 0 0 0 127 0" result="hardAlpha"/>
<feOffset dy="5"/>
<feGaussianBlur stdDeviation="2.5"/>
<feComposite in2="hardAlpha" operator="arithmetic" k2="-1" k3="1"/>
<feColorMatrix type="matrix" values="0 0 0 0 1 0 0 0 0 0.985109 0 0 0 0 0.900729 0 0 0 0.7 0"/>
<feBlend mode="normal" in2="effect1_innerShadow_48_2500" result="effect2_innerShadow_48_2500"/>
</filter>
</defs>
</svg>
