<svg width="36" height="44" viewBox="0 0 36 44" fill="none" xmlns="http://www.w3.org/2000/svg">
<path d="M2.78308 0H2.74708C2.57993 0.00350911 2.4148 0.0370504 2.25969 0.099C2.0354 0.18718 1.8382 0.33202 1.68763 0.519173C1.53705 0.706326 1.43833 0.929298 1.40123 1.166C1.35692 1.4245 0 9.88625 0 13.75C0 16.3625 1.224 18.6918 3.12923 20.1988C3.82154 20.7515 4.15385 21.351 4.15385 21.8515V23.2265C4.15385 23.276 4.15108 23.3255 4.14554 23.375C4.07077 24.09 3.72739 27.3047 3.40338 30.6102C3.08492 33.869 2.76923 37.3478 2.76923 38.5C2.76923 39.9587 3.35275 41.3576 4.39141 42.3891C5.43007 43.4205 6.8388 44 8.30769 44C9.77658 44 11.1853 43.4205 12.224 42.3891C13.2626 41.3576 13.8462 39.9587 13.8462 38.5C13.8462 37.345 13.5305 33.869 13.212 30.6102C12.9752 28.1984 12.7279 25.7875 12.4698 23.3778L12.4615 23.2265V21.8515C12.4615 21.3482 12.7938 20.7515 13.4862 20.1988C14.462 19.4263 15.25 18.4454 15.7918 17.329C16.3335 16.2126 16.615 14.9893 16.6154 13.75C16.6154 9.878 15.2502 1.37775 15.2142 1.16325C15.1734 0.904789 15.0593 0.663228 14.8852 0.466925C14.711 0.270621 14.4841 0.127721 14.2311 0.0549999C14.1149 0.0212426 13.9948 0.00275173 13.8738 0H13.8185H13.8212C13.4523 0.00290235 13.0994 0.150497 12.8395 0.410624C12.5796 0.670752 12.4338 1.02233 12.4338 1.38875V12.3888C12.4377 12.5675 12.406 12.7453 12.3406 12.9119C12.2753 13.0785 12.1775 13.2307 12.0529 13.3598C11.9283 13.4888 11.7794 13.5923 11.6145 13.6642C11.4497 13.7361 11.2722 13.7751 11.0922 13.7789C10.9121 13.7827 10.7331 13.7512 10.5654 13.6863C10.3976 13.6214 10.2443 13.5243 10.1144 13.4006C9.98437 13.2769 9.88019 13.1289 9.80778 12.9652C9.73536 12.8015 9.69613 12.6253 9.69231 12.4465V1.375C9.69231 1.01033 9.54643 0.660591 9.28676 0.402728C9.0271 0.144866 8.67492 0 8.30769 0C7.94047 0 7.58829 0.144866 7.32862 0.402728C7.06896 0.660591 6.92308 1.01033 6.92308 1.375V12.375L6.92585 12.463C6.91593 12.824 6.762 13.1664 6.49792 13.4147C6.23384 13.663 5.88124 13.797 5.51769 13.7871C5.15414 13.7773 4.80942 13.6244 4.55936 13.3622C4.3093 13.0999 4.17439 12.7498 4.18431 12.3888V1.3915C4.18431 1.02293 4.03706 0.66941 3.77488 0.408532C3.51269 0.147654 3.15423 0.000728405 2.78308 0ZM20.7692 12.375C20.7692 9.09295 22.0821 5.94532 24.4191 3.62455C26.7561 1.30379 29.9258 0 33.2308 0C33.598 0 33.9502 0.144866 34.2098 0.402728C34.4695 0.660591 34.6154 1.01033 34.6154 1.375V20.5645L34.6708 21.1805C34.8866 23.6514 35.0971 26.1227 35.3022 28.5945C35.6455 32.7388 36 37.2873 36 38.5C36 39.9587 35.4165 41.3576 34.3778 42.3891C33.3392 43.4205 31.9304 44 30.4615 44C28.9926 44 27.5839 43.4205 26.5453 42.3891C25.5066 41.3576 24.9231 39.9587 24.9231 38.5C24.9231 37.29 25.2775 32.7388 25.6209 28.5945C25.7926 26.5017 25.9671 24.4778 26.0972 22.979L26.1803 22H24.9231C23.8214 22 22.7649 21.5654 21.9859 20.7918C21.2069 20.0182 20.7692 18.969 20.7692 17.875V12.375Z" fill="#82D372"/>
</svg>
