<svg width="39" height="46" viewBox="0 0 39 46" fill="none" xmlns="http://www.w3.org/2000/svg">
<path d="M0 11.441C0 10.3411 0.436921 9.28632 1.21465 8.50859C1.99237 7.73087 3.04719 7.29395 4.14706 7.29395H20.3897C20.9797 7.29395 21.5639 7.41015 22.109 7.63593C22.654 7.8617 23.1493 8.19263 23.5665 8.60981C23.9837 9.02699 24.3146 9.52226 24.5404 10.0673C24.7661 10.6124 24.8824 11.1966 24.8824 11.7866V22.4998H28.6838C29.2738 22.4998 29.858 22.616 30.4031 22.8418C30.9482 23.0676 31.4434 23.3985 31.8606 23.8157C32.2778 24.2329 32.6087 24.7281 32.8345 25.2732C33.0603 25.8183 33.1765 26.4025 33.1765 26.9925V44.6175C33.1765 44.9841 33.0308 45.3357 32.7716 45.5949C32.5123 45.8542 32.1607 45.9998 31.7941 45.9998H26.2647V39.7792C26.2647 39.2293 26.0462 38.7019 25.6574 38.313C25.2685 37.9242 24.7411 37.7057 24.1912 37.7057H8.98529C8.43536 37.7057 7.90795 37.9242 7.51909 38.313C7.13023 38.7019 6.91176 39.2293 6.91176 39.7792V45.9998H1.38235C1.01573 45.9998 0.664124 45.8542 0.404882 45.5949C0.145641 45.3357 0 44.9841 0 44.6175V11.441ZM23.5 40.4704V45.9998H17.9706V40.4704H23.5ZM15.2059 40.4704V45.9998H9.67647V40.4704H15.2059ZM11.0588 16.2792C11.0588 15.7293 10.8404 15.2019 10.4515 14.813C10.0626 14.4242 9.53523 14.2057 8.98529 14.2057C8.43536 14.2057 7.90795 14.4242 7.51909 14.813C7.13023 15.2019 6.91176 15.7293 6.91176 16.2792C6.91176 16.8292 7.13023 17.3566 7.51909 17.7454C7.90795 18.1343 8.43536 18.3528 8.98529 18.3528C9.53523 18.3528 10.0626 18.1343 10.4515 17.7454C10.8404 17.3566 11.0588 16.8292 11.0588 16.2792ZM11.0588 23.191C11.0588 22.6411 10.8404 22.1137 10.4515 21.7248C10.0626 21.3359 9.53523 21.1175 8.98529 21.1175C8.43536 21.1175 7.90795 21.3359 7.51909 21.7248C7.13023 22.1137 6.91176 22.6411 6.91176 23.191C6.91176 23.7409 7.13023 24.2683 7.51909 24.6572C7.90795 25.0461 8.43536 25.2645 8.98529 25.2645C9.53523 25.2645 10.0626 25.0461 10.4515 24.6572C10.8404 24.2683 11.0588 23.7409 11.0588 23.191ZM8.98529 32.1763C9.53523 32.1763 10.0626 31.9578 10.4515 31.569C10.8404 31.1801 11.0588 30.6527 11.0588 30.1028C11.0588 29.5528 10.8404 29.0254 10.4515 28.6366C10.0626 28.2477 9.53523 28.0292 8.98529 28.0292C8.43536 28.0292 7.90795 28.2477 7.51909 28.6366C7.13023 29.0254 6.91176 29.5528 6.91176 30.1028C6.91176 30.6527 7.13023 31.1801 7.51909 31.569C7.90795 31.9578 8.43536 32.1763 8.98529 32.1763ZM17.9706 16.2792C17.9706 15.7293 17.7521 15.2019 17.3633 14.813C16.9744 14.4242 16.447 14.2057 15.8971 14.2057C15.3471 14.2057 14.8197 14.4242 14.4309 14.813C14.042 15.2019 13.8235 15.7293 13.8235 16.2792C13.8235 16.8292 14.042 17.3566 14.4309 17.7454C14.8197 18.1343 15.3471 18.3528 15.8971 18.3528C16.447 18.3528 16.9744 18.1343 17.3633 17.7454C17.7521 17.3566 17.9706 16.8292 17.9706 16.2792ZM15.8971 25.2645C16.447 25.2645 16.9744 25.0461 17.3633 24.6572C17.7521 24.2683 17.9706 23.7409 17.9706 23.191C17.9706 22.6411 17.7521 22.1137 17.3633 21.7248C16.9744 21.3359 16.447 21.1175 15.8971 21.1175C15.3471 21.1175 14.8197 21.3359 14.4309 21.7248C14.042 22.1137 13.8235 22.6411 13.8235 23.191C13.8235 23.7409 14.042 24.2683 14.4309 24.6572C14.8197 25.0461 15.3471 25.2645 15.8971 25.2645ZM17.9706 30.1028C17.9706 29.5528 17.7521 29.0254 17.3633 28.6366C16.9744 28.2477 16.447 28.0292 15.8971 28.0292C15.3471 28.0292 14.8197 28.2477 14.4309 28.6366C14.042 29.0254 13.8235 29.5528 13.8235 30.1028C13.8235 30.6527 14.042 31.1801 14.4309 31.569C14.8197 31.9578 15.3471 32.1763 15.8971 32.1763C16.447 32.1763 16.9744 31.9578 17.3633 31.569C17.7521 31.1801 17.9706 30.6527 17.9706 30.1028ZM22.8088 32.1763C23.3588 32.1763 23.8862 31.9578 24.275 31.569C24.6639 31.1801 24.8824 30.6527 24.8824 30.1028C24.8824 29.5528 24.6639 29.0254 24.275 28.6366C23.8862 28.2477 23.3588 28.0292 22.8088 28.0292C22.2589 28.0292 21.7315 28.2477 21.3426 28.6366C20.9538 29.0254 20.7353 29.5528 20.7353 30.1028C20.7353 30.6527 20.9538 31.1801 21.3426 31.569C21.7315 31.9578 22.2589 32.1763 22.8088 32.1763Z" fill="#7595B7"/>
<path d="M35.5098 1L35.7578 1.01367C36.005 1.03954 36.2473 1.10202 36.4766 1.2002C36.7821 1.3311 37.0583 1.52209 37.2891 1.76074C37.5198 1.99936 37.7006 2.28145 37.8223 2.58984C37.9423 2.89393 38.0027 3.21825 38 3.54492V12.041L37.9951 12.2158C37.9698 12.6224 37.848 13.0189 37.6377 13.3701C37.4083 13.7531 37.0804 14.0666 36.6895 14.2822L36.6904 14.2832L29.5205 18.6104L29.4932 18.627L29.4648 18.6416C29.012 18.8769 28.5093 19 27.999 19C27.4889 19 26.9869 18.8768 26.5342 18.6416L26.5059 18.627L26.4785 18.6104L19.3086 14.2832H19.3076C18.9166 14.0671 18.5903 13.7508 18.3613 13.3672C18.1215 12.9654 17.9965 12.5055 18 12.0381V3.54297C17.9969 2.88003 18.2517 2.23921 18.7139 1.76172C19.1785 1.28177 19.8157 1.00607 20.4854 1H35.5098ZM27.5 8.33301H24.5V9.37988H27.5V12.4268H28.5V9.37988H31.5V8.33301H28.5V5.28516H27.5V8.33301Z" fill="#7595B7" stroke="white" stroke-width="2"/>
</svg>
