<svg width="60" height="60" viewBox="0 0 60 60" fill="none" xmlns="http://www.w3.org/2000/svg">
<circle cx="30" cy="30" r="30" fill="#FF6A25"/>
<path d="M41.5498 28.3498H31.6498V18.4498C31.6498 18.0122 31.476 17.5925 31.1665 17.2831C30.8571 16.9736 30.4374 16.7998 29.9998 16.7998C29.5622 16.7998 29.1425 16.9736 28.8331 17.2831C28.5236 17.5925 28.3498 18.0122 28.3498 18.4498V28.3498H18.4498C18.0122 28.3498 17.5925 28.5236 17.2831 28.8331C16.9736 29.1425 16.7998 29.5622 16.7998 29.9998C16.7998 30.4374 16.9736 30.8571 17.2831 31.1665C17.5925 31.476 18.0122 31.6498 18.4498 31.6498H28.3498V41.5498C28.3498 41.9874 28.5236 42.4071 28.8331 42.7165C29.1425 43.026 29.5622 43.1998 29.9998 43.1998C30.4374 43.1998 30.8571 43.026 31.1665 42.7165C31.476 42.4071 31.6498 41.9874 31.6498 41.5498V31.6498H41.5498C41.9874 31.6498 42.4071 31.476 42.7165 31.1665C43.026 30.8571 43.1998 30.4374 43.1998 29.9998C43.1998 29.5622 43.026 29.1425 42.7165 28.8331C42.4071 28.5236 41.9874 28.3498 41.5498 28.3498Z" fill="white"/>
</svg>
