<svg width="19" height="18" viewBox="0 0 19 18" fill="none" xmlns="http://www.w3.org/2000/svg">
<path d="M7.21289 13.2124C5.39622 13.2124 3.85889 12.5831 2.60089 11.3244C1.34289 10.0657 0.713558 8.5284 0.712891 6.7124C0.712224 4.8964 1.34156 3.35907 2.60089 2.1004C3.86022 0.841736 5.39756 0.212402 7.21289 0.212402C9.02822 0.212402 10.5659 0.841736 11.8259 2.1004C13.0859 3.35907 13.7149 4.8964 13.7129 6.7124C13.7129 7.44574 13.5962 8.1374 13.3629 8.7874C13.1296 9.4374 12.8129 10.0124 12.4129 10.5124L18.0129 16.1124C18.1962 16.2957 18.2879 16.5291 18.2879 16.8124C18.2879 17.0957 18.1962 17.3291 18.0129 17.5124C17.8296 17.6957 17.5962 17.7874 17.3129 17.7874C17.0296 17.7874 16.7962 17.6957 16.6129 17.5124L11.0129 11.9124C10.5129 12.3124 9.93789 12.6291 9.28789 12.8624C8.63789 13.0957 7.94622 13.2124 7.21289 13.2124ZM7.21289 11.2124C8.46289 11.2124 9.52556 10.7751 10.4009 9.9004C11.2762 9.02574 11.7136 7.96307 11.7129 6.7124C11.7122 5.46174 11.2749 4.3994 10.4009 3.5254C9.52689 2.6514 8.46422 2.21374 7.21289 2.2124C5.96156 2.21107 4.89922 2.64874 4.02589 3.5254C3.15256 4.40207 2.71489 5.4644 2.71289 6.7124C2.71089 7.9604 3.14856 9.02307 4.02589 9.9004C4.90322 10.7777 5.96556 11.2151 7.21289 11.2124Z" fill="#FF6A25"/>
</svg>
