<svg width="24" height="22" viewBox="0 0 24 22" fill="none" xmlns="http://www.w3.org/2000/svg">
<path d="M16.8057 0.5C18.4809 0.500046 20.0886 1.15302 21.3164 2.31738L21.5566 2.55664C22.8066 3.87419 23.5037 5.63148 23.5 7.45898V7.46094C23.5034 9.17461 22.8903 10.8259 21.7832 12.1113L21.5566 12.3623C20.6656 13.2956 19.776 14.252 18.8848 15.208C17.0704 17.1547 15.2465 19.1118 13.3535 20.9531L13.3398 20.9668C12.9642 21.3199 12.4683 21.5114 11.957 21.5C11.4399 21.4884 10.9471 21.2702 10.5859 20.8926L2.44141 12.3623C-0.147618 9.64804 -0.146925 5.27037 2.44238 2.55762L2.44434 2.55566C3.63626 1.29344 5.27092 0.556629 6.99414 0.503906C8.71732 0.451259 10.3932 1.08656 11.6582 2.27344L12 2.59375L12.3418 2.27344C13.5571 1.13556 15.151 0.503001 16.8057 0.5Z" fill="white" stroke="#C5C5C5"/>
</svg>
