<svg width="24" height="23" viewBox="0 0 24 23" fill="none" xmlns="http://www.w3.org/2000/svg">
<path fill-rule="evenodd" clip-rule="evenodd" d="M11.9999 2.40891C13.3073 1.18461 15.0231 0.503047 16.8055 0.5C18.7322 0.5 20.5719 1.30102 21.9181 2.71126C23.2577 4.12264 24.004 6.00385 24 7.95963C24.004 9.91542 23.2577 11.7966 21.9181 13.208C21.0295 14.1388 20.1421 15.0921 19.2502 16.0488C17.4373 17.9938 15.6055 19.9603 13.7022 21.8116L13.6988 21.8161C13.2263 22.2684 12.5962 22.514 11.9455 22.4994C11.2948 22.4848 10.6761 22.2113 10.2238 21.7383L2.08049 13.208C-0.693496 10.3006 -0.693496 5.61863 2.08049 2.71239C3.36267 1.3545 5.12225 0.561374 6.97859 0.504579C8.83492 0.447784 10.6388 1.13189 11.9999 2.40891Z" fill="#FF6A25"/>
</svg>
