<svg width="89" height="21" viewBox="0 0 89 21" fill="none" xmlns="http://www.w3.org/2000/svg">
<path d="M12.3204 13.5082C12.3204 15.1651 13.6635 16.5082 15.3204 16.5082H18.4157C19.7126 16.5082 20.2313 17.3992 20.2313 18.2902C20.2313 19.2246 19.691 20.0721 18.4157 20.0721H1.81563C0.540367 20.0721 0 19.2246 0 18.2902C0 17.3992 0.518752 16.5082 1.81563 16.5082H4.91097C6.56782 16.5082 7.91097 15.1651 7.91097 13.5082V12.3142H4.43101C1.88048 12.3142 1.14558 11.4015 1.14558 8.96762V2.88298C1.14558 1.42701 2.2047 0.775081 3.37189 0.775081C4.5607 0.775081 5.55497 1.44874 5.55497 2.88298V8.03319C5.55497 8.51127 5.68466 8.61993 6.1818 8.61993H17.5079C18.7615 8.61993 19.2371 9.57609 19.2371 10.4453C19.2371 11.3363 18.7399 12.3142 17.5079 12.3142H12.3204V13.5082Z" fill="white"/>
<path d="M24.2117 12.0606C23.1094 12.0824 22.3312 11.4304 22.3312 10.4526C22.3312 9.4964 22.8932 8.90966 23.7362 8.82274C25.6599 8.5837 26.7838 7.36677 26.7838 5.49791V5.2806H24.0172C23.0013 5.2806 22.4393 4.38964 22.4393 3.60733C22.4393 2.82501 22.9148 1.89059 24.0172 1.89059H26.6974C26.6974 0.608465 27.4107 0 28.7508 0C30.0909 0 30.8474 0.630195 30.8474 1.89059H33.5925C34.6948 1.89059 35.1703 2.82501 35.1703 3.60733C35.1703 4.38964 34.6084 5.2806 33.5925 5.2806H30.8042V5.56311C30.8042 5.86734 30.7826 6.17157 30.7393 6.4758C33.8518 6.56273 35.4513 8.12735 35.3649 11.7999H31.3662C31.5391 10.2135 30.7609 9.34428 29.6154 9.40947C28.3617 11.1045 26.3083 12.0389 24.2117 12.0606ZM34.5867 6.58446C34.5867 5.58484 35.2784 4.86772 36.3808 4.86772H37.4831V2.28174C37.4831 0.869235 38.499 0.130385 39.6446 0.130385C40.7902 0.130385 41.806 0.869235 41.806 2.28174V11.4142L37.4831 12.0606V8.25774H36.3808C35.3 8.25774 34.5867 7.60581 34.5867 6.58446ZM28.0375 12.7343H37.5047C40.5956 12.7343 42.0438 14.3207 42.0438 16.6676C42.0438 19.0145 40.5956 20.6009 37.5047 20.6009H28.0375C24.925 20.6009 23.4984 18.9711 23.4984 16.6676C23.4984 14.3641 24.925 12.7343 28.0375 12.7343ZM29.075 17.6889H36.4888C37.2886 17.6889 37.656 17.2543 37.656 16.6676C37.656 16.0809 37.2886 15.6462 36.4888 15.6462H29.075C28.2536 15.6462 27.8862 16.0809 27.8862 16.6676C27.8862 17.2543 28.2536 17.6889 29.075 17.6889Z" fill="white"/>
<path d="M64.2853 7.96255H65.0634C66.3819 7.96255 66.771 8.9839 66.771 9.85314C66.771 10.7441 66.3603 11.7437 65.0634 11.7437H64.2853V20.016C64.2853 20.016 63.1481 20.7446 62.304 20.9214C61.4599 21.0982 59.9624 20.9214 59.9624 20.9214V2.5081C59.9624 1.09559 60.9783 0.356744 62.1239 0.356744C63.2694 0.356744 64.2853 1.09559 64.2853 2.5081V7.96255ZM49.2199 1.07386H54.3642C57.1525 1.07386 57.6712 1.92137 57.6712 4.65946V19.9363H49.2199C46.4316 19.9363 45.9128 19.0888 45.9128 16.3507V4.65946C45.9128 1.92137 46.4316 1.07386 49.2199 1.07386ZM51.9469 16.8341C53.4996 16.8341 53.4996 16.5245 53.4996 16.5245V5.20273C53.4996 4.76811 53.3915 4.48561 52.916 4.48561H50.6464C50.1709 4.48561 50.0845 4.76811 50.0845 5.20273V15.7857C50.0845 16.2638 50.8212 16.8341 51.9469 16.8341Z" fill="white"/>
<path d="M86.5268 11.5608H72.9744C70.5103 11.5608 69.2135 10.257 69.2135 8.236V7.91004C69.2135 5.88907 70.5103 4.69387 72.9744 4.69387H83.0036V4.1506C83.0036 3.88983 82.9172 3.65079 82.4849 3.65079H70.921C69.97 3.65079 69.4296 2.89021 69.4296 2.1079C69.4296 1.34731 69.9484 0.565002 70.921 0.565002H84.2141C86.743 0.565002 87.4779 1.67328 87.4779 3.41175V7.47542H74.4874C74.0552 7.47542 73.8606 7.671 73.8606 8.0187C73.8606 8.38812 74.0552 8.54024 74.4874 8.54024H86.5268C87.6076 8.54024 88.0182 9.32255 88.0182 10.0614C88.0182 10.7785 87.6076 11.5608 86.5268 11.5608ZM70.251 12.6256H86.851C88.1479 12.6256 88.6667 13.5166 88.6667 14.4076C88.6667 15.3203 88.1263 16.1895 86.851 16.1895H80.7557V19.7099C80.7557 19.7099 79.9293 20.3727 78.7401 20.6951C77.8906 20.9254 76.3463 20.6443 76.3463 20.6443V16.1895H70.251C68.9757 16.1895 68.4353 15.3203 68.4353 14.4076C68.4353 13.5166 68.9541 12.6256 70.251 12.6256Z" fill="white"/>
</svg>
