<svg width="26" height="29" viewBox="0 0 26 29" fill="none" xmlns="http://www.w3.org/2000/svg">
<path d="M16.0332 25.25C15.8446 25.6698 15.578 26.0577 15.2383 26.3906C14.5171 27.0973 13.5327 27.5 12.5 27.5C11.4673 27.5 10.4829 27.0973 9.76172 26.3906C9.42205 26.0577 9.15535 25.6698 8.9668 25.25H16.0332ZM12.5 2.5C14.9535 2.5 17.3005 3.45531 19.0264 5.14648C20.7512 6.83676 21.7148 9.12296 21.7148 11.5V18.4053L22.165 18.8467L23.4268 20.083V20.084C23.4645 20.121 23.4874 20.1644 23.4961 20.207C23.5047 20.2494 23.5001 20.294 23.4824 20.3359C23.4645 20.3781 23.4322 20.4191 23.3848 20.4502C23.3369 20.4815 23.2771 20.5 23.2139 20.5H1.78613C1.72294 20.5 1.66306 20.4815 1.61523 20.4502C1.56782 20.4191 1.53546 20.3781 1.51758 20.3359C1.49987 20.294 1.49533 20.2494 1.50391 20.207C1.51256 20.1644 1.53453 20.12 1.57227 20.083L2.83496 18.8467L3.28516 18.4053V11.5C3.28516 9.12296 4.24881 6.83676 5.97363 5.14648C7.69947 3.45531 10.0465 2.5 12.5 2.5Z" stroke="white" stroke-width="3"/>
<circle cx="20" cy="6" r="5" fill="#FFE668" stroke="url(#paint0_linear_0_535)" stroke-width="2"/>
<defs>
<linearGradient id="paint0_linear_0_535" x1="20" y1="2" x2="20" y2="10" gradientUnits="userSpaceOnUse">
<stop stop-color="#FE7434"/>
<stop offset="1" stop-color="#FF8A54"/>
</linearGradient>
</defs>
</svg>
