<svg width="325" height="247" viewBox="0 0 325 247" fill="none" xmlns="http://www.w3.org/2000/svg">
<rect width="325" height="247" rx="20" fill="#EDEDED"/>
<path d="M142.545 146C141.295 146 140.225 145.559 139.335 144.678C138.445 143.797 138 142.737 138 141.5V114.5C138 113.262 138.445 112.203 139.335 111.322C140.225 110.441 141.295 110 142.545 110H149.705L153.909 105.5H167.545V110H155.898L151.75 114.5H142.545V141.5H178.909V121.25H183.455V141.5C183.455 142.737 183.009 143.797 182.119 144.678C181.229 145.559 180.159 146 178.909 146H142.545ZM178.909 114.5V110H174.364V105.5H178.909V101H183.455V105.5H188V110H183.455V114.5H178.909ZM160.727 138.125C163.568 138.125 165.983 137.141 167.972 135.172C169.96 133.203 170.955 130.812 170.955 128C170.955 125.188 169.96 122.797 167.972 120.828C165.983 118.859 163.568 117.875 160.727 117.875C157.886 117.875 155.472 118.859 153.483 120.828C151.494 122.797 150.5 125.188 150.5 128C150.5 130.812 151.494 133.203 153.483 135.172C155.472 137.141 157.886 138.125 160.727 138.125ZM160.727 133.625C159.136 133.625 157.792 133.081 156.693 131.994C155.595 130.906 155.045 129.575 155.045 128C155.045 126.425 155.595 125.094 156.693 124.006C157.792 122.919 159.136 122.375 160.727 122.375C162.318 122.375 163.663 122.919 164.761 124.006C165.86 125.094 166.409 126.425 166.409 128C166.409 129.575 165.86 130.906 164.761 131.994C163.663 133.081 162.318 133.625 160.727 133.625Z" fill="white"/>
</svg>
