<svg width="146" height="131" viewBox="0 0 146 131" fill="none" xmlns="http://www.w3.org/2000/svg">
<path d="M66.6592 1.57617C66.8935 0.496853 67.9578 -0.188305 69.0371 0.0458949C70.1164 0.280228 70.8005 1.34455 70.5664 2.42382L70.5703 2.41504L70.5664 2.4375C70.5603 2.47385 70.5496 2.541 70.5391 2.63379C70.518 2.8201 70.4968 3.1074 70.5039 3.46679C70.5182 4.19073 70.6469 5.1707 71.0996 6.2041C71.229 6.49942 71.4295 6.80781 71.6846 7.12207C72.1215 7.10877 72.5599 7.10059 73 7.10058C73.0618 7.10058 73.1238 7.10227 73.1855 7.10254C73.314 6.37423 73.5188 5.65895 73.832 5.0039C74.5975 3.40338 75.6225 2.25847 76.4521 1.51367C76.8685 1.13997 77.2424 0.860224 77.5225 0.668942C77.6624 0.573359 77.7804 0.499149 77.8691 0.445309C77.9134 0.418458 77.9511 0.395754 77.9805 0.378903C77.995 0.370583 78.008 0.363333 78.0186 0.357418C78.0237 0.354531 78.029 0.351911 78.0332 0.349606C78.0351 0.348574 78.0391 0.346676 78.0391 0.346676L78.042 0.344723L78.043 0.343747C78.043 0.343747 78.0446 0.34363 78.7881 1.71093L78.0449 0.343747C79.0153 -0.183787 80.2292 0.175159 80.7568 1.1455C81.2843 2.1158 80.9252 3.32875 79.9551 3.85644L79.9561 3.85742L79.9639 3.85351L79.9443 3.86523C79.9128 3.8844 79.8552 3.92017 79.7783 3.97265C79.6235 4.07843 79.3916 4.25007 79.124 4.49023C78.5852 4.97394 77.9272 5.71182 77.4404 6.72949C77.3581 6.90158 77.2884 7.09548 77.2305 7.30761C97.955 9.34274 114.365 26.0225 115.884 42.1787C134.135 54.3003 146 73.12 146 91.0918C146 120.919 113.317 130.5 73 130.5C32.6834 130.5 8.91881e-05 120.919 0 91.0918C0.000144388 73.1203 11.8649 54.3003 30.1152 42.1787C31.5976 26.4069 47.2735 10.1391 67.2988 7.48047C66.6986 5.97952 66.5254 4.5851 66.5049 3.54589C66.4938 2.98638 66.5254 2.52063 66.5635 2.18359C66.5825 2.01513 66.6039 1.87774 66.6211 1.77539C66.6297 1.72414 66.6371 1.68075 66.6436 1.64746C66.6468 1.63089 66.6499 1.61644 66.6523 1.60449C66.6535 1.59881 66.6543 1.59348 66.6553 1.58886C66.6557 1.58663 66.6568 1.584 66.6572 1.58203V1.57714C66.6572 1.57714 66.6586 1.57615 68.1797 1.90625L66.6592 1.57617Z" fill="white"/>
<path d="M71.7815 35.1321C71.9819 34.956 73.0606 34.956 73.261 35.1321C73.8965 35.6907 75.0137 37.0966 76.0296 37.9896C76.6075 38.4974 78.1028 38.7532 79.6126 38.8802C80.3826 38.9456 80.5433 40.6637 79.8001 41.0071C77.6063 42.0207 74.8467 43.0306 72.6096 42.9993C70.4783 42.9694 67.8648 41.9972 65.761 41.0179C65.0181 40.6719 65.1815 38.9358 65.9514 38.8606C67.3171 38.7277 68.6406 38.4731 69.1907 37.9896C70.2065 37.0967 71.1461 35.6907 71.7815 35.1321Z" fill="#2A7EFF"/>
<path d="M84.109 33.6005C84.0467 31.1923 83.1017 29.2402 81.9983 29.2402C80.8949 29.2402 80.0509 31.1923 80.1132 33.6005C80.1755 36.0086 81.1205 37.9608 82.2239 37.9608C83.3273 37.9608 84.1712 36.0086 84.109 33.6005Z" fill="#373737"/>
<path d="M65.1088 33.6005C65.0466 31.1923 64.1016 29.2402 62.9982 29.2402C61.8948 29.2402 61.0508 31.1923 61.1131 33.6005C61.1754 36.0086 62.1203 37.9608 63.2237 37.9608C64.3271 37.9608 65.1711 36.0086 65.1088 33.6005Z" fill="#373737"/>
<g filter="url(#filter0_ii_0_921)">
<path d="M13.388 49.0841C21.4008 42.8733 28.8844 38.2829 32.4212 42.8449C35.9579 47.4075 32.3295 56.1416 24.3167 62.3527C16.3038 68.5637 6.94048 69.9006 3.40366 65.338C-0.13304 60.7752 5.37497 55.2952 13.388 49.0841Z" fill="#FF5E14"/>
</g>
<g filter="url(#filter1_ii_0_921)">
<path d="M111.354 42.8453C114.891 38.2826 122.375 42.8729 130.388 49.0836C138.402 55.2943 143.909 60.7737 140.373 65.3366C136.836 69.8994 127.473 68.5639 119.46 62.3532C111.446 56.1424 107.818 47.4082 111.354 42.8453Z" fill="#FF5E14"/>
</g>
<defs>
<filter id="filter0_ii_0_921" x="2.31152" y="38" width="31.4639" height="35.0469" filterUnits="userSpaceOnUse" color-interpolation-filters="sRGB">
<feFlood flood-opacity="0" result="BackgroundImageFix"/>
<feBlend mode="normal" in="SourceGraphic" in2="BackgroundImageFix" result="shape"/>
<feColorMatrix in="SourceAlpha" type="matrix" values="0 0 0 0 0 0 0 0 0 0 0 0 0 0 0 0 0 0 127 0" result="hardAlpha"/>
<feOffset dy="-3"/>
<feGaussianBlur stdDeviation="2"/>
<feComposite in2="hardAlpha" operator="arithmetic" k2="-1" k3="1"/>
<feColorMatrix type="matrix" values="0 0 0 0 1 0 0 0 0 0.985109 0 0 0 0 0.900729 0 0 0 0.4 0"/>
<feBlend mode="normal" in2="shape" result="effect1_innerShadow_0_921"/>
<feColorMatrix in="SourceAlpha" type="matrix" values="0 0 0 0 0 0 0 0 0 0 0 0 0 0 0 0 0 0 127 0" result="hardAlpha"/>
<feOffset dy="5"/>
<feGaussianBlur stdDeviation="2.5"/>
<feComposite in2="hardAlpha" operator="arithmetic" k2="-1" k3="1"/>
<feColorMatrix type="matrix" values="0 0 0 0 1 0 0 0 0 0.985109 0 0 0 0 0.900729 0 0 0 0.7 0"/>
<feBlend mode="normal" in2="effect1_innerShadow_0_921" result="effect2_innerShadow_0_921"/>
</filter>
<filter id="filter1_ii_0_921" x="110" y="38" width="31.4648" height="35.0461" filterUnits="userSpaceOnUse" color-interpolation-filters="sRGB">
<feFlood flood-opacity="0" result="BackgroundImageFix"/>
<feBlend mode="normal" in="SourceGraphic" in2="BackgroundImageFix" result="shape"/>
<feColorMatrix in="SourceAlpha" type="matrix" values="0 0 0 0 0 0 0 0 0 0 0 0 0 0 0 0 0 0 127 0" result="hardAlpha"/>
<feOffset dy="-3"/>
<feGaussianBlur stdDeviation="2"/>
<feComposite in2="hardAlpha" operator="arithmetic" k2="-1" k3="1"/>
<feColorMatrix type="matrix" values="0 0 0 0 1 0 0 0 0 0.985109 0 0 0 0 0.900729 0 0 0 0.4 0"/>
<feBlend mode="normal" in2="shape" result="effect1_innerShadow_0_921"/>
<feColorMatrix in="SourceAlpha" type="matrix" values="0 0 0 0 0 0 0 0 0 0 0 0 0 0 0 0 0 0 127 0" result="hardAlpha"/>
<feOffset dy="5"/>
<feGaussianBlur stdDeviation="2.5"/>
<feComposite in2="hardAlpha" operator="arithmetic" k2="-1" k3="1"/>
<feColorMatrix type="matrix" values="0 0 0 0 1 0 0 0 0 0.985109 0 0 0 0 0.900729 0 0 0 0.7 0"/>
<feBlend mode="normal" in2="effect1_innerShadow_0_921" result="effect2_innerShadow_0_921"/>
</filter>
</defs>
</svg>
