<svg width="32" height="7" viewBox="0 0 32 7" fill="none" xmlns="http://www.w3.org/2000/svg">
<path d="M3.2 0C2.35131 0 1.53737 0.368748 0.937258 1.02513C0.337142 1.6815 0 2.57174 0 3.5C0 4.42826 0.337142 5.3185 0.937258 5.97487C1.53737 6.63125 2.35131 7 3.2 7C4.04869 7 4.86263 6.63125 5.46274 5.97487C6.06286 5.3185 6.4 4.42826 6.4 3.5C6.4 2.57174 6.06286 1.6815 5.46274 1.02513C4.86263 0.368748 4.04869 0 3.2 0ZM12.8 3.5C12.8 2.57174 13.1371 1.6815 13.7373 1.02513C14.3374 0.368748 15.1513 0 16 0C16.8487 0 17.6626 0.368748 18.2627 1.02513C18.8629 1.6815 19.2 2.57174 19.2 3.5C19.2 4.42826 18.8629 5.3185 18.2627 5.97487C17.6626 6.63125 16.8487 7 16 7C15.1513 7 14.3374 6.63125 13.7373 5.97487C13.1371 5.3185 12.8 4.42826 12.8 3.5ZM25.6 3.5C25.6 2.57174 25.9371 1.6815 26.5373 1.02513C27.1374 0.368748 27.9513 0 28.8 0C29.6487 0 30.4626 0.368748 31.0627 1.02513C31.6629 1.6815 32 2.57174 32 3.5C32 4.42826 31.6629 5.3185 31.0627 5.97487C30.4626 6.63125 29.6487 7 28.8 7C27.9513 7 27.1374 6.63125 26.5373 5.97487C25.9371 5.3185 25.6 4.42826 25.6 3.5Z" fill="#8B8B8B"/>
</svg>
