<svg width="203" height="154" viewBox="0 0 203 154" fill="none" xmlns="http://www.w3.org/2000/svg">
<g filter="url(#filter0_d_0_477)">
<path d="M87.8491 23.7406C88.172 22.2534 89.6384 21.3094 91.1256 21.6321C92.6126 21.955 93.5553 23.4215 93.2327 24.9086L93.2381 24.8964L93.2327 24.9274C93.2243 24.9775 93.2095 25.07 93.1951 25.1978C93.1661 25.4546 93.1368 25.8504 93.1466 26.3456C93.1663 27.3431 93.3437 28.6934 93.9674 30.1173C94.1457 30.5242 94.4219 30.9491 94.7734 31.3821C95.3754 31.3638 95.9795 31.3525 96.5859 31.3525C96.671 31.3525 96.7565 31.3548 96.8416 31.3552C97.0185 30.3517 97.3007 29.3661 97.7323 28.4636C98.7871 26.2583 100.199 24.6807 101.342 23.6545C101.916 23.1396 102.431 22.7541 102.817 22.4906C103.01 22.3589 103.173 22.2566 103.295 22.1824C103.356 22.1454 103.408 22.1141 103.448 22.0909C103.468 22.0795 103.486 22.0695 103.501 22.0613C103.508 22.0573 103.515 22.0537 103.521 22.0506C103.524 22.0491 103.529 22.0465 103.529 22.0465L103.533 22.0438L103.534 22.0425C103.534 22.0425 103.537 22.0423 104.561 23.9263L103.537 22.0425C104.874 21.3156 106.547 21.8102 107.274 23.1472C108.001 24.4841 107.506 26.1554 106.169 26.8825L106.17 26.8839L106.181 26.8785L106.154 26.8946C106.111 26.921 106.031 26.9703 105.926 27.0426C105.712 27.1884 105.393 27.4249 105.024 27.7558C104.282 28.4223 103.375 29.439 102.704 30.8412C102.591 31.0783 102.495 31.3455 102.415 31.6378C130.97 34.4419 153.582 57.4244 155.674 79.6854C180.821 96.3874 197.17 122.318 197.17 147.081C197.17 188.179 152.137 182.671 96.5859 182.671C41.0351 182.672 -3.99817 188.179 -3.99829 147.081C-3.99809 122.319 12.35 96.3874 37.4965 79.6854C39.539 57.954 61.1382 35.5391 88.7304 31.8759C87.9034 29.8078 87.6648 27.8865 87.6365 26.4546C87.6213 25.6837 87.6647 25.0419 87.7172 24.5775C87.7435 24.3454 87.7729 24.1561 87.7966 24.0151C87.8085 23.9445 87.8187 23.8847 87.8276 23.8388C87.832 23.816 87.8363 23.7961 87.8397 23.7796C87.8413 23.7718 87.8423 23.7644 87.8437 23.7581C87.8444 23.755 87.8458 23.7514 87.8464 23.7487V23.7419C87.8464 23.7419 87.8484 23.7406 89.9442 24.1954L87.8491 23.7406Z" fill="white"/>
<path d="M94.907 69.9762C95.1831 69.7335 96.6694 69.7335 96.9455 69.9762C97.8211 70.7458 99.3605 72.683 100.76 73.9133C101.557 74.6131 103.617 74.9656 105.697 75.1405C106.758 75.2306 106.98 77.598 105.955 78.0712C102.933 79.4678 99.1304 80.8592 96.048 80.8161C93.1113 80.7749 89.5102 79.4353 86.6115 78.086C85.5879 77.6093 85.813 75.2172 86.8739 75.1136C88.7556 74.9305 90.5792 74.5796 91.3372 73.9133C92.7368 72.683 94.0315 70.7458 94.907 69.9762Z" fill="#2A7EFF"/>
<path d="M111.893 67.8658C111.807 64.5477 110.505 61.8578 108.984 61.8578C107.464 61.8578 106.301 64.5477 106.387 67.8658C106.473 71.1839 107.775 73.8738 109.295 73.8738C110.815 73.8738 111.978 71.1839 111.893 67.8658Z" fill="#373737"/>
<path d="M85.7129 67.8658C85.6271 64.5477 84.3251 61.8578 82.8048 61.8578C81.2844 61.8578 80.1215 64.5477 80.2073 67.8658C80.2932 71.1839 81.5952 73.8738 83.1155 73.8738C84.6359 73.8738 85.7988 71.1839 85.7129 67.8658Z" fill="#373737"/>
<g filter="url(#filter1_ii_0_477)">
<path d="M153.634 80.664C158.507 74.3772 168.819 80.702 179.861 89.2595C190.902 97.817 198.49 105.367 193.618 111.654C188.745 117.941 175.844 116.101 164.802 107.543C153.761 98.9856 148.761 86.9511 153.634 80.664Z" fill="#FF5E14"/>
<path d="M14.4481 89.2003C25.4886 80.6426 35.8 74.3177 40.6733 80.6035C45.5463 86.8903 40.5469 98.9246 29.5064 107.483C18.4656 116.041 5.56423 117.883 0.690976 111.596C-4.18212 105.309 3.40718 97.7584 14.4481 89.2003Z" fill="#FF5E14"/>
</g>
<path d="M23.3546 61.2663C22.9857 59.1226 24.0283 57.064 25.8449 56.3489L48.0972 47.59L48.6296 61.9181L28.1658 65.1275C25.9358 65.4773 23.7817 63.7485 23.3546 61.2663Z" fill="#3485FF"/>
<path d="M124.411 45.3505C127.073 44.707 128.681 41.756 127.616 38.8958C124.137 29.5547 117.693 21.5762 109.239 16.2898C99.2281 10.0302 87.2174 8.05794 75.849 10.807C64.4807 13.5561 54.6859 20.8012 48.6195 30.9486C43.4963 39.5183 41.3866 49.5651 42.5343 59.4699C42.8858 62.5028 45.6584 64.3943 48.3196 63.7508L124.411 45.3505Z" fill="url(#paint0_linear_0_477)"/>
<path d="M115.506 41.476C116.171 41.3151 116.574 40.5765 116.298 39.8654C115.504 37.8157 114.073 36.0665 112.206 34.8996C109.951 33.4892 107.245 33.0449 104.683 33.6643C102.122 34.2837 99.915 35.9161 98.5482 38.2024C97.4173 40.0941 96.9381 42.3052 97.1623 44.4928C97.2401 45.2518 97.9343 45.7251 98.5996 45.5642C99.2649 45.4033 115.506 41.476 115.506 41.476Z" fill="white"/>
</g>
<defs>
<filter id="filter0_d_0_477" x="-8.99829" y="4.5957" width="211.168" height="183.322" filterUnits="userSpaceOnUse" color-interpolation-filters="sRGB">
<feFlood flood-opacity="0" result="BackgroundImageFix"/>
<feColorMatrix in="SourceAlpha" type="matrix" values="0 0 0 0 0 0 0 0 0 0 0 0 0 0 0 0 0 0 127 0" result="hardAlpha"/>
<feOffset/>
<feGaussianBlur stdDeviation="2.5"/>
<feComposite in2="hardAlpha" operator="out"/>
<feColorMatrix type="matrix" values="0 0 0 0 0 0 0 0 0 0 0 0 0 0 0 0 0 0 0.25 0"/>
<feBlend mode="normal" in2="BackgroundImageFix" result="effect1_dropShadow_0_477"/>
<feBlend mode="normal" in="SourceGraphic" in2="effect1_dropShadow_0_477" result="shape"/>
</filter>
<filter id="filter1_ii_0_477" x="-0.813843" y="75.0615" width="195.936" height="45.3262" filterUnits="userSpaceOnUse" color-interpolation-filters="sRGB">
<feFlood flood-opacity="0" result="BackgroundImageFix"/>
<feBlend mode="normal" in="SourceGraphic" in2="BackgroundImageFix" result="shape"/>
<feColorMatrix in="SourceAlpha" type="matrix" values="0 0 0 0 0 0 0 0 0 0 0 0 0 0 0 0 0 0 127 0" result="hardAlpha"/>
<feOffset dy="-3"/>
<feGaussianBlur stdDeviation="2"/>
<feComposite in2="hardAlpha" operator="arithmetic" k2="-1" k3="1"/>
<feColorMatrix type="matrix" values="0 0 0 0 1 0 0 0 0 0.985109 0 0 0 0 0.900729 0 0 0 0.4 0"/>
<feBlend mode="normal" in2="shape" result="effect1_innerShadow_0_477"/>
<feColorMatrix in="SourceAlpha" type="matrix" values="0 0 0 0 0 0 0 0 0 0 0 0 0 0 0 0 0 0 127 0" result="hardAlpha"/>
<feOffset dy="5"/>
<feGaussianBlur stdDeviation="2.5"/>
<feComposite in2="hardAlpha" operator="arithmetic" k2="-1" k3="1"/>
<feColorMatrix type="matrix" values="0 0 0 0 1 0 0 0 0 0.985109 0 0 0 0 0.900729 0 0 0 0.7 0"/>
<feBlend mode="normal" in2="effect1_innerShadow_0_477" result="effect2_innerShadow_0_477"/>
</filter>
<linearGradient id="paint0_linear_0_477" x1="40.7361" y1="30.7323" x2="126.019" y2="62.052" gradientUnits="userSpaceOnUse">
<stop stop-color="#68A4FF"/>
<stop offset="0.961538" stop-color="#3485FF"/>
</linearGradient>
</defs>
</svg>
