<svg width="230" height="178" viewBox="0 0 230 178" fill="none" xmlns="http://www.w3.org/2000/svg">
<g filter="url(#filter0_d_0_484)">
<path d="M141.222 41.9442C140.899 40.457 139.433 39.513 137.945 39.8357C136.458 40.1586 135.516 41.6251 135.838 43.1122L135.833 43.1L135.838 43.131C135.847 43.1811 135.861 43.2736 135.876 43.4015C135.905 43.6582 135.934 44.054 135.924 44.5492C135.905 45.5467 135.727 46.897 135.104 48.3209C134.925 48.7278 134.649 49.1527 134.298 49.5857C133.696 49.5674 133.091 49.5561 132.485 49.5561C132.4 49.5561 132.314 49.5584 132.229 49.5588C132.052 48.5553 131.77 47.5697 131.339 46.6672C130.284 44.4619 128.872 42.8843 127.728 41.8581C127.155 41.3432 126.64 40.9577 126.254 40.6942C126.061 40.5625 125.898 40.4602 125.776 40.386C125.715 40.349 125.663 40.3177 125.623 40.2945C125.603 40.2831 125.585 40.2731 125.57 40.2649C125.563 40.2609 125.556 40.2573 125.55 40.2542C125.547 40.2527 125.542 40.2501 125.542 40.2501L125.538 40.2474L125.536 40.2461C125.536 40.2461 125.534 40.2459 124.51 42.1299L125.534 40.2461C124.197 39.5192 122.524 40.0138 121.797 41.3508C121.07 42.6877 121.565 44.359 122.902 45.0861L122.901 45.0875L122.89 45.0821L122.917 45.0982C122.96 45.1246 123.04 45.1739 123.145 45.2462C123.359 45.392 123.678 45.6285 124.047 45.9594C124.789 46.6259 125.696 47.6426 126.367 49.0448C126.48 49.2819 126.576 49.5491 126.656 49.8414C98.1004 52.6455 75.4893 75.628 73.3969 97.889C48.2497 114.591 31.901 140.522 31.9008 165.285C31.901 206.383 76.934 200.875 132.485 200.875C188.036 200.875 233.069 206.383 233.069 165.285C233.069 140.522 216.721 114.591 191.574 97.889C189.532 76.1576 167.933 53.7427 140.34 50.0795C141.168 48.0114 141.406 46.0901 141.434 44.6582C141.45 43.8873 141.406 43.2455 141.354 42.7811C141.327 42.549 141.298 42.3597 141.274 42.2187C141.262 42.1481 141.252 42.0883 141.243 42.0424C141.239 42.0196 141.235 41.9997 141.231 41.9832C141.23 41.9754 141.229 41.968 141.227 41.9617C141.227 41.9586 141.225 41.955 141.225 41.9523L141.225 41.9455C141.225 41.9455 141.223 41.9442 139.127 42.399L141.222 41.9442Z" fill="white"/>
<path d="M134.164 88.1798C133.888 87.9371 132.402 87.9371 132.125 88.1798C131.25 88.9494 129.71 90.8866 128.311 92.1169C127.514 92.8167 125.454 93.1692 123.374 93.3441C122.313 93.4343 122.091 95.8016 123.115 96.2748C126.138 97.6714 129.941 99.0628 133.023 99.0197C135.96 98.9785 139.561 97.6389 142.459 96.2896C143.483 95.8129 143.258 93.4208 142.197 93.3172C140.315 93.1341 138.492 92.7832 137.734 92.1169C136.334 90.8866 135.039 88.9494 134.164 88.1798Z" fill="#2A7EFF"/>
<path d="M117.178 86.0694C117.264 82.7513 118.566 80.0614 120.087 80.0614C121.607 80.0614 122.77 82.7513 122.684 86.0694C122.598 89.3875 121.296 92.0774 119.776 92.0774C118.255 92.0774 117.093 89.3875 117.178 86.0694Z" fill="#373737"/>
<path d="M143.358 86.0694C143.444 82.7513 144.746 80.0615 146.266 80.0615C147.786 80.0615 148.949 82.7513 148.864 86.0694C148.778 89.3875 147.476 92.0774 145.955 92.0774C144.435 92.0774 143.272 89.3875 143.358 86.0694Z" fill="#373737"/>
<path d="M124.1 134.137C133.622 128.907 159.204 118.248 192.043 94.8517C193.48 93.8279 195.351 95.0136 195.073 96.7816L193.246 108.39C192.178 115.173 187.192 120.71 180.751 122.267L124.803 135.789C123.1 136.201 122.542 134.993 124.1 134.137Z" fill="url(#paint0_linear_0_484)"/>
<path d="M142.463 133.121C128.656 126.481 94.3473 111.387 71.6344 94.2622C70.1635 93.1532 68.0602 94.4004 68.3586 96.2232L70.2947 108.051C71.354 114.522 76.1971 119.729 82.5353 121.21L141.622 135.018C145.913 136.021 146.445 135.036 142.463 133.121Z" fill="url(#paint1_linear_0_484)"/>
<g filter="url(#filter1_i_0_484)">
<ellipse cx="133.827" cy="131.117" rx="4.32669" ry="3.3652" transform="rotate(5.06194 133.827 131.117)" fill="#FF5754"/>
</g>
<g filter="url(#filter2_ii_0_484)">
<path d="M75.4379 98.8676C70.565 92.5808 60.2526 98.9056 49.2114 107.463C38.1704 116.021 30.5815 123.57 35.4543 129.857C40.3271 136.144 53.2284 134.304 64.2697 125.747C75.3109 117.189 80.3107 105.155 75.4379 98.8676Z" fill="#FF5E14"/>
<path d="M214.624 107.404C203.583 98.8462 193.272 92.5213 188.399 98.8071C183.526 105.094 188.525 117.128 199.566 125.686C210.606 134.244 223.508 136.086 228.381 129.8C233.254 123.513 225.665 115.962 214.624 107.404Z" fill="#FF5E14"/>
</g>
<path d="M121.535 83.5366L121.637 83.047L121.637 83.047L121.535 83.5366ZM126.032 90.385L126.521 90.4866L126.521 90.4865L126.032 90.385ZM119.183 94.8803L119.082 95.3699L119.082 95.3699L119.183 94.8803ZM114.687 88.0328L114.197 87.9312L114.197 87.9313L114.687 88.0328ZM146.795 83.3685L146.896 82.8789L146.896 82.8789L146.795 83.3685ZM151.291 90.2169L151.781 90.3185L151.781 90.3184L151.291 90.2169ZM144.443 94.7131L144.341 95.2027L144.341 95.2027L144.443 94.7131ZM139.946 87.8647L139.457 87.7631L139.457 87.7632L139.946 87.8647ZM121.535 83.5366L121.434 84.0262C124.296 84.6198 126.135 87.4216 125.542 90.2836L126.032 90.385L126.521 90.4865C127.227 87.0838 125.04 83.7528 121.637 83.047L121.535 83.5366ZM126.032 90.385L125.542 90.2835C124.948 93.1453 122.147 94.9838 119.285 94.3907L119.183 94.8803L119.082 95.3699C122.484 96.075 125.815 93.8893 126.521 90.4866L126.032 90.385ZM119.183 94.8803L119.285 94.3907C116.423 93.7972 114.583 90.9963 115.177 88.1343L114.687 88.0328L114.197 87.9313C113.492 91.3343 115.679 94.6643 119.082 95.3699L119.183 94.8803ZM114.687 88.0328L115.177 88.1343C115.77 85.2723 118.572 83.4327 121.434 84.0262L121.535 83.5366L121.637 83.047C118.234 82.3414 114.903 84.5285 114.197 87.9312L114.687 88.0328ZM146.795 83.3685L146.693 83.8581C149.555 84.4516 151.395 87.2534 150.801 90.1154L151.291 90.2169L151.781 90.3184C152.486 86.9157 150.299 83.5846 146.896 82.8789L146.795 83.3685ZM151.291 90.2169L150.801 90.1154C150.208 92.9774 147.406 94.8168 144.544 94.2235L144.443 94.7131L144.341 95.2027C147.744 95.908 151.075 93.7213 151.781 90.3185L151.291 90.2169ZM144.443 94.7131L144.544 94.2235C141.682 93.63 139.843 90.8283 140.436 87.9662L139.946 87.8647L139.457 87.7632C138.751 91.166 140.938 94.497 144.341 95.2027L144.443 94.7131ZM139.946 87.8647L140.436 87.9662C141.03 85.1042 143.831 83.2647 146.693 83.8581L146.795 83.3685L146.896 82.8789C143.494 82.1735 140.163 84.3604 139.457 87.7631L139.946 87.8647Z" fill="#CBCBCB"/>
<path d="M124.079 91.1913L132.338 88.1039C132.802 87.9304 133.314 87.9353 133.774 88.1177L142.284 91.4868" stroke="#BCBCBC" stroke-linecap="round"/>
</g>
<defs>
<filter id="filter0_d_0_484" x="26.9008" y="34.7725" width="211.168" height="171.349" filterUnits="userSpaceOnUse" color-interpolation-filters="sRGB">
<feFlood flood-opacity="0" result="BackgroundImageFix"/>
<feColorMatrix in="SourceAlpha" type="matrix" values="0 0 0 0 0 0 0 0 0 0 0 0 0 0 0 0 0 0 127 0" result="hardAlpha"/>
<feOffset/>
<feGaussianBlur stdDeviation="2.5"/>
<feComposite in2="hardAlpha" operator="out"/>
<feColorMatrix type="matrix" values="0 0 0 0 0 0 0 0 0 0 0 0 0 0 0 0 0 0 0.25 0"/>
<feBlend mode="normal" in2="BackgroundImageFix" result="effect1_dropShadow_0_484"/>
<feBlend mode="normal" in="SourceGraphic" in2="effect1_dropShadow_0_484" result="shape"/>
</filter>
<filter id="filter1_i_0_484" x="129.506" y="127.743" width="8.64038" height="10.748" filterUnits="userSpaceOnUse" color-interpolation-filters="sRGB">
<feFlood flood-opacity="0" result="BackgroundImageFix"/>
<feBlend mode="normal" in="SourceGraphic" in2="BackgroundImageFix" result="shape"/>
<feColorMatrix in="SourceAlpha" type="matrix" values="0 0 0 0 0 0 0 0 0 0 0 0 0 0 0 0 0 0 127 0" result="hardAlpha"/>
<feOffset dy="4"/>
<feGaussianBlur stdDeviation="2"/>
<feComposite in2="hardAlpha" operator="arithmetic" k2="-1" k3="1"/>
<feColorMatrix type="matrix" values="0 0 0 0 1 0 0 0 0 1 0 0 0 0 1 0 0 0 0.25 0"/>
<feBlend mode="normal" in2="shape" result="effect1_innerShadow_0_484"/>
</filter>
<filter id="filter2_ii_0_484" x="33.9496" y="93.2651" width="195.936" height="45.3257" filterUnits="userSpaceOnUse" color-interpolation-filters="sRGB">
<feFlood flood-opacity="0" result="BackgroundImageFix"/>
<feBlend mode="normal" in="SourceGraphic" in2="BackgroundImageFix" result="shape"/>
<feColorMatrix in="SourceAlpha" type="matrix" values="0 0 0 0 0 0 0 0 0 0 0 0 0 0 0 0 0 0 127 0" result="hardAlpha"/>
<feOffset dy="-3"/>
<feGaussianBlur stdDeviation="2"/>
<feComposite in2="hardAlpha" operator="arithmetic" k2="-1" k3="1"/>
<feColorMatrix type="matrix" values="0 0 0 0 1 0 0 0 0 0.985109 0 0 0 0 0.900729 0 0 0 0.4 0"/>
<feBlend mode="normal" in2="shape" result="effect1_innerShadow_0_484"/>
<feColorMatrix in="SourceAlpha" type="matrix" values="0 0 0 0 0 0 0 0 0 0 0 0 0 0 0 0 0 0 127 0" result="hardAlpha"/>
<feOffset dy="5"/>
<feGaussianBlur stdDeviation="2.5"/>
<feComposite in2="hardAlpha" operator="arithmetic" k2="-1" k3="1"/>
<feColorMatrix type="matrix" values="0 0 0 0 1 0 0 0 0 0.985109 0 0 0 0 0.900729 0 0 0 0.7 0"/>
<feBlend mode="normal" in2="effect1_innerShadow_0_484" result="effect2_innerShadow_0_484"/>
</filter>
<linearGradient id="paint0_linear_0_484" x1="156.364" y1="110.313" x2="166.071" y2="131.38" gradientUnits="userSpaceOnUse">
<stop offset="0.360577" stop-color="#FFCD78"/>
<stop offset="1" stop-color="#FFA100"/>
</linearGradient>
<linearGradient id="paint1_linear_0_484" x1="109.804" y1="109.607" x2="100.322" y2="131.185" gradientUnits="userSpaceOnUse">
<stop offset="0.360577" stop-color="#FFCD78"/>
<stop offset="1" stop-color="#FFA100"/>
</linearGradient>
</defs>
</svg>
